<svg width="19" height="19" viewBox="0 0 19 19" fill="none" xmlns="http://www.w3.org/2000/svg">
<path d="M12.2574 5.125V2.9375C12.2574 2.35734 12.0249 1.80094 11.6113 1.3907C11.1976 0.980468 10.6365 0.75 10.0515 0.75H2.33088C1.74585 0.75 1.18477 0.980468 0.771088 1.3907C0.357405 1.80094 0.125 2.35734 0.125 2.9375V16.0625C0.125 16.6427 0.357405 17.1991 0.771088 17.6093C1.18477 18.0195 1.74585 18.25 2.33088 18.25H10.0515C10.6365 18.25 11.1976 18.0195 11.6113 17.6093C12.0249 17.1991 12.2574 16.6427 12.2574 16.0625V13.875M5.63971 9.5H18.875M18.875 9.5L15.5662 6.21875M18.875 9.5L15.5662 12.7812" stroke="#B1B1B1" stroke-width="2" stroke-linecap="round" stroke-linejoin="round"/>
</svg>
