<svg width="116" height="116" viewBox="0 0 116 116" fill="none" xmlns="http://www.w3.org/2000/svg">
<ellipse cx="57.5404" cy="57.54" rx="57.5404" ry="57.54" fill="#09B96D" fill-opacity="0.23"/>
<path d="M49.3044 42.1275H65.7774L69.3326 39.2834C70.543 38.3175 70.9951 36.7496 70.4834 35.2864C69.9717 33.8232 68.6421 32.88 67.0967 32.88H47.9851C46.4397 32.88 45.1101 33.8253 44.5984 35.2864C44.0867 36.7475 44.5388 38.3175 45.7472 39.2813L49.3044 42.1275Z" fill="#09B96D"/>
<path d="M66.0581 45.21H49.022C43.4098 50.7194 39.0449 60.3861 39.0449 68.3287C39.0449 75.2315 42.6987 82.2 50.8613 82.2H64.7326C71.7053 82.2 76.0352 76.8837 76.0352 68.3287C76.0352 60.3861 71.6703 50.7194 66.0581 45.21ZM56.7591 62.1637H58.321C60.7233 62.1637 62.6776 64.118 62.6776 66.5203C62.6776 68.6801 61.1199 70.4577 59.0813 70.8194V72.4367C59.0813 73.2874 58.3908 73.9779 57.5401 73.9779C56.6893 73.9779 55.9988 73.2874 55.9988 72.4367V70.8975H53.9438C53.093 70.8975 52.4025 70.207 52.4025 69.3562C52.4025 68.5054 53.093 67.815 53.9438 67.815H58.321C59.0238 67.815 59.5951 67.2437 59.5951 66.5409C59.5951 65.8175 59.0238 65.2462 58.321 65.2462H56.7591C54.3568 65.2462 52.4025 63.2919 52.4025 60.8896C52.4025 58.7298 53.9602 56.9522 55.9988 56.5906V54.9712C55.9988 54.1204 56.6893 53.43 57.5401 53.43C58.3908 53.43 59.0813 54.1204 59.0813 54.9712V56.5125H61.1363C61.9871 56.5125 62.6776 57.2029 62.6776 58.0537C62.6776 58.9045 61.9871 59.595 61.1363 59.595H56.7591C56.0563 59.595 55.485 60.1662 55.485 60.8691C55.485 61.5924 56.0563 62.1637 56.7591 62.1637V62.1637Z" fill="#09B96D"/>
</svg>
