<svg width="25" height="25" viewBox="0 0 25 25" fill="none" xmlns="http://www.w3.org/2000/svg">
<path d="M6.94434 6.57898L6.94434 5.55558C6.94434 2.48733 9.43164 2.04455e-05 12.4999 2.03733e-05V2.03733e-05C15.5681 2.03011e-05 18.0554 2.48733 18.0554 5.55558L18.0554 6.57898" stroke="#B1B1B1" stroke-width="2" stroke-linecap="round"/>
<path fill-rule="evenodd" clip-rule="evenodd" d="M0.585786 5.84897C0 6.43476 0 7.37757 0 9.26318V17.0001C0 20.7713 0 22.6569 1.17157 23.8285C2.34315 25.0001 4.22876 25.0001 8 25.0001H17C20.7712 25.0001 22.6569 25.0001 23.8284 23.8285C25 22.6569 25 20.7713 25 17.0001V9.26318C25 7.37757 25 6.43476 24.4142 5.84897C23.8284 5.26318 22.8856 5.26318 21 5.26318H4C2.11438 5.26318 1.17157 5.26318 0.585786 5.84897ZM9.33331 11.8422C9.33331 11.2899 8.8856 10.8422 8.33331 10.8422C7.78103 10.8422 7.33331 11.2899 7.33331 11.8422V14.4738C7.33331 15.0261 7.78103 15.4738 8.33331 15.4738C8.8856 15.4738 9.33331 15.0261 9.33331 14.4738V11.8422ZM17.6666 11.8422C17.6666 11.2899 17.2189 10.8422 16.6666 10.8422C16.1144 10.8422 15.6666 11.2899 15.6666 11.8422V14.4738C15.6666 15.0261 16.1144 15.4738 16.6666 15.4738C17.2189 15.4738 17.6666 15.0261 17.6666 14.4738V11.8422Z" fill="#B1B1B1"/>
</svg>
