<svg width="1097" height="171" viewBox="0 0 1097 171" fill="none" xmlns="http://www.w3.org/2000/svg">
<path d="M687 158V154C687 151.878 686.157 149.843 684.657 148.343C683.157 146.842 681.122 146 679 146H665C662.878 146 660.843 146.842 659.343 148.343C657.843 149.843 657 151.878 657 154V158M689 138L693 142L701 134M680 130C680 134.418 676.418 138 672 138C667.582 138 664 134.418 664 130C664 125.581 667.582 122 672 122C676.418 122 680 125.581 680 130Z" stroke="#1E1E1E" stroke-width="4" stroke-linecap="round" stroke-linejoin="round"/>
<path d="M651 130V126C651 123.878 650.157 121.843 648.657 120.343C647.157 118.842 645.122 118 643 118H629C626.878 118 624.843 118.842 623.343 120.343C621.843 121.843 621 123.878 621 126V130M655 104L665 114M665 104L655 114M644 102C644 106.418 640.418 110 636 110C631.582 110 628 106.418 628 102C628 97.5814 631.582 93.9996 636 93.9996C640.418 93.9996 644 97.5814 644 102Z" stroke="#1E1E1E" stroke-width="4" stroke-linecap="round" stroke-linejoin="round"/>
<rect x="0.5" y="0.5" width="539" height="170" rx="24.5" fill="white" stroke="#B1B1B1"/>
<path d="M201.474 54.875V53.3636H210.48V54.875H206.849V65H205.099V54.875H201.474ZM214.744 65.1761C213.926 65.1761 213.212 64.9886 212.602 64.6136C211.992 64.2386 211.518 63.714 211.181 63.0398C210.844 62.3655 210.676 61.5777 210.676 60.6761C210.676 59.7708 210.844 58.9792 211.181 58.3011C211.518 57.6231 211.992 57.0966 212.602 56.7216C213.212 56.3466 213.926 56.1591 214.744 56.1591C215.562 56.1591 216.276 56.3466 216.886 56.7216C217.496 57.0966 217.969 57.6231 218.306 58.3011C218.643 58.9792 218.812 59.7708 218.812 60.6761C218.812 61.5777 218.643 62.3655 218.306 63.0398C217.969 63.714 217.496 64.2386 216.886 64.6136C216.276 64.9886 215.562 65.1761 214.744 65.1761ZM214.749 63.75C215.28 63.75 215.719 63.6098 216.068 63.3295C216.416 63.0492 216.674 62.6761 216.84 62.2102C217.011 61.7443 217.096 61.2311 217.096 60.6705C217.096 60.1136 217.011 59.6023 216.84 59.1364C216.674 58.6667 216.416 58.2898 216.068 58.0057C215.719 57.7216 215.28 57.5795 214.749 57.5795C214.215 57.5795 213.772 57.7216 213.42 58.0057C213.071 58.2898 212.812 58.6667 212.641 59.1364C212.475 59.6023 212.391 60.1136 212.391 60.6705C212.391 61.2311 212.475 61.7443 212.641 62.2102C212.812 62.6761 213.071 63.0492 213.42 63.3295C213.772 63.6098 214.215 63.75 214.749 63.75ZM224.782 56.2727V57.6364H220.015V56.2727H224.782ZM221.293 54.1818H222.992V62.4375C222.992 62.767 223.042 63.0152 223.14 63.1818C223.239 63.3447 223.365 63.4564 223.521 63.517C223.68 63.5739 223.852 63.6023 224.038 63.6023C224.174 63.6023 224.293 63.5928 224.396 63.5739C224.498 63.5549 224.578 63.5398 224.634 63.5284L224.941 64.9318C224.843 64.9697 224.703 65.0076 224.521 65.0455C224.339 65.0871 224.112 65.1098 223.839 65.1136C223.392 65.1212 222.975 65.0417 222.589 64.875C222.203 64.7083 221.89 64.4508 221.651 64.1023C221.413 63.7538 221.293 63.3163 221.293 62.7898V54.1818ZM229.201 65.1932C228.648 65.1932 228.148 65.0909 227.701 64.8864C227.254 64.678 226.9 64.3769 226.639 63.983C226.381 63.589 226.252 63.1061 226.252 62.5341C226.252 62.0417 226.347 61.6364 226.536 61.3182C226.726 61 226.981 60.7481 227.303 60.5625C227.625 60.3769 227.985 60.2367 228.383 60.142C228.781 60.0473 229.186 59.9754 229.599 59.9261C230.122 59.8655 230.546 59.8163 230.872 59.7784C231.197 59.7367 231.434 59.6705 231.582 59.5795C231.73 59.4886 231.803 59.3409 231.803 59.1364V59.0966C231.803 58.6004 231.663 58.2159 231.383 57.9432C231.106 57.6705 230.694 57.5341 230.144 57.5341C229.572 57.5341 229.122 57.661 228.792 57.9148C228.466 58.1648 228.241 58.4432 228.116 58.75L226.519 58.3864C226.709 57.8561 226.985 57.428 227.349 57.1023C227.716 56.7727 228.139 56.5341 228.616 56.3864C229.093 56.2348 229.595 56.1591 230.122 56.1591C230.47 56.1591 230.839 56.2008 231.23 56.2841C231.623 56.3636 231.991 56.5114 232.332 56.7273C232.676 56.9432 232.959 57.2519 233.178 57.6534C233.398 58.0511 233.508 58.5682 233.508 59.2045V65H231.849V63.8068H231.781C231.671 64.0265 231.506 64.2424 231.286 64.4545C231.067 64.6667 230.784 64.8428 230.44 64.983C230.095 65.1231 229.682 65.1932 229.201 65.1932ZM229.57 63.8295C230.04 63.8295 230.442 63.7367 230.775 63.5511C231.112 63.3655 231.368 63.1231 231.542 62.8239C231.72 62.5208 231.809 62.197 231.809 61.8523V60.7273C231.748 60.7879 231.631 60.8447 231.457 60.8977C231.286 60.947 231.091 60.9905 230.872 61.0284C230.652 61.0625 230.438 61.0947 230.23 61.125C230.021 61.1515 229.847 61.1742 229.707 61.1932C229.377 61.2348 229.076 61.3049 228.803 61.4034C228.534 61.5019 228.319 61.6439 228.156 61.8295C227.997 62.0114 227.917 62.2538 227.917 62.5568C227.917 62.9773 228.072 63.2955 228.383 63.5114C228.694 63.7235 229.089 63.8295 229.57 63.8295ZM237.47 53.3636V65H235.771V53.3636H237.47ZM251.609 53.3636H253.37V61.017C253.37 61.8314 253.179 62.553 252.796 63.1818C252.414 63.8068 251.876 64.2992 251.183 64.6591C250.489 65.0152 249.677 65.1932 248.745 65.1932C247.817 65.1932 247.007 65.0152 246.313 64.6591C245.62 64.2992 245.082 63.8068 244.7 63.1818C244.317 62.553 244.126 61.8314 244.126 61.017V53.3636H245.882V60.875C245.882 61.4015 245.997 61.8693 246.228 62.2784C246.463 62.6875 246.794 63.0095 247.222 63.2443C247.65 63.4754 248.158 63.5909 248.745 63.5909C249.336 63.5909 249.846 63.4754 250.274 63.2443C250.705 63.0095 251.035 62.6875 251.262 62.2784C251.493 61.8693 251.609 61.4015 251.609 60.875V53.3636ZM255.923 53.3636H258.053L261.758 62.4091H261.894L265.599 53.3636H267.73V65H266.059V56.5795H265.951L262.519 64.983H261.133L257.701 56.5739H257.593V65H255.923V53.3636ZM270.282 65V53.3636H272.038V58.9205H272.18L277.06 53.3636H279.271L274.578 58.6023L279.288 65H277.174L273.413 59.8011L272.038 61.3807V65H270.282ZM289.079 56.2727V57.6364H284.312V56.2727H289.079ZM285.59 54.1818H287.289V62.4375C287.289 62.767 287.338 63.0152 287.437 63.1818C287.535 63.3447 287.662 63.4564 287.818 63.517C287.977 63.5739 288.149 63.6023 288.335 63.6023C288.471 63.6023 288.59 63.5928 288.693 63.5739C288.795 63.5549 288.874 63.5398 288.931 63.5284L289.238 64.9318C289.14 64.9697 288.999 65.0076 288.818 65.0455C288.636 65.0871 288.408 65.1098 288.136 65.1136C287.689 65.1212 287.272 65.0417 286.886 64.875C286.499 64.7083 286.187 64.4508 285.948 64.1023C285.71 63.7538 285.59 63.3163 285.59 62.7898V54.1818ZM294.626 65.1761C293.766 65.1761 293.025 64.9924 292.404 64.625C291.787 64.2538 291.31 63.733 290.972 63.0625C290.639 62.3883 290.472 61.5985 290.472 60.6932C290.472 59.7992 290.639 59.0114 290.972 58.3295C291.31 57.6477 291.779 57.1155 292.382 56.733C292.988 56.3504 293.696 56.1591 294.507 56.1591C294.999 56.1591 295.476 56.2405 295.938 56.4034C296.4 56.5663 296.815 56.822 297.183 57.1705C297.55 57.5189 297.84 57.9716 298.052 58.5284C298.264 59.0814 298.37 59.7538 298.37 60.5455V61.1477H291.433V59.875H296.705C296.705 59.428 296.614 59.0322 296.433 58.6875C296.251 58.339 295.995 58.0644 295.666 57.8636C295.34 57.6629 294.957 57.5625 294.518 57.5625C294.041 57.5625 293.624 57.6799 293.268 57.9148C292.916 58.1458 292.643 58.4489 292.45 58.8239C292.26 59.1951 292.166 59.5985 292.166 60.0341V61.0284C292.166 61.6117 292.268 62.108 292.472 62.517C292.681 62.9261 292.971 63.2386 293.342 63.4545C293.713 63.6667 294.147 63.7727 294.643 63.7727C294.965 63.7727 295.258 63.7273 295.524 63.6364C295.789 63.5417 296.018 63.4015 296.211 63.2159C296.404 63.0303 296.552 62.8011 296.654 62.5284L298.262 62.8182C298.133 63.2917 297.902 63.7064 297.569 64.0625C297.239 64.4148 296.825 64.6894 296.325 64.8864C295.828 65.0795 295.262 65.1761 294.626 65.1761ZM300.255 65V56.2727H301.897V57.6591H301.988C302.147 57.1894 302.427 56.8201 302.829 56.5511C303.234 56.2784 303.693 56.142 304.204 56.142C304.31 56.142 304.435 56.1458 304.579 56.1534C304.727 56.161 304.842 56.1705 304.926 56.1818V57.8068C304.857 57.7879 304.736 57.767 304.562 57.7443C304.388 57.7178 304.213 57.7045 304.039 57.7045C303.638 57.7045 303.28 57.7898 302.965 57.9602C302.655 58.1269 302.408 58.3598 302.227 58.6591C302.045 58.9545 301.954 59.2917 301.954 59.6705V65H300.255ZM309.35 65.1705C308.646 65.1705 308.017 64.9905 307.464 64.6307C306.915 64.267 306.483 63.75 306.168 63.0795C305.858 62.4053 305.703 61.5966 305.703 60.6534C305.703 59.7102 305.86 58.9034 306.174 58.233C306.492 57.5625 306.928 57.0492 307.481 56.6932C308.034 56.3371 308.661 56.1591 309.362 56.1591C309.903 56.1591 310.339 56.25 310.668 56.4318C311.002 56.6098 311.259 56.8182 311.441 57.0568C311.627 57.2955 311.771 57.5057 311.873 57.6875H311.975V53.3636H313.674V65H312.015V63.642H311.873C311.771 63.8277 311.623 64.0398 311.43 64.2784C311.24 64.517 310.979 64.7254 310.646 64.9034C310.312 65.0814 309.881 65.1705 309.35 65.1705ZM309.725 63.7216C310.214 63.7216 310.627 63.5928 310.964 63.3352C311.305 63.0739 311.562 62.7121 311.737 62.25C311.915 61.7879 312.004 61.25 312.004 60.6364C312.004 60.0303 311.917 59.5 311.742 59.0455C311.568 58.5909 311.312 58.2367 310.975 57.983C310.638 57.7292 310.221 57.6023 309.725 57.6023C309.214 57.6023 308.788 57.7348 308.447 58C308.106 58.2652 307.848 58.6269 307.674 59.0852C307.504 59.5436 307.418 60.0606 307.418 60.6364C307.418 61.2197 307.506 61.7443 307.68 62.2102C307.854 62.6761 308.112 63.0455 308.453 63.3182C308.797 63.5871 309.221 63.7216 309.725 63.7216ZM318.639 65.1932C318.086 65.1932 317.586 65.0909 317.139 64.8864C316.692 64.678 316.337 64.3769 316.076 63.983C315.819 63.589 315.69 63.1061 315.69 62.5341C315.69 62.0417 315.784 61.6364 315.974 61.3182C316.163 61 316.419 60.7481 316.741 60.5625C317.063 60.3769 317.423 60.2367 317.82 60.142C318.218 60.0473 318.623 59.9754 319.036 59.9261C319.559 59.8655 319.983 59.8163 320.309 59.7784C320.635 59.7367 320.872 59.6705 321.019 59.5795C321.167 59.4886 321.241 59.3409 321.241 59.1364V59.0966C321.241 58.6004 321.101 58.2159 320.82 57.9432C320.544 57.6705 320.131 57.5341 319.582 57.5341C319.01 57.5341 318.559 57.661 318.23 57.9148C317.904 58.1648 317.678 58.4432 317.553 58.75L315.957 58.3864C316.146 57.8561 316.423 57.428 316.786 57.1023C317.154 56.7727 317.576 56.5341 318.053 56.3864C318.531 56.2348 319.033 56.1591 319.559 56.1591C319.908 56.1591 320.277 56.2008 320.667 56.2841C321.061 56.3636 321.428 56.5114 321.769 56.7273C322.114 56.9432 322.396 57.2519 322.616 57.6534C322.836 58.0511 322.945 58.5682 322.945 59.2045V65H321.286V63.8068H321.218C321.108 64.0265 320.944 64.2424 320.724 64.4545C320.504 64.6667 320.222 64.8428 319.877 64.983C319.533 65.1231 319.12 65.1932 318.639 65.1932ZM319.008 63.8295C319.478 63.8295 319.879 63.7367 320.212 63.5511C320.55 63.3655 320.805 63.1231 320.98 62.8239C321.158 62.5208 321.247 62.197 321.247 61.8523V60.7273C321.186 60.7879 321.069 60.8447 320.894 60.8977C320.724 60.947 320.529 60.9905 320.309 61.0284C320.089 61.0625 319.875 61.0947 319.667 61.125C319.459 61.1515 319.284 61.1742 319.144 61.1932C318.815 61.2348 318.514 61.3049 318.241 61.4034C317.972 61.5019 317.756 61.6439 317.593 61.8295C317.434 62.0114 317.355 62.2538 317.355 62.5568C317.355 62.9773 317.51 63.2955 317.82 63.5114C318.131 63.7235 318.527 63.8295 319.008 63.8295ZM329.362 56.2727V57.6364H324.43V56.2727H329.362ZM325.782 65V55.2614C325.782 54.7159 325.901 54.2633 326.14 53.9034C326.379 53.5398 326.695 53.2689 327.089 53.0909C327.483 52.9091 327.911 52.8182 328.373 52.8182C328.714 52.8182 329.006 52.8466 329.248 52.9034C329.49 52.9564 329.67 53.0057 329.788 53.0511L329.39 54.4261C329.31 54.4034 329.208 54.3769 329.083 54.3466C328.958 54.3125 328.807 54.2955 328.629 54.2955C328.216 54.2955 327.92 54.3977 327.742 54.6023C327.568 54.8068 327.481 55.1023 327.481 55.4886V65H325.782ZM335.188 56.2727V57.6364H330.421V56.2727H335.188ZM331.7 54.1818H333.399V62.4375C333.399 62.767 333.448 63.0152 333.546 63.1818C333.645 63.3447 333.772 63.4564 333.927 63.517C334.086 63.5739 334.258 63.6023 334.444 63.6023C334.58 63.6023 334.7 63.5928 334.802 63.5739C334.904 63.5549 334.984 63.5398 335.041 63.5284L335.347 64.9318C335.249 64.9697 335.109 65.0076 334.927 65.0455C334.745 65.0871 334.518 65.1098 334.245 65.1136C333.798 65.1212 333.382 65.0417 332.995 64.875C332.609 64.7083 332.296 64.4508 332.058 64.1023C331.819 63.7538 331.7 63.3163 331.7 62.7898V54.1818ZM339.607 65.1932C339.054 65.1932 338.554 65.0909 338.107 64.8864C337.66 64.678 337.306 64.3769 337.045 63.983C336.787 63.589 336.658 63.1061 336.658 62.5341C336.658 62.0417 336.753 61.6364 336.943 61.3182C337.132 61 337.388 60.7481 337.71 60.5625C338.032 60.3769 338.391 60.2367 338.789 60.142C339.187 60.0473 339.592 59.9754 340.005 59.9261C340.528 59.8655 340.952 59.8163 341.278 59.7784C341.604 59.7367 341.84 59.6705 341.988 59.5795C342.136 59.4886 342.21 59.3409 342.21 59.1364V59.0966C342.21 58.6004 342.069 58.2159 341.789 57.9432C341.513 57.6705 341.1 57.5341 340.551 57.5341C339.979 57.5341 339.528 57.661 339.198 57.9148C338.873 58.1648 338.647 58.4432 338.522 58.75L336.926 58.3864C337.115 57.8561 337.391 57.428 337.755 57.1023C338.123 56.7727 338.545 56.5341 339.022 56.3864C339.499 56.2348 340.001 56.1591 340.528 56.1591C340.876 56.1591 341.246 56.2008 341.636 56.2841C342.03 56.3636 342.397 56.5114 342.738 56.7273C343.083 56.9432 343.365 57.2519 343.585 57.6534C343.804 58.0511 343.914 58.5682 343.914 59.2045V65H342.255V63.8068H342.187C342.077 64.0265 341.912 64.2424 341.693 64.4545C341.473 64.6667 341.191 64.8428 340.846 64.983C340.501 65.1231 340.088 65.1932 339.607 65.1932ZM339.977 63.8295C340.446 63.8295 340.848 63.7367 341.181 63.5511C341.518 63.3655 341.774 63.1231 341.948 62.8239C342.126 62.5208 342.215 62.197 342.215 61.8523V60.7273C342.155 60.7879 342.037 60.8447 341.863 60.8977C341.693 60.947 341.498 60.9905 341.278 61.0284C341.058 61.0625 340.844 61.0947 340.636 61.125C340.427 61.1515 340.253 61.1742 340.113 61.1932C339.783 61.2348 339.482 61.3049 339.21 61.4034C338.941 61.5019 338.725 61.6439 338.562 61.8295C338.403 62.0114 338.323 62.2538 338.323 62.5568C338.323 62.9773 338.479 63.2955 338.789 63.5114C339.1 63.7235 339.496 63.8295 339.977 63.8295ZM346.177 65V56.2727H347.819V57.6591H347.91C348.069 57.1894 348.349 56.8201 348.751 56.5511C349.156 56.2784 349.614 56.142 350.126 56.142C350.232 56.142 350.357 56.1458 350.501 56.1534C350.649 56.161 350.764 56.1705 350.847 56.1818V57.8068C350.779 57.7879 350.658 57.767 350.484 57.7443C350.31 57.7178 350.135 57.7045 349.961 57.7045C349.56 57.7045 349.202 57.7898 348.887 57.9602C348.577 58.1269 348.33 58.3598 348.149 58.6591C347.967 58.9545 347.876 59.2917 347.876 59.6705V65H346.177ZM363.092 58.4034L361.552 58.6761C361.488 58.4792 361.385 58.2917 361.245 58.1136C361.109 57.9356 360.923 57.7898 360.688 57.6761C360.453 57.5625 360.16 57.5057 359.808 57.5057C359.327 57.5057 358.925 57.6136 358.603 57.8295C358.281 58.0417 358.12 58.3163 358.12 58.6534C358.12 58.9451 358.228 59.1799 358.444 59.358C358.66 59.536 359.008 59.6818 359.489 59.7955L360.876 60.1136C361.679 60.2992 362.277 60.5852 362.671 60.9716C363.065 61.358 363.262 61.8598 363.262 62.4773C363.262 63 363.111 63.4659 362.808 63.875C362.508 64.2803 362.09 64.5985 361.552 64.8295C361.018 65.0606 360.399 65.1761 359.694 65.1761C358.717 65.1761 357.919 64.9678 357.302 64.5511C356.685 64.1307 356.306 63.5341 356.166 62.7614L357.808 62.5114C357.91 62.9394 358.12 63.2633 358.438 63.483C358.757 63.6989 359.171 63.8068 359.683 63.8068C360.239 63.8068 360.685 63.6913 361.018 63.4602C361.351 63.2254 361.518 62.9394 361.518 62.6023C361.518 62.3295 361.416 62.1004 361.211 61.9148C361.01 61.7292 360.702 61.589 360.285 61.4943L358.808 61.1705C357.993 60.9848 357.391 60.6894 357.001 60.2841C356.614 59.8788 356.421 59.3655 356.421 58.7443C356.421 58.2292 356.565 57.7784 356.853 57.392C357.141 57.0057 357.539 56.7045 358.046 56.4886C358.554 56.2689 359.135 56.1591 359.791 56.1591C360.734 56.1591 361.476 56.3636 362.018 56.7727C362.56 57.178 362.917 57.7216 363.092 58.4034ZM367.67 65.1932C367.117 65.1932 366.617 65.0909 366.17 64.8864C365.723 64.678 365.369 64.3769 365.107 63.983C364.85 63.589 364.721 63.1061 364.721 62.5341C364.721 62.0417 364.816 61.6364 365.005 61.3182C365.194 61 365.45 60.7481 365.772 60.5625C366.094 60.3769 366.454 60.2367 366.852 60.142C367.249 60.0473 367.655 59.9754 368.068 59.9261C368.59 59.8655 369.015 59.8163 369.34 59.7784C369.666 59.7367 369.903 59.6705 370.051 59.5795C370.198 59.4886 370.272 59.3409 370.272 59.1364V59.0966C370.272 58.6004 370.132 58.2159 369.852 57.9432C369.575 57.6705 369.162 57.5341 368.613 57.5341C368.041 57.5341 367.59 57.661 367.261 57.9148C366.935 58.1648 366.71 58.4432 366.585 58.75L364.988 58.3864C365.177 57.8561 365.454 57.428 365.818 57.1023C366.185 56.7727 366.607 56.5341 367.085 56.3864C367.562 56.2348 368.064 56.1591 368.59 56.1591C368.939 56.1591 369.308 56.2008 369.698 56.2841C370.092 56.3636 370.46 56.5114 370.801 56.7273C371.145 56.9432 371.427 57.2519 371.647 57.6534C371.867 58.0511 371.977 58.5682 371.977 59.2045V65H370.318V63.8068H370.249C370.14 64.0265 369.975 64.2424 369.755 64.4545C369.535 64.6667 369.253 64.8428 368.908 64.983C368.564 65.1231 368.151 65.1932 367.67 65.1932ZM368.039 63.8295C368.509 63.8295 368.91 63.7367 369.244 63.5511C369.581 63.3655 369.837 63.1231 370.011 62.8239C370.189 62.5208 370.278 62.197 370.278 61.8523V60.7273C370.217 60.7879 370.1 60.8447 369.926 60.8977C369.755 60.947 369.56 60.9905 369.34 61.0284C369.121 61.0625 368.907 61.0947 368.698 61.125C368.49 61.1515 368.316 61.1742 368.176 61.1932C367.846 61.2348 367.545 61.3049 367.272 61.4034C367.003 61.5019 366.787 61.6439 366.624 61.8295C366.465 62.0114 366.386 62.2538 366.386 62.5568C366.386 62.9773 366.541 63.2955 366.852 63.5114C367.162 63.7235 367.558 63.8295 368.039 63.8295ZM376.779 65.1932C376.226 65.1932 375.726 65.0909 375.279 64.8864C374.832 64.678 374.478 64.3769 374.217 63.983C373.959 63.589 373.83 63.1061 373.83 62.5341C373.83 62.0417 373.925 61.6364 374.114 61.3182C374.304 61 374.56 60.7481 374.882 60.5625C375.203 60.3769 375.563 60.2367 375.961 60.142C376.359 60.0473 376.764 59.9754 377.177 59.9261C377.7 59.8655 378.124 59.8163 378.45 59.7784C378.775 59.7367 379.012 59.6705 379.16 59.5795C379.308 59.4886 379.382 59.3409 379.382 59.1364V59.0966C379.382 58.6004 379.241 58.2159 378.961 57.9432C378.685 57.6705 378.272 57.5341 377.722 57.5341C377.15 57.5341 376.7 57.661 376.37 57.9148C376.044 58.1648 375.819 58.4432 375.694 58.75L374.097 58.3864C374.287 57.8561 374.563 57.428 374.927 57.1023C375.294 56.7727 375.717 56.5341 376.194 56.3864C376.671 56.2348 377.173 56.1591 377.7 56.1591C378.048 56.1591 378.417 56.2008 378.808 56.2841C379.202 56.3636 379.569 56.5114 379.91 56.7273C380.255 56.9432 380.537 57.2519 380.757 57.6534C380.976 58.0511 381.086 58.5682 381.086 59.2045V65H379.427V63.8068H379.359C379.249 64.0265 379.084 64.2424 378.864 64.4545C378.645 64.6667 378.363 64.8428 378.018 64.983C377.673 65.1231 377.26 65.1932 376.779 65.1932ZM377.149 63.8295C377.618 63.8295 378.02 63.7367 378.353 63.5511C378.69 63.3655 378.946 63.1231 379.12 62.8239C379.298 62.5208 379.387 62.197 379.387 61.8523V60.7273C379.327 60.7879 379.209 60.8447 379.035 60.8977C378.864 60.947 378.669 60.9905 378.45 61.0284C378.23 61.0625 378.016 61.0947 377.808 61.125C377.599 61.1515 377.425 61.1742 377.285 61.1932C376.955 61.2348 376.654 61.3049 376.382 61.4034C376.113 61.5019 375.897 61.6439 375.734 61.8295C375.575 62.0114 375.495 62.2538 375.495 62.5568C375.495 62.9773 375.65 63.2955 375.961 63.5114C376.272 63.7235 376.667 63.8295 377.149 63.8295ZM387.423 56.2727V57.6364H382.656V56.2727H387.423ZM383.934 54.1818H385.633V62.4375C385.633 62.767 385.682 63.0152 385.781 63.1818C385.879 63.3447 386.006 63.4564 386.161 63.517C386.32 63.5739 386.493 63.6023 386.678 63.6023C386.815 63.6023 386.934 63.5928 387.036 63.5739C387.139 63.5549 387.218 63.5398 387.275 63.5284L387.582 64.9318C387.483 64.9697 387.343 65.0076 387.161 65.0455C386.98 65.0871 386.752 65.1098 386.48 65.1136C386.033 65.1212 385.616 65.0417 385.23 64.875C384.843 64.7083 384.531 64.4508 384.292 64.1023C384.053 63.7538 383.934 63.3163 383.934 62.7898V54.1818ZM393.536 65V56.2727H395.235V65H393.536ZM394.394 54.9261C394.099 54.9261 393.845 54.8277 393.633 54.6307C393.425 54.4299 393.32 54.1913 393.32 53.9148C393.32 53.6345 393.425 53.3958 393.633 53.1989C393.845 52.9981 394.099 52.8977 394.394 52.8977C394.69 52.8977 394.942 52.9981 395.15 53.1989C395.362 53.3958 395.468 53.6345 395.468 53.9148C395.468 54.1913 395.362 54.4299 395.15 54.6307C394.942 54.8277 394.69 54.9261 394.394 54.9261ZM399.22 59.8182V65H397.521V56.2727H399.151V57.6932H399.259C399.46 57.2311 399.774 56.8598 400.203 56.5795C400.634 56.2992 401.178 56.1591 401.833 56.1591C402.428 56.1591 402.949 56.2841 403.396 56.5341C403.843 56.7803 404.189 57.1477 404.435 57.6364C404.682 58.125 404.805 58.7292 404.805 59.4489V65H403.106V59.6534C403.106 59.0208 402.941 58.5265 402.612 58.1705C402.282 57.8106 401.829 57.6307 401.254 57.6307C400.86 57.6307 400.509 57.7159 400.203 57.8864C399.899 58.0568 399.659 58.3068 399.481 58.6364C399.307 58.9621 399.22 59.3561 399.22 59.8182ZM407.083 65V56.2727H408.782V65H407.083ZM407.941 54.9261C407.646 54.9261 407.392 54.8277 407.18 54.6307C406.971 54.4299 406.867 54.1913 406.867 53.9148C406.867 53.6345 406.971 53.3958 407.18 53.1989C407.392 52.9981 407.646 52.8977 407.941 52.8977C408.237 52.8977 408.489 52.9981 408.697 53.1989C408.909 53.3958 409.015 53.6345 409.015 53.9148C409.015 54.1913 408.909 54.4299 408.697 54.6307C408.489 54.8277 408.237 54.9261 407.941 54.9261Z" fill="#343C6A"/>
<ellipse cx="100" cy="84" rx="62" ry="57" fill="#09B96D" fill-opacity="0.23"/>
<ellipse cx="100" cy="84" rx="62" ry="57" fill="#09B96D" fill-opacity="0.23"/>
<path d="M215.592 121.672C213.064 121.672 210.824 121.224 208.872 120.328C206.92 119.432 205.384 118.152 204.264 116.488C203.176 114.792 202.632 112.792 202.632 110.488V109.624H208.776V110.296C208.776 112.088 209.4 113.528 210.648 114.616C211.896 115.672 213.544 116.2 215.592 116.2C217.672 116.2 219.272 115.704 220.392 114.712C221.544 113.72 222.12 112.472 222.12 110.968V110.488C222.12 109.464 221.864 108.632 221.352 107.992C220.84 107.352 220.152 106.888 219.288 106.6C218.424 106.28 217.448 106.12 216.36 106.12H209.64V99.4L220.488 93.64V92.872H203.496V87.4H227.304V95.56L217.176 100.936V101.704H218.952C220.456 101.704 221.912 102.008 223.32 102.616C224.76 103.224 225.944 104.168 226.872 105.448C227.8 106.696 228.264 108.328 228.264 110.344V110.92C228.264 113.096 227.736 115 226.68 116.632C225.624 118.232 224.136 119.48 222.216 120.376C220.328 121.24 218.12 121.672 215.592 121.672ZM245.755 121.672C241.787 121.672 238.603 120.584 236.203 118.408C233.803 116.2 232.603 112.872 232.603 108.424V99.976C232.603 95.656 233.803 92.376 236.203 90.136C238.603 87.864 241.787 86.728 245.755 86.728C249.755 86.728 252.939 87.864 255.307 90.136C257.707 92.376 258.907 95.656 258.907 99.976V108.424C258.907 112.872 257.707 116.2 255.307 118.408C252.939 120.584 249.755 121.672 245.755 121.672ZM245.755 116.2C248.155 116.2 249.915 115.544 251.035 114.232C252.187 112.92 252.763 111.048 252.763 108.616V99.688C252.763 97.224 252.123 95.368 250.843 94.12C249.595 92.84 247.899 92.2 245.755 92.2C243.547 92.2 241.819 92.856 240.571 94.168C239.355 95.48 238.747 97.32 238.747 99.688V108.616C238.747 111.144 239.323 113.048 240.475 114.328C241.659 115.576 243.419 116.2 245.755 116.2Z" fill="#343C6A"/>
<path opacity="0.5" d="M275.771 95.5455H277.885V107.102C277.885 108.295 277.604 109.361 277.041 110.298C276.484 111.23 275.697 111.966 274.68 112.506C273.663 113.04 272.47 113.307 271.101 113.307C269.732 113.307 268.538 113.04 267.521 112.506C266.504 111.966 265.714 111.23 265.152 110.298C264.595 109.361 264.317 108.295 264.317 107.102V95.5455H266.43V106.932C266.43 107.784 266.618 108.543 266.993 109.207C267.368 109.866 267.902 110.386 268.595 110.767C269.294 111.142 270.129 111.33 271.101 111.33C272.072 111.33 272.908 111.142 273.607 110.767C274.305 110.386 274.839 109.866 275.209 109.207C275.584 108.543 275.771 107.784 275.771 106.932V95.5455ZM282.106 95.5455H284.629L290.56 110.034H290.765L296.697 95.5455H299.219V113H297.242V99.7386H297.072L291.617 113H289.708L284.254 99.7386H284.083V113H282.106V95.5455ZM303.457 113V95.5455H305.571V104.205H305.776L313.616 95.5455H316.378L309.048 103.42L316.378 113H313.821L307.753 104.886L305.571 107.341V113H303.457Z" fill="#232323"/>
<rect x="557.5" y="0.5" width="539" height="170" rx="24.5" fill="white" stroke="#B1B1B1"/>
<path d="M758.474 54.875V53.3636H767.48V54.875H763.849V65H762.099V54.875H758.474ZM771.744 65.1761C770.926 65.1761 770.212 64.9886 769.602 64.6136C768.992 64.2386 768.518 63.714 768.181 63.0398C767.844 62.3655 767.676 61.5777 767.676 60.6761C767.676 59.7708 767.844 58.9792 768.181 58.3011C768.518 57.6231 768.992 57.0966 769.602 56.7216C770.212 56.3466 770.926 56.1591 771.744 56.1591C772.562 56.1591 773.276 56.3466 773.886 56.7216C774.496 57.0966 774.969 57.6231 775.306 58.3011C775.643 58.9792 775.812 59.7708 775.812 60.6761C775.812 61.5777 775.643 62.3655 775.306 63.0398C774.969 63.714 774.496 64.2386 773.886 64.6136C773.276 64.9886 772.562 65.1761 771.744 65.1761ZM771.749 63.75C772.28 63.75 772.719 63.6098 773.068 63.3295C773.416 63.0492 773.674 62.6761 773.84 62.2102C774.011 61.7443 774.096 61.2311 774.096 60.6705C774.096 60.1136 774.011 59.6023 773.84 59.1364C773.674 58.6667 773.416 58.2898 773.068 58.0057C772.719 57.7216 772.28 57.5795 771.749 57.5795C771.215 57.5795 770.772 57.7216 770.42 58.0057C770.071 58.2898 769.812 58.6667 769.641 59.1364C769.475 59.6023 769.391 60.1136 769.391 60.6705C769.391 61.2311 769.475 61.7443 769.641 62.2102C769.812 62.6761 770.071 63.0492 770.42 63.3295C770.772 63.6098 771.215 63.75 771.749 63.75ZM781.782 56.2727V57.6364H777.015V56.2727H781.782ZM778.293 54.1818H779.992V62.4375C779.992 62.767 780.042 63.0152 780.14 63.1818C780.239 63.3447 780.365 63.4564 780.521 63.517C780.68 63.5739 780.852 63.6023 781.038 63.6023C781.174 63.6023 781.293 63.5928 781.396 63.5739C781.498 63.5549 781.578 63.5398 781.634 63.5284L781.941 64.9318C781.843 64.9697 781.703 65.0076 781.521 65.0455C781.339 65.0871 781.112 65.1098 780.839 65.1136C780.392 65.1212 779.975 65.0417 779.589 64.875C779.203 64.7083 778.89 64.4508 778.651 64.1023C778.413 63.7538 778.293 63.3163 778.293 62.7898V54.1818ZM786.201 65.1932C785.648 65.1932 785.148 65.0909 784.701 64.8864C784.254 64.678 783.9 64.3769 783.639 63.983C783.381 63.589 783.252 63.1061 783.252 62.5341C783.252 62.0417 783.347 61.6364 783.536 61.3182C783.726 61 783.981 60.7481 784.303 60.5625C784.625 60.3769 784.985 60.2367 785.383 60.142C785.781 60.0473 786.186 59.9754 786.599 59.9261C787.122 59.8655 787.546 59.8163 787.872 59.7784C788.197 59.7367 788.434 59.6705 788.582 59.5795C788.73 59.4886 788.803 59.3409 788.803 59.1364V59.0966C788.803 58.6004 788.663 58.2159 788.383 57.9432C788.106 57.6705 787.694 57.5341 787.144 57.5341C786.572 57.5341 786.122 57.661 785.792 57.9148C785.466 58.1648 785.241 58.4432 785.116 58.75L783.519 58.3864C783.709 57.8561 783.985 57.428 784.349 57.1023C784.716 56.7727 785.139 56.5341 785.616 56.3864C786.093 56.2348 786.595 56.1591 787.122 56.1591C787.47 56.1591 787.839 56.2008 788.23 56.2841C788.623 56.3636 788.991 56.5114 789.332 56.7273C789.676 56.9432 789.959 57.2519 790.178 57.6534C790.398 58.0511 790.508 58.5682 790.508 59.2045V65H788.849V63.8068H788.781C788.671 64.0265 788.506 64.2424 788.286 64.4545C788.067 64.6667 787.784 64.8428 787.44 64.983C787.095 65.1231 786.682 65.1932 786.201 65.1932ZM786.57 63.8295C787.04 63.8295 787.442 63.7367 787.775 63.5511C788.112 63.3655 788.368 63.1231 788.542 62.8239C788.72 62.5208 788.809 62.197 788.809 61.8523V60.7273C788.748 60.7879 788.631 60.8447 788.457 60.8977C788.286 60.947 788.091 60.9905 787.872 61.0284C787.652 61.0625 787.438 61.0947 787.23 61.125C787.021 61.1515 786.847 61.1742 786.707 61.1932C786.377 61.2348 786.076 61.3049 785.803 61.4034C785.534 61.5019 785.319 61.6439 785.156 61.8295C784.997 62.0114 784.917 62.2538 784.917 62.5568C784.917 62.9773 785.072 63.2955 785.383 63.5114C785.694 63.7235 786.089 63.8295 786.57 63.8295ZM794.47 53.3636V65H792.771V53.3636H794.47ZM808.609 53.3636H810.37V61.017C810.37 61.8314 810.179 62.553 809.796 63.1818C809.414 63.8068 808.876 64.2992 808.183 64.6591C807.489 65.0152 806.677 65.1932 805.745 65.1932C804.817 65.1932 804.007 65.0152 803.313 64.6591C802.62 64.2992 802.082 63.8068 801.7 63.1818C801.317 62.553 801.126 61.8314 801.126 61.017V53.3636H802.882V60.875C802.882 61.4015 802.997 61.8693 803.228 62.2784C803.463 62.6875 803.794 63.0095 804.222 63.2443C804.65 63.4754 805.158 63.5909 805.745 63.5909C806.336 63.5909 806.846 63.4754 807.274 63.2443C807.705 63.0095 808.035 62.6875 808.262 62.2784C808.493 61.8693 808.609 61.4015 808.609 60.875V53.3636ZM812.923 53.3636H815.053L818.758 62.4091H818.894L822.599 53.3636H824.73V65H823.059V56.5795H822.951L819.519 64.983H818.133L814.701 56.5739H814.593V65H812.923V53.3636ZM827.282 65V53.3636H829.038V58.9205H829.18L834.06 53.3636H836.271L831.578 58.6023L836.288 65H834.174L830.413 59.8011L829.038 61.3807V65H827.282ZM842.005 65V56.2727H843.636V57.6932H843.744C843.926 57.2121 844.223 56.8371 844.636 56.5682C845.049 56.2955 845.543 56.1591 846.119 56.1591C846.702 56.1591 847.191 56.2955 847.585 56.5682C847.982 56.8409 848.276 57.2159 848.465 57.6932H848.556C848.765 57.2273 849.096 56.8561 849.551 56.5795C850.005 56.2992 850.547 56.1591 851.176 56.1591C851.967 56.1591 852.613 56.4072 853.113 56.9034C853.617 57.3996 853.869 58.1477 853.869 59.1477V65H852.17V59.3068C852.17 58.7159 852.009 58.2879 851.687 58.0227C851.365 57.7576 850.98 57.625 850.533 57.625C849.98 57.625 849.551 57.7955 849.244 58.1364C848.937 58.4735 848.783 58.9072 848.783 59.4375V65H847.09V59.1989C847.09 58.7254 846.943 58.3447 846.647 58.0568C846.352 57.7689 845.967 57.625 845.494 57.625C845.172 57.625 844.874 57.7102 844.602 57.8807C844.333 58.0473 844.115 58.2803 843.948 58.5795C843.785 58.8788 843.704 59.2254 843.704 59.6193V65H842.005ZM859.907 65.1761C859.047 65.1761 858.307 64.9924 857.685 64.625C857.068 64.2538 856.591 63.733 856.254 63.0625C855.92 62.3883 855.754 61.5985 855.754 60.6932C855.754 59.7992 855.92 59.0114 856.254 58.3295C856.591 57.6477 857.06 57.1155 857.663 56.733C858.269 56.3504 858.977 56.1591 859.788 56.1591C860.28 56.1591 860.757 56.2405 861.22 56.4034C861.682 56.5663 862.096 56.822 862.464 57.1705C862.831 57.5189 863.121 57.9716 863.333 58.5284C863.545 59.0814 863.651 59.7538 863.651 60.5455V61.1477H856.714V59.875H861.987C861.987 59.428 861.896 59.0322 861.714 58.6875C861.532 58.339 861.276 58.0644 860.947 57.8636C860.621 57.6629 860.239 57.5625 859.799 57.5625C859.322 57.5625 858.905 57.6799 858.549 57.9148C858.197 58.1458 857.924 58.4489 857.731 58.8239C857.542 59.1951 857.447 59.5985 857.447 60.0341V61.0284C857.447 61.6117 857.549 62.108 857.754 62.517C857.962 62.9261 858.252 63.2386 858.623 63.4545C858.994 63.6667 859.428 63.7727 859.924 63.7727C860.246 63.7727 860.54 63.7273 860.805 63.6364C861.07 63.5417 861.299 63.4015 861.492 63.2159C861.685 63.0303 861.833 62.8011 861.935 62.5284L863.543 62.8182C863.415 63.2917 863.184 63.7064 862.85 64.0625C862.521 64.4148 862.106 64.6894 861.606 64.8864C861.11 65.0795 860.543 65.1761 859.907 65.1761ZM865.536 65V56.2727H867.167V57.6932H867.275C867.457 57.2121 867.754 56.8371 868.167 56.5682C868.58 56.2955 869.074 56.1591 869.65 56.1591C870.233 56.1591 870.722 56.2955 871.116 56.5682C871.514 56.8409 871.807 57.2159 871.997 57.6932H872.087C872.296 57.2273 872.627 56.8561 873.082 56.5795C873.536 56.2992 874.078 56.1591 874.707 56.1591C875.498 56.1591 876.144 56.4072 876.644 56.9034C877.148 57.3996 877.4 58.1477 877.4 59.1477V65H875.701V59.3068C875.701 58.7159 875.54 58.2879 875.218 58.0227C874.896 57.7576 874.512 57.625 874.065 57.625C873.512 57.625 873.082 57.7955 872.775 58.1364C872.468 58.4735 872.315 58.9072 872.315 59.4375V65H870.622V59.1989C870.622 58.7254 870.474 58.3447 870.178 58.0568C869.883 57.7689 869.498 57.625 869.025 57.625C868.703 57.625 868.406 57.7102 868.133 57.8807C867.864 58.0473 867.646 58.2803 867.48 58.5795C867.317 58.8788 867.235 59.2254 867.235 59.6193V65H865.536ZM883.438 65.1761C882.578 65.1761 881.838 64.9924 881.217 64.625C880.599 64.2538 880.122 63.733 879.785 63.0625C879.452 62.3883 879.285 61.5985 879.285 60.6932C879.285 59.7992 879.452 59.0114 879.785 58.3295C880.122 57.6477 880.592 57.1155 881.194 56.733C881.8 56.3504 882.508 56.1591 883.319 56.1591C883.811 56.1591 884.289 56.2405 884.751 56.4034C885.213 56.5663 885.628 56.822 885.995 57.1705C886.363 57.5189 886.652 57.9716 886.864 58.5284C887.077 59.0814 887.183 59.7538 887.183 60.5455V61.1477H880.245V59.875H885.518C885.518 59.428 885.427 59.0322 885.245 58.6875C885.063 58.339 884.808 58.0644 884.478 57.8636C884.152 57.6629 883.77 57.5625 883.33 57.5625C882.853 57.5625 882.436 57.6799 882.08 57.9148C881.728 58.1458 881.455 58.4489 881.262 58.8239C881.073 59.1951 880.978 59.5985 880.978 60.0341V61.0284C880.978 61.6117 881.08 62.108 881.285 62.517C881.493 62.9261 881.783 63.2386 882.154 63.4545C882.525 63.6667 882.959 63.7727 883.455 63.7727C883.777 63.7727 884.071 63.7273 884.336 63.6364C884.601 63.5417 884.83 63.4015 885.024 63.2159C885.217 63.0303 885.364 62.8011 885.467 62.5284L887.075 62.8182C886.946 63.2917 886.715 63.7064 886.382 64.0625C886.052 64.4148 885.637 64.6894 885.137 64.8864C884.641 65.0795 884.075 65.1761 883.438 65.1761ZM889.068 65V56.2727H890.71V57.6591H890.801C890.96 57.1894 891.24 56.8201 891.641 56.5511C892.047 56.2784 892.505 56.142 893.016 56.142C893.123 56.142 893.248 56.1458 893.391 56.1534C893.539 56.161 893.655 56.1705 893.738 56.1818V57.8068C893.67 57.7879 893.549 57.767 893.374 57.7443C893.2 57.7178 893.026 57.7045 892.852 57.7045C892.45 57.7045 892.092 57.7898 891.778 57.9602C891.467 58.1269 891.221 58.3598 891.039 58.6591C890.857 58.9545 890.766 59.2917 890.766 59.6705V65H889.068ZM896.907 53.3636V65H895.208V53.3636H896.907ZM904.721 61.3807V56.2727H906.426V65H904.755V63.4886H904.664C904.463 63.9545 904.141 64.3428 903.698 64.6534C903.259 64.9602 902.712 65.1136 902.056 65.1136C901.496 65.1136 900.999 64.9905 900.568 64.7443C900.14 64.4943 899.802 64.125 899.556 63.6364C899.314 63.1477 899.193 62.5436 899.193 61.8239V56.2727H900.891V61.6193C900.891 62.214 901.056 62.6875 901.386 63.0398C901.715 63.392 902.143 63.5682 902.67 63.5682C902.988 63.5682 903.304 63.4886 903.619 63.3295C903.937 63.1705 904.2 62.9299 904.408 62.608C904.621 62.286 904.725 61.8769 904.721 61.3807ZM910.271 62.0398L910.259 59.9659H910.555L914.032 56.2727H916.066L912.1 60.4773H911.833L910.271 62.0398ZM908.708 65V53.3636H910.407V65H908.708ZM914.22 65L911.095 60.8523L912.265 59.6648L916.305 65H914.22ZM920.154 65.1932C919.601 65.1932 919.101 65.0909 918.654 64.8864C918.207 64.678 917.853 64.3769 917.592 63.983C917.334 63.589 917.205 63.1061 917.205 62.5341C917.205 62.0417 917.3 61.6364 917.489 61.3182C917.679 61 917.935 60.7481 918.257 60.5625C918.578 60.3769 918.938 60.2367 919.336 60.142C919.734 60.0473 920.139 59.9754 920.552 59.9261C921.075 59.8655 921.499 59.8163 921.825 59.7784C922.15 59.7367 922.387 59.6705 922.535 59.5795C922.683 59.4886 922.757 59.3409 922.757 59.1364V59.0966C922.757 58.6004 922.616 58.2159 922.336 57.9432C922.06 57.6705 921.647 57.5341 921.097 57.5341C920.525 57.5341 920.075 57.661 919.745 57.9148C919.419 58.1648 919.194 58.4432 919.069 58.75L917.472 58.3864C917.662 57.8561 917.938 57.428 918.302 57.1023C918.669 56.7727 919.092 56.5341 919.569 56.3864C920.046 56.2348 920.548 56.1591 921.075 56.1591C921.423 56.1591 921.792 56.2008 922.183 56.2841C922.577 56.3636 922.944 56.5114 923.285 56.7273C923.63 56.9432 923.912 57.2519 924.132 57.6534C924.351 58.0511 924.461 58.5682 924.461 59.2045V65H922.802V63.8068H922.734C922.624 64.0265 922.459 64.2424 922.239 64.4545C922.02 64.6667 921.738 64.8428 921.393 64.983C921.048 65.1231 920.635 65.1932 920.154 65.1932ZM920.524 63.8295C920.993 63.8295 921.395 63.7367 921.728 63.5511C922.065 63.3655 922.321 63.1231 922.495 62.8239C922.673 62.5208 922.762 62.197 922.762 61.8523V60.7273C922.702 60.7879 922.584 60.8447 922.41 60.8977C922.239 60.947 922.044 60.9905 921.825 61.0284C921.605 61.0625 921.391 61.0947 921.183 61.125C920.974 61.1515 920.8 61.1742 920.66 61.1932C920.33 61.2348 920.029 61.3049 919.757 61.4034C919.488 61.5019 919.272 61.6439 919.109 61.8295C918.95 62.0114 918.87 62.2538 918.87 62.5568C918.87 62.9773 919.025 63.2955 919.336 63.5114C919.647 63.7235 920.042 63.8295 920.524 63.8295ZM928.423 59.8182V65H926.724V56.2727H928.355V57.6932H928.462C928.663 57.2311 928.978 56.8598 929.406 56.5795C929.837 56.2992 930.381 56.1591 931.036 56.1591C931.631 56.1591 932.152 56.2841 932.599 56.5341C933.046 56.7803 933.392 57.1477 933.639 57.6364C933.885 58.125 934.008 58.7292 934.008 59.4489V65H932.309V59.6534C932.309 59.0208 932.144 58.5265 931.815 58.1705C931.485 57.8106 931.033 57.6307 930.457 57.6307C930.063 57.6307 929.712 57.7159 929.406 57.8864C929.103 58.0568 928.862 58.3068 928.684 58.6364C928.51 58.9621 928.423 59.3561 928.423 59.8182ZM947.987 56.2727L944.822 65H943.004L939.833 56.2727H941.657L943.867 62.9886H943.958L946.163 56.2727H947.987ZM953.048 65.1761C952.188 65.1761 951.447 64.9924 950.826 64.625C950.209 64.2538 949.731 63.733 949.394 63.0625C949.061 62.3883 948.894 61.5985 948.894 60.6932C948.894 59.7992 949.061 59.0114 949.394 58.3295C949.731 57.6477 950.201 57.1155 950.803 56.733C951.409 56.3504 952.118 56.1591 952.928 56.1591C953.421 56.1591 953.898 56.2405 954.36 56.4034C954.822 56.5663 955.237 56.822 955.605 57.1705C955.972 57.5189 956.262 57.9716 956.474 58.5284C956.686 59.0814 956.792 59.7538 956.792 60.5455V61.1477H949.855V59.875H955.127C955.127 59.428 955.036 59.0322 954.855 58.6875C954.673 58.339 954.417 58.0644 954.087 57.8636C953.762 57.6629 953.379 57.5625 952.94 57.5625C952.462 57.5625 952.046 57.6799 951.69 57.9148C951.337 58.1458 951.065 58.4489 950.872 58.8239C950.682 59.1951 950.587 59.5985 950.587 60.0341V61.0284C950.587 61.6117 950.69 62.108 950.894 62.517C951.103 62.9261 951.392 63.2386 951.764 63.4545C952.135 63.6667 952.569 63.7727 953.065 63.7727C953.387 63.7727 953.68 63.7273 953.945 63.6364C954.211 63.5417 954.44 63.4015 954.633 63.2159C954.826 63.0303 954.974 62.8011 955.076 62.5284L956.684 62.8182C956.555 63.2917 956.324 63.7064 955.991 64.0625C955.661 64.4148 955.247 64.6894 954.747 64.8864C954.25 65.0795 953.684 65.1761 953.048 65.1761ZM958.677 65V56.2727H960.319V57.6591H960.41C960.569 57.1894 960.849 56.8201 961.251 56.5511C961.656 56.2784 962.114 56.142 962.626 56.142C962.732 56.142 962.857 56.1458 963.001 56.1534C963.149 56.161 963.264 56.1705 963.347 56.1818V57.8068C963.279 57.7879 963.158 57.767 962.984 57.7443C962.81 57.7178 962.635 57.7045 962.461 57.7045C962.06 57.7045 961.702 57.7898 961.387 57.9602C961.077 58.1269 960.83 58.3598 960.649 58.6591C960.467 58.9545 960.376 59.2917 960.376 59.6705V65H958.677ZM964.818 65V56.2727H966.516V65H964.818ZM965.676 54.9261C965.38 54.9261 965.126 54.8277 964.914 54.6307C964.706 54.4299 964.602 54.1913 964.602 53.9148C964.602 53.6345 964.706 53.3958 964.914 53.1989C965.126 52.9981 965.38 52.8977 965.676 52.8977C965.971 52.8977 966.223 52.9981 966.431 53.1989C966.643 53.3958 966.749 53.6345 966.749 53.9148C966.749 54.1913 966.643 54.4299 966.431 54.6307C966.223 54.8277 965.971 54.9261 965.676 54.9261ZM972.955 56.2727V57.6364H968.024V56.2727H972.955ZM969.376 65V55.2614C969.376 54.7159 969.495 54.2633 969.734 53.9034C969.972 53.5398 970.289 53.2689 970.683 53.0909C971.077 52.9091 971.505 52.8182 971.967 52.8182C972.308 52.8182 972.599 52.8466 972.842 52.9034C973.084 52.9564 973.264 53.0057 973.382 53.0511L972.984 54.4261C972.904 54.4034 972.802 54.3769 972.677 54.3466C972.552 54.3125 972.4 54.2955 972.222 54.2955C971.81 54.2955 971.514 54.3977 971.336 54.6023C971.162 54.8068 971.075 55.1023 971.075 55.4886V65H969.376ZM974.708 65V56.2727H976.407V65H974.708ZM975.566 54.9261C975.271 54.9261 975.017 54.8277 974.805 54.6307C974.596 54.4299 974.492 54.1913 974.492 53.9148C974.492 53.6345 974.596 53.3958 974.805 53.1989C975.017 52.9981 975.271 52.8977 975.566 52.8977C975.862 52.8977 976.114 52.9981 976.322 53.1989C976.534 53.3958 976.64 53.6345 976.64 53.9148C976.64 54.1913 976.534 54.4299 976.322 54.6307C976.114 54.8277 975.862 54.9261 975.566 54.9261ZM980.255 62.0398L980.244 59.9659H980.539L984.016 56.2727H986.051L982.085 60.4773H981.818L980.255 62.0398ZM978.693 65V53.3636H980.391V65H978.693ZM984.204 65L981.079 60.8523L982.249 59.6648L986.289 65H984.204ZM990.139 65.1932C989.586 65.1932 989.086 65.0909 988.639 64.8864C988.192 64.678 987.837 64.3769 987.576 63.983C987.319 63.589 987.19 63.1061 987.19 62.5341C987.19 62.0417 987.284 61.6364 987.474 61.3182C987.663 61 987.919 60.7481 988.241 60.5625C988.563 60.3769 988.923 60.2367 989.32 60.142C989.718 60.0473 990.123 59.9754 990.536 59.9261C991.059 59.8655 991.483 59.8163 991.809 59.7784C992.135 59.7367 992.372 59.6705 992.519 59.5795C992.667 59.4886 992.741 59.3409 992.741 59.1364V59.0966C992.741 58.6004 992.601 58.2159 992.32 57.9432C992.044 57.6705 991.631 57.5341 991.082 57.5341C990.51 57.5341 990.059 57.661 989.73 57.9148C989.404 58.1648 989.178 58.4432 989.053 58.75L987.457 58.3864C987.646 57.8561 987.923 57.428 988.286 57.1023C988.654 56.7727 989.076 56.5341 989.553 56.3864C990.031 56.2348 990.533 56.1591 991.059 56.1591C991.408 56.1591 991.777 56.2008 992.167 56.2841C992.561 56.3636 992.928 56.5114 993.269 56.7273C993.614 56.9432 993.896 57.2519 994.116 57.6534C994.336 58.0511 994.445 58.5682 994.445 59.2045V65H992.786V63.8068H992.718C992.608 64.0265 992.444 64.2424 992.224 64.4545C992.004 64.6667 991.722 64.8428 991.377 64.983C991.033 65.1231 990.62 65.1932 990.139 65.1932ZM990.508 63.8295C990.978 63.8295 991.379 63.7367 991.712 63.5511C992.05 63.3655 992.305 63.1231 992.48 62.8239C992.658 62.5208 992.747 62.197 992.747 61.8523V60.7273C992.686 60.7879 992.569 60.8447 992.394 60.8977C992.224 60.947 992.029 60.9905 991.809 61.0284C991.589 61.0625 991.375 61.0947 991.167 61.125C990.959 61.1515 990.784 61.1742 990.644 61.1932C990.315 61.2348 990.014 61.3049 989.741 61.4034C989.472 61.5019 989.256 61.6439 989.093 61.8295C988.934 62.0114 988.855 62.2538 988.855 62.5568C988.855 62.9773 989.01 63.2955 989.32 63.5114C989.631 63.7235 990.027 63.8295 990.508 63.8295ZM1003.25 58.4034L1001.71 58.6761C1001.64 58.4792 1001.54 58.2917 1001.4 58.1136C1001.27 57.9356 1001.08 57.7898 1000.84 57.6761C1000.61 57.5625 1000.32 57.5057 999.964 57.5057C999.483 57.5057 999.081 57.6136 998.759 57.8295C998.437 58.0417 998.276 58.3163 998.276 58.6534C998.276 58.9451 998.384 59.1799 998.6 59.358C998.816 59.536 999.165 59.6818 999.646 59.7955L1001.03 60.1136C1001.84 60.2992 1002.43 60.5852 1002.83 60.9716C1003.22 61.358 1003.42 61.8598 1003.42 62.4773C1003.42 63 1003.27 63.4659 1002.96 63.875C1002.66 64.2803 1002.25 64.5985 1001.71 64.8295C1001.17 65.0606 1000.55 65.1761 999.85 65.1761C998.873 65.1761 998.076 64.9678 997.458 64.5511C996.841 64.1307 996.462 63.5341 996.322 62.7614L997.964 62.5114C998.066 62.9394 998.276 63.2633 998.595 63.483C998.913 63.6989 999.328 63.8068 999.839 63.8068C1000.4 63.8068 1000.84 63.6913 1001.17 63.4602C1001.51 63.2254 1001.67 62.9394 1001.67 62.6023C1001.67 62.3295 1001.57 62.1004 1001.37 61.9148C1001.17 61.7292 1000.86 61.589 1000.44 61.4943L998.964 61.1705C998.149 60.9848 997.547 60.6894 997.157 60.2841C996.771 59.8788 996.578 59.3655 996.578 58.7443C996.578 58.2292 996.721 57.7784 997.009 57.392C997.297 57.0057 997.695 56.7045 998.203 56.4886C998.71 56.2689 999.292 56.1591 999.947 56.1591C1000.89 56.1591 1001.63 56.3636 1002.17 56.7727C1002.72 57.178 1003.07 57.7216 1003.25 58.4034ZM1005.29 65V56.2727H1006.99V65H1005.29ZM1006.14 54.9261C1005.85 54.9261 1005.6 54.8277 1005.38 54.6307C1005.17 54.4299 1005.07 54.1913 1005.07 53.9148C1005.07 53.6345 1005.17 53.3958 1005.38 53.1989C1005.6 52.9981 1005.85 52.8977 1006.14 52.8977C1006.44 52.8977 1006.69 52.9981 1006.9 53.1989C1007.11 53.3958 1007.22 53.6345 1007.22 53.9148C1007.22 54.1913 1007.11 54.4299 1006.9 54.6307C1006.69 54.8277 1006.44 54.9261 1006.14 54.9261Z" fill="#343C6A"/>
<ellipse cx="659" cy="84" rx="62" ry="60" fill="#808080" fill-opacity="0.69"/>
<path d="M770.384 121V91.912H769.52L765.008 102.568H758.576L765.44 87.4H776.528V121H770.384ZM794.295 121.672C791.767 121.672 789.527 121.224 787.575 120.328C785.623 119.432 784.087 118.152 782.967 116.488C781.879 114.792 781.335 112.792 781.335 110.488V109.624H787.479V110.296C787.479 112.088 788.103 113.528 789.351 114.616C790.599 115.672 792.247 116.2 794.295 116.2C796.375 116.2 797.975 115.704 799.095 114.712C800.247 113.72 800.823 112.472 800.823 110.968V110.488C800.823 109.464 800.567 108.632 800.055 107.992C799.543 107.352 798.855 106.888 797.991 106.6C797.127 106.28 796.151 106.12 795.063 106.12H788.343V99.4L799.191 93.64V92.872H782.199V87.4H806.007V95.56L795.879 100.936V101.704H797.655C799.159 101.704 800.615 102.008 802.023 102.616C803.463 103.224 804.647 104.168 805.575 105.448C806.503 106.696 806.967 108.328 806.967 110.344V110.92C806.967 113.096 806.439 115 805.383 116.632C804.327 118.232 802.839 119.48 800.919 120.376C799.031 121.24 796.823 121.672 794.295 121.672Z" fill="#343C6A"/>
<path opacity="0.5" d="M822.771 95.5455H824.885V107.102C824.885 108.295 824.604 109.361 824.041 110.298C823.484 111.23 822.697 111.966 821.68 112.506C820.663 113.04 819.47 113.307 818.101 113.307C816.732 113.307 815.538 113.04 814.521 112.506C813.504 111.966 812.714 111.23 812.152 110.298C811.595 109.361 811.317 108.295 811.317 107.102V95.5455H813.43V106.932C813.43 107.784 813.618 108.543 813.993 109.207C814.368 109.866 814.902 110.386 815.595 110.767C816.294 111.142 817.129 111.33 818.101 111.33C819.072 111.33 819.908 111.142 820.607 110.767C821.305 110.386 821.839 109.866 822.209 109.207C822.584 108.543 822.771 107.784 822.771 106.932V95.5455ZM829.106 95.5455H831.629L837.56 110.034H837.765L843.697 95.5455H846.219V113H844.242V99.7386H844.072L838.617 113H836.708L831.254 99.7386H831.083V113H829.106V95.5455ZM850.457 113V95.5455H852.571V104.205H852.776L860.616 95.5455H863.378L856.048 103.42L863.378 113H860.821L854.753 104.886L852.571 107.341V113H850.457Z" fill="#232323"/>
<path d="M112.208 108.375V103.292C112.208 100.595 111.137 98.0094 109.231 96.1028C107.324 94.1961 104.738 93.125 102.042 93.125H81.7083C79.0119 93.125 76.426 94.1961 74.5194 96.1028C72.6128 98.0094 71.5416 100.595 71.5416 103.292V108.375M127.458 108.375V103.292C127.457 101.039 126.707 98.8508 125.327 97.0705C123.947 95.2901 122.014 94.0186 119.833 93.4554M109.667 62.9554C111.854 63.5153 113.792 64.7872 115.176 66.5705C116.56 68.3537 117.312 70.5469 117.312 72.8044C117.312 75.0618 116.56 77.255 115.176 79.0383C113.792 80.8216 111.854 82.0934 109.667 82.6533M102.042 72.7917C102.042 78.4066 97.4899 82.9583 91.875 82.9583C86.2601 82.9583 81.7083 78.4066 81.7083 72.7917C81.7083 67.1768 86.2601 62.625 91.875 62.625C97.4899 62.625 102.042 67.1768 102.042 72.7917Z" stroke="#034B2C" stroke-width="4" stroke-linecap="round" stroke-linejoin="round"/>
<path d="M652 86V82C652 79.8783 651.157 77.8434 649.657 76.3431C648.157 74.8429 646.122 74 644 74H630C627.878 74 625.843 74.8429 624.343 76.3431C622.843 77.8434 622 79.8783 622 82V86M656 60L666 70M666 60L656 70M645 58C645 62.4183 641.418 66 637 66C632.582 66 629 62.4183 629 58C629 53.5817 632.582 50 637 50C641.418 50 645 53.5817 645 58Z" stroke="#1E1E1E" stroke-width="4" stroke-linecap="round" stroke-linejoin="round"/>
<path d="M687 115V111C687 108.878 686.157 106.843 684.657 105.343C683.157 103.843 681.122 103 679 103H665C662.878 103 660.843 103.843 659.343 105.343C657.843 106.843 657 108.878 657 111V115M689 95L693 99L701 91M680 87C680 91.4183 676.418 95 672 95C667.582 95 664 91.4183 664 87C664 82.5817 667.582 79 672 79C676.418 79 680 82.5817 680 87Z" stroke="#1E1E1E" stroke-width="4" stroke-linecap="round" stroke-linejoin="round"/>
</svg>
