<svg width="1155" height="540" viewBox="0 0 1155 540" fill="none" xmlns="http://www.w3.org/2000/svg">
<g filter="url(#filter0_d_182_2617)">
<rect x="29" y="6" width="1097" height="482" rx="15" fill="white"/>
</g>
<line x1="310.896" y1="89.9814" x2="536.944" y2="89.9814" stroke="black" stroke-opacity="0.11"/>
<path d="M318.018 64.432V69H316.466V64.432L312.266 57.536H313.626C313.765 57.536 313.874 57.5707 313.954 57.64C314.034 57.704 314.103 57.7893 314.162 57.896L316.786 62.352C316.882 62.5387 316.97 62.7147 317.05 62.88C317.13 63.04 317.199 63.2027 317.258 63.368C317.317 63.2027 317.383 63.04 317.458 62.88C317.533 62.7147 317.615 62.5387 317.706 62.352L320.322 57.896C320.37 57.8053 320.437 57.7227 320.522 57.648C320.607 57.5733 320.717 57.536 320.85 57.536H322.218L318.018 64.432ZM327.036 64.064C327.036 63.7333 326.988 63.432 326.892 63.16C326.802 62.8827 326.666 62.6453 326.484 62.448C326.308 62.2453 326.092 62.0907 325.836 61.984C325.58 61.872 325.29 61.816 324.964 61.816C324.282 61.816 323.74 62.016 323.34 62.416C322.946 62.8107 322.7 63.36 322.604 64.064H327.036ZM328.188 67.864C328.012 68.0773 327.802 68.264 327.556 68.424C327.311 68.5787 327.047 68.7067 326.764 68.808C326.487 68.9093 326.199 68.984 325.9 69.032C325.602 69.0853 325.306 69.112 325.012 69.112C324.452 69.112 323.935 69.0187 323.46 68.832C322.991 68.64 322.583 68.3627 322.236 68C321.895 67.632 321.628 67.1787 321.436 66.64C321.244 66.1013 321.148 65.4827 321.148 64.784C321.148 64.2187 321.234 63.6907 321.404 63.2C321.58 62.7093 321.831 62.2853 322.156 61.928C322.482 61.5653 322.879 61.2827 323.348 61.08C323.818 60.872 324.346 60.768 324.932 60.768C325.418 60.768 325.866 60.8507 326.276 61.016C326.692 61.176 327.05 61.4107 327.348 61.72C327.652 62.024 327.89 62.4027 328.06 62.856C328.231 63.304 328.316 63.816 328.316 64.392C328.316 64.616 328.292 64.7653 328.244 64.84C328.196 64.9147 328.106 64.952 327.972 64.952H322.556C322.572 65.464 322.642 65.9093 322.764 66.288C322.892 66.6667 323.068 66.984 323.292 67.24C323.516 67.4907 323.783 67.68 324.092 67.808C324.402 67.9307 324.748 67.992 325.132 67.992C325.49 67.992 325.796 67.952 326.052 67.872C326.314 67.7867 326.538 67.696 326.724 67.6C326.911 67.504 327.066 67.416 327.188 67.336C327.316 67.2507 327.426 67.208 327.516 67.208C327.634 67.208 327.724 67.2533 327.788 67.344L328.188 67.864ZM334.457 65.352C333.801 65.3733 333.241 65.4267 332.777 65.512C332.319 65.592 331.943 65.6987 331.649 65.832C331.361 65.9653 331.151 66.1227 331.017 66.304C330.889 66.4853 330.825 66.688 330.825 66.912C330.825 67.1253 330.86 67.3093 330.929 67.464C330.999 67.6187 331.092 67.7467 331.209 67.848C331.332 67.944 331.473 68.016 331.633 68.064C331.799 68.1067 331.975 68.128 332.161 68.128C332.412 68.128 332.641 68.104 332.849 68.056C333.057 68.0027 333.252 67.928 333.433 67.832C333.62 67.736 333.796 67.6213 333.961 67.488C334.132 67.3547 334.297 67.2027 334.457 67.032V65.352ZM329.857 62.04C330.305 61.608 330.788 61.2853 331.305 61.072C331.823 60.8587 332.396 60.752 333.025 60.752C333.479 60.752 333.881 60.8267 334.233 60.976C334.585 61.1253 334.881 61.3333 335.121 61.6C335.361 61.8667 335.543 62.1893 335.665 62.568C335.788 62.9467 335.849 63.3627 335.849 63.816V69H335.217C335.079 69 334.972 68.9787 334.897 68.936C334.823 68.888 334.764 68.7973 334.721 68.664L334.561 67.896C334.348 68.0933 334.14 68.2693 333.937 68.424C333.735 68.5733 333.521 68.7013 333.297 68.808C333.073 68.9093 332.833 68.9867 332.577 69.04C332.327 69.0987 332.047 69.128 331.737 69.128C331.423 69.128 331.127 69.0853 330.849 69C330.572 68.9093 330.329 68.776 330.121 68.6C329.919 68.424 329.756 68.2027 329.633 67.936C329.516 67.664 329.457 67.344 329.457 66.976C329.457 66.656 329.545 66.3493 329.721 66.056C329.897 65.7573 330.183 65.4933 330.577 65.264C330.972 65.0347 331.487 64.848 332.121 64.704C332.756 64.5547 333.535 64.4693 334.457 64.448V63.816C334.457 63.1867 334.321 62.712 334.049 62.392C333.777 62.0667 333.38 61.904 332.857 61.904C332.505 61.904 332.209 61.9493 331.969 62.04C331.735 62.1253 331.529 62.224 331.353 62.336C331.183 62.4427 331.033 62.5413 330.905 62.632C330.783 62.7173 330.66 62.76 330.537 62.76C330.441 62.76 330.359 62.736 330.289 62.688C330.22 62.6347 330.161 62.5707 330.113 62.496L329.857 62.04ZM339.371 62.52C339.627 61.9653 339.941 61.5333 340.315 61.224C340.688 60.9093 341.144 60.752 341.683 60.752C341.853 60.752 342.016 60.7707 342.171 60.808C342.331 60.8453 342.472 60.904 342.595 60.984L342.491 62.048C342.459 62.1813 342.379 62.248 342.251 62.248C342.176 62.248 342.067 62.232 341.923 62.2C341.779 62.168 341.616 62.152 341.435 62.152C341.179 62.152 340.949 62.1893 340.747 62.264C340.549 62.3387 340.371 62.4507 340.211 62.6C340.056 62.744 339.915 62.9253 339.787 63.144C339.664 63.3573 339.552 63.6027 339.451 63.88V69H338.019V60.896H338.835C338.989 60.896 339.096 60.9253 339.155 60.984C339.213 61.0427 339.253 61.144 339.275 61.288L339.371 62.52Z" fill="black" fill-opacity="0.44"/>
<path d="M98.5044 64.529C98.9484 64.529 99.3354 64.475 99.6654 64.367C99.9954 64.253 100.268 64.094 100.484 63.89C100.706 63.68 100.871 63.428 100.979 63.134C101.087 62.834 101.141 62.501 101.141 62.135C101.141 61.787 101.087 61.472 100.979 61.19C100.871 60.908 100.709 60.668 100.493 60.47C100.277 60.272 100.004 60.122 99.6744 60.02C99.3444 59.912 98.9544 59.858 98.5044 59.858H96.6954V64.529H98.5044ZM98.5044 57.986C99.3744 57.986 100.127 58.088 100.763 58.292C101.399 58.496 101.924 58.781 102.338 59.147C102.752 59.513 103.058 59.951 103.256 60.461C103.46 60.971 103.562 61.529 103.562 62.135C103.562 62.765 103.457 63.344 103.247 63.872C103.037 64.394 102.722 64.844 102.302 65.222C101.882 65.6 101.354 65.894 100.718 66.104C100.088 66.314 99.3504 66.419 98.5044 66.419H96.6954V71H94.2744V57.986H98.5044ZM107.024 63.368C107.312 62.816 107.654 62.384 108.05 62.072C108.446 61.754 108.914 61.595 109.454 61.595C109.88 61.595 110.222 61.688 110.48 61.874L110.336 63.539C110.306 63.647 110.261 63.725 110.201 63.773C110.147 63.815 110.072 63.836 109.976 63.836C109.886 63.836 109.751 63.821 109.571 63.791C109.397 63.761 109.226 63.746 109.058 63.746C108.812 63.746 108.593 63.782 108.401 63.854C108.209 63.926 108.035 64.031 107.879 64.169C107.729 64.301 107.594 64.463 107.474 64.655C107.36 64.847 107.252 65.066 107.15 65.312V71H104.927V61.766H106.232C106.46 61.766 106.619 61.808 106.709 61.892C106.799 61.97 106.859 62.114 106.889 62.324L107.024 63.368ZM115.465 61.622C116.149 61.622 116.77 61.733 117.328 61.955C117.892 62.177 118.372 62.492 118.768 62.9C119.17 63.308 119.479 63.806 119.695 64.394C119.911 64.982 120.019 65.639 120.019 66.365C120.019 67.097 119.911 67.757 119.695 68.345C119.479 68.933 119.17 69.434 118.768 69.848C118.372 70.262 117.892 70.58 117.328 70.802C116.77 71.024 116.149 71.135 115.465 71.135C114.775 71.135 114.148 71.024 113.584 70.802C113.02 70.58 112.537 70.262 112.135 69.848C111.739 69.434 111.43 68.933 111.208 68.345C110.992 67.757 110.884 67.097 110.884 66.365C110.884 65.639 110.992 64.982 111.208 64.394C111.43 63.806 111.739 63.308 112.135 62.9C112.537 62.492 113.02 62.177 113.584 61.955C114.148 61.733 114.775 61.622 115.465 61.622ZM115.465 69.425C116.233 69.425 116.8 69.167 117.166 68.651C117.538 68.135 117.724 67.379 117.724 66.383C117.724 65.387 117.538 64.628 117.166 64.106C116.8 63.584 116.233 63.323 115.465 63.323C114.685 63.323 114.106 63.587 113.728 64.115C113.356 64.637 113.17 65.393 113.17 66.383C113.17 67.373 113.356 68.129 113.728 68.651C114.106 69.167 114.685 69.425 115.465 69.425ZM127.51 64.124C127.258 63.818 126.982 63.602 126.682 63.476C126.388 63.35 126.07 63.287 125.728 63.287C125.392 63.287 125.089 63.35 124.819 63.476C124.549 63.602 124.318 63.794 124.126 64.052C123.934 64.304 123.787 64.628 123.685 65.024C123.583 65.414 123.532 65.876 123.532 66.41C123.532 66.95 123.574 67.409 123.658 67.787C123.748 68.159 123.874 68.465 124.036 68.705C124.198 68.939 124.396 69.11 124.63 69.218C124.864 69.32 125.125 69.371 125.413 69.371C125.875 69.371 126.268 69.275 126.592 69.083C126.916 68.891 127.222 68.618 127.51 68.264V64.124ZM129.733 57.626V71H128.374C128.08 71 127.894 70.865 127.816 70.595L127.627 69.704C127.255 70.13 126.826 70.475 126.34 70.739C125.86 71.003 125.299 71.135 124.657 71.135C124.153 71.135 123.691 71.03 123.271 70.82C122.851 70.61 122.488 70.307 122.182 69.911C121.882 69.509 121.648 69.014 121.48 68.426C121.318 67.838 121.237 67.166 121.237 66.41C121.237 65.726 121.33 65.09 121.516 64.502C121.702 63.914 121.969 63.404 122.317 62.972C122.665 62.54 123.082 62.204 123.568 61.964C124.054 61.718 124.6 61.595 125.206 61.595C125.722 61.595 126.163 61.676 126.529 61.838C126.895 62 127.222 62.219 127.51 62.495V57.626H129.733ZM139.883 61.766V71H138.524C138.23 71 138.044 70.865 137.966 70.595L137.813 69.857C137.435 70.241 137.018 70.553 136.562 70.793C136.106 71.027 135.569 71.144 134.951 71.144C134.447 71.144 134 71.06 133.61 70.892C133.226 70.718 132.902 70.475 132.638 70.163C132.374 69.851 132.173 69.482 132.035 69.056C131.903 68.624 131.837 68.15 131.837 67.634V61.766H134.06V67.634C134.06 68.198 134.189 68.636 134.447 68.948C134.711 69.254 135.104 69.407 135.626 69.407C136.01 69.407 136.37 69.323 136.706 69.155C137.042 68.981 137.36 68.744 137.66 68.444V61.766H139.883ZM144.311 57.626V65.285H144.725C144.875 65.285 144.992 65.267 145.076 65.231C145.166 65.189 145.256 65.108 145.346 64.988L147.641 62.153C147.737 62.027 147.842 61.931 147.956 61.865C148.076 61.799 148.229 61.766 148.415 61.766H150.449L147.578 65.195C147.374 65.465 147.152 65.672 146.912 65.816C147.038 65.906 147.149 66.011 147.245 66.131C147.347 66.251 147.443 66.38 147.533 66.518L150.611 71H148.604C148.43 71 148.28 70.973 148.154 70.919C148.028 70.859 147.923 70.754 147.839 70.604L145.481 67.103C145.397 66.965 145.31 66.875 145.22 66.833C145.13 66.791 144.995 66.77 144.815 66.77H144.311V71H142.088V57.626H144.311ZM159.158 71.144C158.354 71.144 157.736 70.919 157.304 70.469C156.878 70.013 156.665 69.386 156.665 68.588V63.431H155.72C155.6 63.431 155.498 63.392 155.414 63.314C155.33 63.236 155.288 63.119 155.288 62.963V62.081L156.773 61.838L157.241 59.318C157.271 59.198 157.328 59.105 157.412 59.039C157.496 58.973 157.604 58.94 157.736 58.94H158.888V61.847H161.354V63.431H158.888V68.435C158.888 68.723 158.957 68.948 159.095 69.11C159.239 69.272 159.434 69.353 159.68 69.353C159.818 69.353 159.932 69.338 160.022 69.308C160.118 69.272 160.199 69.236 160.265 69.2C160.337 69.164 160.4 69.131 160.454 69.101C160.508 69.065 160.562 69.047 160.616 69.047C160.682 69.047 160.736 69.065 160.778 69.101C160.82 69.131 160.865 69.179 160.913 69.245L161.579 70.325C161.255 70.595 160.883 70.799 160.463 70.937C160.043 71.075 159.608 71.144 159.158 71.144ZM168.656 65.321C168.656 65.033 168.614 64.763 168.53 64.511C168.452 64.253 168.332 64.028 168.17 63.836C168.008 63.644 167.801 63.494 167.549 63.386C167.303 63.272 167.015 63.215 166.685 63.215C166.043 63.215 165.536 63.398 165.164 63.764C164.798 64.13 164.564 64.649 164.462 65.321H168.656ZM164.417 66.662C164.453 67.136 164.537 67.547 164.669 67.895C164.801 68.237 164.975 68.522 165.191 68.75C165.407 68.972 165.662 69.14 165.956 69.254C166.256 69.362 166.586 69.416 166.946 69.416C167.306 69.416 167.615 69.374 167.873 69.29C168.137 69.206 168.365 69.113 168.557 69.011C168.755 68.909 168.926 68.816 169.07 68.732C169.22 68.648 169.364 68.606 169.502 68.606C169.688 68.606 169.826 68.675 169.916 68.813L170.555 69.623C170.309 69.911 170.033 70.154 169.727 70.352C169.421 70.544 169.1 70.7 168.764 70.82C168.434 70.934 168.095 71.015 167.747 71.063C167.405 71.111 167.072 71.135 166.748 71.135C166.106 71.135 165.509 71.03 164.957 70.82C164.405 70.604 163.925 70.289 163.517 69.875C163.109 69.455 162.788 68.939 162.554 68.327C162.32 67.709 162.203 66.995 162.203 66.185C162.203 65.555 162.305 64.964 162.509 64.412C162.713 63.854 163.004 63.371 163.382 62.963C163.766 62.549 164.231 62.222 164.777 61.982C165.329 61.742 165.95 61.622 166.64 61.622C167.222 61.622 167.759 61.715 168.251 61.901C168.743 62.087 169.166 62.36 169.52 62.72C169.874 63.074 170.15 63.512 170.348 64.034C170.552 64.55 170.654 65.141 170.654 65.807C170.654 66.143 170.618 66.371 170.546 66.491C170.474 66.605 170.336 66.662 170.132 66.662H164.417ZM174.419 63.368C174.707 62.816 175.049 62.384 175.445 62.072C175.841 61.754 176.309 61.595 176.849 61.595C177.275 61.595 177.617 61.688 177.875 61.874L177.731 63.539C177.701 63.647 177.656 63.725 177.596 63.773C177.542 63.815 177.467 63.836 177.371 63.836C177.281 63.836 177.146 63.821 176.966 63.791C176.792 63.761 176.621 63.746 176.453 63.746C176.207 63.746 175.988 63.782 175.796 63.854C175.604 63.926 175.43 64.031 175.274 64.169C175.124 64.301 174.989 64.463 174.869 64.655C174.755 64.847 174.647 65.066 174.545 65.312V71H172.322V61.766H173.627C173.855 61.766 174.014 61.808 174.104 61.892C174.194 61.97 174.254 62.114 174.284 62.324L174.419 63.368ZM181.341 61.766V71.315C181.341 71.717 181.287 72.095 181.179 72.449C181.077 72.803 180.909 73.112 180.675 73.376C180.447 73.646 180.144 73.856 179.766 74.006C179.394 74.162 178.938 74.24 178.398 74.24C178.188 74.24 177.993 74.225 177.813 74.195C177.633 74.171 177.447 74.129 177.255 74.069L177.336 72.872C177.354 72.752 177.402 72.674 177.48 72.638C177.558 72.608 177.708 72.593 177.93 72.593C178.152 72.593 178.338 72.569 178.488 72.521C178.644 72.479 178.767 72.407 178.857 72.305C178.947 72.209 179.01 72.08 179.046 71.918C179.088 71.756 179.109 71.555 179.109 71.315V61.766H181.341ZM181.647 59.075C181.647 59.267 181.608 59.447 181.53 59.615C181.452 59.783 181.347 59.93 181.215 60.056C181.089 60.182 180.936 60.284 180.756 60.362C180.582 60.434 180.396 60.47 180.198 60.47C180.006 60.47 179.826 60.434 179.658 60.362C179.49 60.284 179.343 60.182 179.217 60.056C179.091 59.93 178.989 59.783 178.911 59.615C178.839 59.447 178.803 59.267 178.803 59.075C178.803 58.877 178.839 58.691 178.911 58.517C178.989 58.343 179.091 58.193 179.217 58.067C179.343 57.941 179.49 57.842 179.658 57.77C179.826 57.692 180.006 57.653 180.198 57.653C180.396 57.653 180.582 57.692 180.756 57.77C180.936 57.842 181.089 57.941 181.215 58.067C181.347 58.193 181.452 58.343 181.53 58.517C181.608 58.691 181.647 58.877 181.647 59.075ZM191.563 61.766V71H190.204C189.91 71 189.724 70.865 189.646 70.595L189.493 69.857C189.115 70.241 188.698 70.553 188.242 70.793C187.786 71.027 187.249 71.144 186.631 71.144C186.127 71.144 185.68 71.06 185.29 70.892C184.906 70.718 184.582 70.475 184.318 70.163C184.054 69.851 183.853 69.482 183.715 69.056C183.583 68.624 183.517 68.15 183.517 67.634V61.766H185.74V67.634C185.74 68.198 185.869 68.636 186.127 68.948C186.391 69.254 186.784 69.407 187.306 69.407C187.69 69.407 188.05 69.323 188.386 69.155C188.722 68.981 189.04 68.744 189.34 68.444V61.766H191.563ZM198.645 67.058C198.003 67.088 197.463 67.145 197.025 67.229C196.587 67.307 196.236 67.409 195.972 67.535C195.708 67.661 195.519 67.808 195.405 67.976C195.291 68.144 195.234 68.327 195.234 68.525C195.234 68.915 195.348 69.194 195.576 69.362C195.81 69.53 196.113 69.614 196.485 69.614C196.941 69.614 197.334 69.533 197.664 69.371C198 69.203 198.327 68.951 198.645 68.615V67.058ZM193.551 63.053C194.613 62.081 195.891 61.595 197.385 61.595C197.925 61.595 198.408 61.685 198.834 61.865C199.26 62.039 199.62 62.285 199.914 62.603C200.208 62.915 200.43 63.29 200.58 63.728C200.736 64.166 200.814 64.646 200.814 65.168V71H199.806C199.596 71 199.434 70.97 199.32 70.91C199.206 70.844 199.116 70.715 199.05 70.523L198.852 69.857C198.618 70.067 198.39 70.253 198.168 70.415C197.946 70.571 197.715 70.703 197.475 70.811C197.235 70.919 196.977 71 196.701 71.054C196.431 71.114 196.131 71.144 195.801 71.144C195.411 71.144 195.051 71.093 194.721 70.991C194.391 70.883 194.106 70.724 193.866 70.514C193.626 70.304 193.44 70.043 193.308 69.731C193.176 69.419 193.11 69.056 193.11 68.642C193.11 68.408 193.149 68.177 193.227 67.949C193.305 67.715 193.431 67.493 193.605 67.283C193.785 67.073 194.016 66.875 194.298 66.689C194.58 66.503 194.925 66.341 195.333 66.203C195.747 66.065 196.227 65.954 196.773 65.87C197.319 65.78 197.943 65.726 198.645 65.708V65.168C198.645 64.55 198.513 64.094 198.249 63.8C197.985 63.5 197.604 63.35 197.106 63.35C196.746 63.35 196.446 63.392 196.206 63.476C195.972 63.56 195.765 63.656 195.585 63.764C195.405 63.866 195.24 63.959 195.09 64.043C194.946 64.127 194.784 64.169 194.604 64.169C194.448 64.169 194.316 64.13 194.208 64.052C194.1 63.968 194.013 63.872 193.947 63.764L193.551 63.053ZM205.158 57.626V71H202.935V57.626H205.158Z" fill="#808080"/>
<path d="M533.62 65L525.642 71L517.664 65" stroke="black" stroke-opacity="0.38" stroke-width="2" stroke-linecap="round" stroke-linejoin="round"/>
<line y1="-0.5" x2="914.848" y2="-0.5" transform="matrix(1 -4.26317e-05 7.53768e-05 1 151.317 417.039)" stroke="black" stroke-opacity="0.09"/>
<path d="M187.867 442.03C187.867 442.51 187.807 442.94 187.687 443.32C187.571 443.7 187.397 444.022 187.165 444.286C186.937 444.546 186.655 444.746 186.319 444.886C185.983 445.026 185.597 445.096 185.161 445.096C184.765 445.096 184.361 445.04 183.949 444.928C183.957 444.812 183.967 444.698 183.979 444.586C183.991 444.47 184.001 444.356 184.009 444.244C184.017 444.176 184.041 444.122 184.081 444.082C184.125 444.038 184.191 444.016 184.279 444.016C184.351 444.016 184.445 444.034 184.561 444.07C184.681 444.106 184.841 444.124 185.041 444.124C185.305 444.124 185.541 444.084 185.749 444.004C185.957 443.924 186.131 443.8 186.271 443.632C186.411 443.464 186.517 443.25 186.589 442.99C186.665 442.726 186.703 442.414 186.703 442.054V436.402H187.867V442.03ZM192.784 442.264C192.292 442.28 191.872 442.32 191.524 442.384C191.18 442.444 190.898 442.524 190.678 442.624C190.462 442.724 190.304 442.842 190.204 442.978C190.108 443.114 190.06 443.266 190.06 443.434C190.06 443.594 190.086 443.732 190.138 443.848C190.19 443.964 190.26 444.06 190.348 444.136C190.44 444.208 190.546 444.262 190.666 444.298C190.79 444.33 190.922 444.346 191.062 444.346C191.25 444.346 191.422 444.328 191.578 444.292C191.734 444.252 191.88 444.196 192.016 444.124C192.156 444.052 192.288 443.966 192.412 443.866C192.54 443.766 192.664 443.652 192.784 443.524V442.264ZM189.334 439.78C189.67 439.456 190.032 439.214 190.42 439.054C190.808 438.894 191.238 438.814 191.71 438.814C192.05 438.814 192.352 438.87 192.616 438.982C192.88 439.094 193.102 439.25 193.282 439.45C193.462 439.65 193.598 439.892 193.69 440.176C193.782 440.46 193.828 440.772 193.828 441.112V445H193.354C193.25 445 193.17 444.984 193.114 444.952C193.058 444.916 193.014 444.848 192.982 444.748L192.862 444.172C192.702 444.32 192.546 444.452 192.394 444.568C192.242 444.68 192.082 444.776 191.914 444.856C191.746 444.932 191.566 444.99 191.374 445.03C191.186 445.074 190.976 445.096 190.744 445.096C190.508 445.096 190.286 445.064 190.078 445C189.87 444.932 189.688 444.832 189.532 444.7C189.38 444.568 189.258 444.402 189.166 444.202C189.078 443.998 189.034 443.758 189.034 443.482C189.034 443.242 189.1 443.012 189.232 442.792C189.364 442.568 189.578 442.37 189.874 442.198C190.17 442.026 190.556 441.886 191.032 441.778C191.508 441.666 192.092 441.602 192.784 441.586V441.112C192.784 440.64 192.682 440.284 192.478 440.044C192.274 439.8 191.976 439.678 191.584 439.678C191.32 439.678 191.098 439.712 190.918 439.78C190.742 439.844 190.588 439.918 190.456 440.002C190.328 440.082 190.216 440.156 190.12 440.224C190.028 440.288 189.936 440.32 189.844 440.32C189.772 440.32 189.71 440.302 189.658 440.266C189.606 440.226 189.562 440.178 189.526 440.122L189.334 439.78ZM196.463 439.804C196.595 439.656 196.735 439.522 196.883 439.402C197.031 439.282 197.187 439.18 197.351 439.096C197.519 439.008 197.695 438.942 197.879 438.898C198.067 438.85 198.269 438.826 198.485 438.826C198.817 438.826 199.109 438.882 199.361 438.994C199.617 439.102 199.829 439.258 199.997 439.462C200.169 439.662 200.299 439.904 200.387 440.188C200.475 440.472 200.519 440.786 200.519 441.13V445H199.445V441.13C199.445 440.67 199.339 440.314 199.127 440.062C198.919 439.806 198.601 439.678 198.173 439.678C197.857 439.678 197.561 439.754 197.285 439.906C197.013 440.058 196.761 440.264 196.529 440.524V445H195.455V438.922H196.097C196.249 438.922 196.343 438.996 196.379 439.144L196.463 439.804Z" fill="#808080" fill-opacity="0.69"/>
<path d="M488.959 436.402V445H487.939V438.682C487.939 438.598 487.941 438.508 487.945 438.412C487.953 438.316 487.961 438.218 487.969 438.118L485.017 443.494C484.925 443.674 484.785 443.764 484.597 443.764H484.429C484.241 443.764 484.101 443.674 484.009 443.494L480.997 438.094C481.021 438.306 481.033 438.502 481.033 438.682V445H480.013V436.402H480.871C480.975 436.402 481.055 436.412 481.111 436.432C481.167 436.452 481.221 436.508 481.273 436.6L484.243 441.892C484.291 441.988 484.337 442.088 484.381 442.192C484.429 442.296 484.473 442.402 484.513 442.51C484.553 442.402 484.595 442.296 484.639 442.192C484.683 442.084 484.731 441.982 484.783 441.886L487.699 436.6C487.747 436.508 487.799 436.452 487.855 436.432C487.915 436.412 487.997 436.402 488.101 436.402H488.959ZM494.023 442.264C493.531 442.28 493.111 442.32 492.763 442.384C492.419 442.444 492.137 442.524 491.917 442.624C491.701 442.724 491.543 442.842 491.443 442.978C491.347 443.114 491.299 443.266 491.299 443.434C491.299 443.594 491.325 443.732 491.377 443.848C491.429 443.964 491.499 444.06 491.587 444.136C491.679 444.208 491.785 444.262 491.905 444.298C492.029 444.33 492.161 444.346 492.301 444.346C492.489 444.346 492.661 444.328 492.817 444.292C492.973 444.252 493.119 444.196 493.255 444.124C493.395 444.052 493.527 443.966 493.651 443.866C493.779 443.766 493.903 443.652 494.023 443.524V442.264ZM490.573 439.78C490.909 439.456 491.271 439.214 491.659 439.054C492.047 438.894 492.477 438.814 492.949 438.814C493.289 438.814 493.591 438.87 493.855 438.982C494.119 439.094 494.341 439.25 494.521 439.45C494.701 439.65 494.837 439.892 494.929 440.176C495.021 440.46 495.067 440.772 495.067 441.112V445H494.593C494.489 445 494.409 444.984 494.353 444.952C494.297 444.916 494.253 444.848 494.221 444.748L494.101 444.172C493.941 444.32 493.785 444.452 493.633 444.568C493.481 444.68 493.321 444.776 493.153 444.856C492.985 444.932 492.805 444.99 492.613 445.03C492.425 445.074 492.215 445.096 491.983 445.096C491.747 445.096 491.525 445.064 491.317 445C491.109 444.932 490.927 444.832 490.771 444.7C490.619 444.568 490.497 444.402 490.405 444.202C490.317 443.998 490.273 443.758 490.273 443.482C490.273 443.242 490.339 443.012 490.471 442.792C490.603 442.568 490.817 442.37 491.113 442.198C491.409 442.026 491.795 441.886 492.271 441.778C492.747 441.666 493.331 441.602 494.023 441.586V441.112C494.023 440.64 493.921 440.284 493.717 440.044C493.513 439.8 493.215 439.678 492.823 439.678C492.559 439.678 492.337 439.712 492.157 439.78C491.981 439.844 491.827 439.918 491.695 440.002C491.567 440.082 491.455 440.156 491.359 440.224C491.267 440.288 491.175 440.32 491.083 440.32C491.011 440.32 490.949 440.302 490.897 440.266C490.845 440.226 490.801 440.178 490.765 440.122L490.573 439.78ZM501.798 438.922L498.408 446.794C498.372 446.874 498.326 446.938 498.27 446.986C498.218 447.034 498.136 447.058 498.024 447.058H497.232L498.342 444.646L495.834 438.922H496.758C496.85 438.922 496.922 438.946 496.974 438.994C497.03 439.038 497.068 439.088 497.088 439.144L498.714 442.972C498.778 443.14 498.832 443.316 498.876 443.5C498.932 443.312 498.992 443.134 499.056 442.966L500.634 439.144C500.658 439.08 500.698 439.028 500.754 438.988C500.814 438.944 500.88 438.922 500.952 438.922H501.798Z" fill="#808080" fill-opacity="0.69"/>
<path d="M783.98 437.746C783.944 437.806 783.904 437.852 783.86 437.884C783.82 437.912 783.77 437.926 783.71 437.926C783.642 437.926 783.562 437.892 783.47 437.824C783.378 437.756 783.262 437.682 783.122 437.602C782.986 437.518 782.82 437.442 782.624 437.374C782.432 437.306 782.198 437.272 781.922 437.272C781.662 437.272 781.432 437.308 781.232 437.38C781.036 437.448 780.87 437.542 780.734 437.662C780.602 437.782 780.502 437.924 780.434 438.088C780.366 438.248 780.332 438.422 780.332 438.61C780.332 438.85 780.39 439.05 780.506 439.21C780.626 439.366 780.782 439.5 780.974 439.612C781.17 439.724 781.39 439.822 781.634 439.906C781.882 439.986 782.134 440.07 782.39 440.158C782.65 440.246 782.902 440.346 783.146 440.458C783.394 440.566 783.614 440.704 783.806 440.872C784.002 441.04 784.158 441.246 784.274 441.49C784.394 441.734 784.454 442.034 784.454 442.39C784.454 442.766 784.39 443.12 784.262 443.452C784.134 443.78 783.946 444.066 783.698 444.31C783.454 444.554 783.152 444.746 782.792 444.886C782.436 445.026 782.03 445.096 781.574 445.096C781.014 445.096 780.506 444.996 780.05 444.796C779.594 444.592 779.204 444.318 778.88 443.974L779.216 443.422C779.248 443.378 779.286 443.342 779.33 443.314C779.378 443.282 779.43 443.266 779.486 443.266C779.538 443.266 779.596 443.288 779.66 443.332C779.728 443.372 779.804 443.424 779.888 443.488C779.972 443.552 780.068 443.622 780.176 443.698C780.284 443.774 780.406 443.844 780.542 443.908C780.682 443.972 780.84 444.026 781.016 444.07C781.192 444.11 781.39 444.13 781.61 444.13C781.886 444.13 782.132 444.092 782.348 444.016C782.564 443.94 782.746 443.834 782.894 443.698C783.046 443.558 783.162 443.392 783.242 443.2C783.322 443.008 783.362 442.794 783.362 442.558C783.362 442.298 783.302 442.086 783.182 441.922C783.066 441.754 782.912 441.614 782.72 441.502C782.528 441.39 782.308 441.296 782.06 441.22C781.812 441.14 781.56 441.06 781.304 440.98C781.048 440.896 780.796 440.8 780.548 440.692C780.3 440.584 780.08 440.444 779.888 440.272C779.696 440.1 779.54 439.886 779.42 439.63C779.304 439.37 779.246 439.05 779.246 438.67C779.246 438.366 779.304 438.072 779.42 437.788C779.54 437.504 779.712 437.252 779.936 437.032C780.164 436.812 780.442 436.636 780.77 436.504C781.102 436.372 781.482 436.306 781.91 436.306C782.39 436.306 782.826 436.382 783.218 436.534C783.614 436.686 783.962 436.906 784.262 437.194L783.98 437.746ZM789.878 441.298C789.878 441.05 789.842 440.824 789.77 440.62C789.702 440.412 789.6 440.234 789.464 440.086C789.332 439.934 789.17 439.818 788.978 439.738C788.786 439.654 788.568 439.612 788.324 439.612C787.812 439.612 787.406 439.762 787.106 440.062C786.81 440.358 786.626 440.77 786.554 441.298H789.878ZM790.742 444.148C790.61 444.308 790.452 444.448 790.268 444.568C790.084 444.684 789.886 444.78 789.674 444.856C789.466 444.932 789.25 444.988 789.026 445.024C788.802 445.064 788.58 445.084 788.36 445.084C787.94 445.084 787.552 445.014 787.196 444.874C786.844 444.73 786.538 444.522 786.278 444.25C786.022 443.974 785.822 443.634 785.678 443.23C785.534 442.826 785.462 442.362 785.462 441.838C785.462 441.414 785.526 441.018 785.654 440.65C785.786 440.282 785.974 439.964 786.218 439.696C786.462 439.424 786.76 439.212 787.112 439.06C787.464 438.904 787.86 438.826 788.3 438.826C788.664 438.826 789 438.888 789.308 439.012C789.62 439.132 789.888 439.308 790.112 439.54C790.34 439.768 790.518 440.052 790.646 440.392C790.774 440.728 790.838 441.112 790.838 441.544C790.838 441.712 790.82 441.824 790.784 441.88C790.748 441.936 790.68 441.964 790.58 441.964H786.518C786.53 442.348 786.582 442.682 786.674 442.966C786.77 443.25 786.902 443.488 787.07 443.68C787.238 443.868 787.438 444.01 787.67 444.106C787.902 444.198 788.162 444.244 788.45 444.244C788.718 444.244 788.948 444.214 789.14 444.154C789.336 444.09 789.504 444.022 789.644 443.95C789.784 443.878 789.9 443.812 789.992 443.752C790.088 443.688 790.17 443.656 790.238 443.656C790.326 443.656 790.394 443.69 790.442 443.758L790.742 444.148ZM793.224 443.536C793.42 443.8 793.634 443.986 793.866 444.094C794.098 444.202 794.358 444.256 794.646 444.256C795.214 444.256 795.65 444.054 795.954 443.65C796.258 443.246 796.41 442.67 796.41 441.922C796.41 441.526 796.374 441.186 796.302 440.902C796.234 440.618 796.134 440.386 796.002 440.206C795.87 440.022 795.708 439.888 795.516 439.804C795.324 439.72 795.106 439.678 794.862 439.678C794.514 439.678 794.208 439.758 793.944 439.918C793.684 440.078 793.444 440.304 793.224 440.596V443.536ZM793.17 439.864C793.426 439.548 793.722 439.294 794.058 439.102C794.394 438.91 794.778 438.814 795.21 438.814C795.562 438.814 795.88 438.882 796.164 439.018C796.448 439.15 796.69 439.348 796.89 439.612C797.09 439.872 797.244 440.196 797.352 440.584C797.46 440.972 797.514 441.418 797.514 441.922C797.514 442.37 797.454 442.788 797.334 443.176C797.214 443.56 797.04 443.894 796.812 444.178C796.588 444.458 796.312 444.68 795.984 444.844C795.66 445.004 795.294 445.084 794.886 445.084C794.514 445.084 794.194 445.022 793.926 444.898C793.662 444.77 793.428 444.594 793.224 444.37V447.058H792.15V438.922H792.792C792.944 438.922 793.038 438.996 793.074 439.144L793.17 439.864Z" fill="#808080" fill-opacity="0.69"/>
<path d="M340.87 436.402V445H339.85V438.682C339.85 438.598 339.852 438.508 339.856 438.412C339.864 438.316 339.872 438.218 339.88 438.118L336.928 443.494C336.836 443.674 336.696 443.764 336.508 443.764H336.34C336.152 443.764 336.012 443.674 335.92 443.494L332.908 438.094C332.932 438.306 332.944 438.502 332.944 438.682V445H331.924V436.402H332.782C332.886 436.402 332.966 436.412 333.022 436.432C333.078 436.452 333.132 436.508 333.184 436.6L336.154 441.892C336.202 441.988 336.248 442.088 336.292 442.192C336.34 442.296 336.384 442.402 336.424 442.51C336.464 442.402 336.506 442.296 336.55 442.192C336.594 442.084 336.642 441.982 336.694 441.886L339.61 436.6C339.658 436.508 339.71 436.452 339.766 436.432C339.826 436.412 339.908 436.402 340.012 436.402H340.87ZM345.935 442.264C345.443 442.28 345.023 442.32 344.675 442.384C344.331 442.444 344.049 442.524 343.829 442.624C343.613 442.724 343.455 442.842 343.355 442.978C343.259 443.114 343.211 443.266 343.211 443.434C343.211 443.594 343.237 443.732 343.289 443.848C343.341 443.964 343.411 444.06 343.499 444.136C343.591 444.208 343.697 444.262 343.817 444.298C343.941 444.33 344.073 444.346 344.213 444.346C344.401 444.346 344.573 444.328 344.729 444.292C344.885 444.252 345.031 444.196 345.167 444.124C345.307 444.052 345.439 443.966 345.563 443.866C345.691 443.766 345.815 443.652 345.935 443.524V442.264ZM342.485 439.78C342.821 439.456 343.183 439.214 343.571 439.054C343.959 438.894 344.389 438.814 344.861 438.814C345.201 438.814 345.503 438.87 345.767 438.982C346.031 439.094 346.253 439.25 346.433 439.45C346.613 439.65 346.749 439.892 346.841 440.176C346.933 440.46 346.979 440.772 346.979 441.112V445H346.505C346.401 445 346.321 444.984 346.265 444.952C346.209 444.916 346.165 444.848 346.133 444.748L346.013 444.172C345.853 444.32 345.697 444.452 345.545 444.568C345.393 444.68 345.233 444.776 345.065 444.856C344.897 444.932 344.717 444.99 344.525 445.03C344.337 445.074 344.127 445.096 343.895 445.096C343.659 445.096 343.437 445.064 343.229 445C343.021 444.932 342.839 444.832 342.683 444.7C342.531 444.568 342.409 444.402 342.317 444.202C342.229 443.998 342.185 443.758 342.185 443.482C342.185 443.242 342.251 443.012 342.383 442.792C342.515 442.568 342.729 442.37 343.025 442.198C343.321 442.026 343.707 441.886 344.183 441.778C344.659 441.666 345.243 441.602 345.935 441.586V441.112C345.935 440.64 345.833 440.284 345.629 440.044C345.425 439.8 345.127 439.678 344.735 439.678C344.471 439.678 344.249 439.712 344.069 439.78C343.893 439.844 343.739 439.918 343.607 440.002C343.479 440.082 343.367 440.156 343.271 440.224C343.179 440.288 343.087 440.32 342.995 440.32C342.923 440.32 342.861 440.302 342.809 440.266C342.757 440.226 342.713 440.178 342.677 440.122L342.485 439.78ZM349.62 440.14C349.812 439.724 350.048 439.4 350.328 439.168C350.608 438.932 350.95 438.814 351.354 438.814C351.482 438.814 351.604 438.828 351.72 438.856C351.84 438.884 351.946 438.928 352.038 438.988L351.96 439.786C351.936 439.886 351.876 439.936 351.78 439.936C351.724 439.936 351.642 439.924 351.534 439.9C351.426 439.876 351.304 439.864 351.168 439.864C350.976 439.864 350.804 439.892 350.652 439.948C350.504 440.004 350.37 440.088 350.25 440.2C350.134 440.308 350.028 440.444 349.932 440.608C349.84 440.768 349.756 440.952 349.68 441.16V445H348.606V438.922H349.218C349.334 438.922 349.414 438.944 349.458 438.988C349.502 439.032 349.532 439.108 349.548 439.216L349.62 440.14Z" fill="#808080" fill-opacity="0.69"/>
<path d="M636.174 442.03C636.174 442.51 636.114 442.94 635.994 443.32C635.878 443.7 635.704 444.022 635.472 444.286C635.244 444.546 634.962 444.746 634.626 444.886C634.29 445.026 633.904 445.096 633.468 445.096C633.072 445.096 632.668 445.04 632.256 444.928C632.264 444.812 632.274 444.698 632.286 444.586C632.298 444.47 632.308 444.356 632.316 444.244C632.324 444.176 632.348 444.122 632.388 444.082C632.432 444.038 632.498 444.016 632.586 444.016C632.658 444.016 632.752 444.034 632.868 444.07C632.988 444.106 633.148 444.124 633.348 444.124C633.612 444.124 633.848 444.084 634.056 444.004C634.264 443.924 634.438 443.8 634.578 443.632C634.718 443.464 634.824 443.25 634.896 442.99C634.972 442.726 635.01 442.414 635.01 442.054V436.402H636.174V442.03ZM642.866 438.922V445H642.23C642.078 445 641.982 444.926 641.942 444.778L641.858 444.124C641.594 444.416 641.298 444.652 640.97 444.832C640.642 445.008 640.266 445.096 639.842 445.096C639.51 445.096 639.216 445.042 638.96 444.934C638.708 444.822 638.496 444.666 638.324 444.466C638.152 444.266 638.022 444.024 637.934 443.74C637.85 443.456 637.808 443.142 637.808 442.798V438.922H638.876V442.798C638.876 443.258 638.98 443.614 639.188 443.866C639.4 444.118 639.722 444.244 640.154 444.244C640.47 444.244 640.764 444.17 641.036 444.022C641.312 443.87 641.566 443.662 641.798 443.398V438.922H642.866ZM645.664 436.162V445H644.596V436.162H645.664Z" fill="#808080" fill-opacity="0.69"/>
<path d="M934.343 436.402V445H933.761C933.669 445 933.591 444.984 933.527 444.952C933.467 444.92 933.407 444.866 933.347 444.79L928.373 438.31C928.381 438.41 928.387 438.508 928.391 438.604C928.395 438.7 928.397 438.79 928.397 438.874V445H927.377V436.402H927.977C928.029 436.402 928.073 436.406 928.109 436.414C928.145 436.418 928.177 436.428 928.205 436.444C928.233 436.456 928.261 436.476 928.289 436.504C928.317 436.528 928.347 436.56 928.379 436.6L933.353 443.074C933.345 442.97 933.337 442.87 933.329 442.774C933.325 442.674 933.323 442.58 933.323 442.492V436.402H934.343ZM938.663 438.826C939.107 438.826 939.507 438.9 939.863 439.048C940.219 439.196 940.523 439.406 940.775 439.678C941.027 439.95 941.219 440.28 941.351 440.668C941.487 441.052 941.555 441.482 941.555 441.958C941.555 442.438 941.487 442.87 941.351 443.254C941.219 443.638 941.027 443.966 940.775 444.238C940.523 444.51 940.219 444.72 939.863 444.868C939.507 445.012 939.107 445.084 938.663 445.084C938.215 445.084 937.811 445.012 937.451 444.868C937.095 444.72 936.791 444.51 936.539 444.238C936.287 443.966 936.093 443.638 935.957 443.254C935.825 442.87 935.759 442.438 935.759 441.958C935.759 441.482 935.825 441.052 935.957 440.668C936.093 440.28 936.287 439.95 936.539 439.678C936.791 439.406 937.095 439.196 937.451 439.048C937.811 438.9 938.215 438.826 938.663 438.826ZM938.663 444.25C939.263 444.25 939.711 444.05 940.007 443.65C940.303 443.246 940.451 442.684 940.451 441.964C940.451 441.24 940.303 440.676 940.007 440.272C939.711 439.868 939.263 439.666 938.663 439.666C938.359 439.666 938.093 439.718 937.865 439.822C937.641 439.926 937.453 440.076 937.301 440.272C937.153 440.468 937.041 440.71 936.965 440.998C936.893 441.282 936.857 441.604 936.857 441.964C936.857 442.684 937.005 443.246 937.301 443.65C937.601 444.05 938.055 444.25 938.663 444.25ZM947.954 438.922L945.476 445H944.516L942.038 438.922H942.908C942.996 438.922 943.068 438.944 943.124 438.988C943.18 439.032 943.218 439.084 943.238 439.144L944.78 443.056C944.828 443.204 944.87 443.348 944.906 443.488C944.942 443.628 944.976 443.768 945.008 443.908C945.04 443.768 945.074 443.628 945.11 443.488C945.146 443.348 945.19 443.204 945.242 443.056L946.802 439.144C946.826 439.08 946.866 439.028 946.922 438.988C946.978 438.944 947.044 438.922 947.12 438.922H947.954Z" fill="#808080" fill-opacity="0.69"/>
<path d="M259.622 437.35V440.356H263.156V441.304H259.622V445H258.458V436.402H263.756V437.35H259.622ZM268.531 441.298C268.531 441.05 268.495 440.824 268.423 440.62C268.355 440.412 268.253 440.234 268.117 440.086C267.985 439.934 267.823 439.818 267.631 439.738C267.439 439.654 267.221 439.612 266.977 439.612C266.465 439.612 266.059 439.762 265.759 440.062C265.463 440.358 265.279 440.77 265.207 441.298H268.531ZM269.395 444.148C269.263 444.308 269.105 444.448 268.921 444.568C268.737 444.684 268.539 444.78 268.327 444.856C268.119 444.932 267.903 444.988 267.679 445.024C267.455 445.064 267.233 445.084 267.013 445.084C266.593 445.084 266.205 445.014 265.849 444.874C265.497 444.73 265.191 444.522 264.931 444.25C264.675 443.974 264.475 443.634 264.331 443.23C264.187 442.826 264.115 442.362 264.115 441.838C264.115 441.414 264.179 441.018 264.307 440.65C264.439 440.282 264.627 439.964 264.871 439.696C265.115 439.424 265.413 439.212 265.765 439.06C266.117 438.904 266.513 438.826 266.953 438.826C267.317 438.826 267.653 438.888 267.961 439.012C268.273 439.132 268.541 439.308 268.765 439.54C268.993 439.768 269.171 440.052 269.299 440.392C269.427 440.728 269.491 441.112 269.491 441.544C269.491 441.712 269.473 441.824 269.437 441.88C269.401 441.936 269.333 441.964 269.233 441.964H265.171C265.183 442.348 265.235 442.682 265.327 442.966C265.423 443.25 265.555 443.488 265.723 443.68C265.891 443.868 266.091 444.01 266.323 444.106C266.555 444.198 266.815 444.244 267.103 444.244C267.371 444.244 267.601 444.214 267.793 444.154C267.989 444.09 268.157 444.022 268.297 443.95C268.437 443.878 268.553 443.812 268.645 443.752C268.741 443.688 268.823 443.656 268.891 443.656C268.979 443.656 269.047 443.69 269.095 443.758L269.395 444.148ZM271.877 443.536C272.073 443.8 272.287 443.986 272.519 444.094C272.755 444.202 273.013 444.256 273.293 444.256C273.865 444.256 274.303 444.054 274.607 443.65C274.911 443.246 275.063 442.644 275.063 441.844C275.063 441.1 274.927 440.554 274.655 440.206C274.387 439.854 274.003 439.678 273.503 439.678C273.155 439.678 272.851 439.758 272.591 439.918C272.335 440.078 272.097 440.304 271.877 440.596V443.536ZM271.877 439.798C272.133 439.502 272.421 439.266 272.741 439.09C273.065 438.914 273.437 438.826 273.857 438.826C274.213 438.826 274.533 438.894 274.817 439.03C275.105 439.166 275.349 439.364 275.549 439.624C275.749 439.88 275.901 440.192 276.005 440.56C276.113 440.928 276.167 441.342 276.167 441.802C276.167 442.294 276.107 442.742 275.987 443.146C275.867 443.55 275.693 443.896 275.465 444.184C275.241 444.468 274.967 444.69 274.643 444.85C274.319 445.006 273.955 445.084 273.551 445.084C273.151 445.084 272.813 445.01 272.537 444.862C272.265 444.71 272.027 444.496 271.823 444.22L271.769 444.772C271.737 444.924 271.645 445 271.493 445H270.803V436.162H271.877V439.798Z" fill="#808080" fill-opacity="0.69"/>
<path d="M559.783 442.03C559.783 442.51 559.723 442.94 559.603 443.32C559.487 443.7 559.313 444.022 559.081 444.286C558.853 444.546 558.571 444.746 558.235 444.886C557.899 445.026 557.513 445.096 557.077 445.096C556.681 445.096 556.277 445.04 555.865 444.928C555.873 444.812 555.883 444.698 555.895 444.586C555.907 444.47 555.917 444.356 555.925 444.244C555.933 444.176 555.957 444.122 555.997 444.082C556.041 444.038 556.107 444.016 556.195 444.016C556.267 444.016 556.361 444.034 556.477 444.07C556.597 444.106 556.757 444.124 556.957 444.124C557.221 444.124 557.457 444.084 557.665 444.004C557.873 443.924 558.047 443.8 558.187 443.632C558.327 443.464 558.433 443.25 558.505 442.99C558.581 442.726 558.619 442.414 558.619 442.054V436.402H559.783V442.03ZM566.476 438.922V445H565.84C565.688 445 565.592 444.926 565.552 444.778L565.468 444.124C565.204 444.416 564.908 444.652 564.58 444.832C564.252 445.008 563.876 445.096 563.452 445.096C563.12 445.096 562.826 445.042 562.57 444.934C562.318 444.822 562.106 444.666 561.934 444.466C561.762 444.266 561.632 444.024 561.544 443.74C561.46 443.456 561.418 443.142 561.418 442.798V438.922H562.486V442.798C562.486 443.258 562.59 443.614 562.798 443.866C563.01 444.118 563.332 444.244 563.764 444.244C564.08 444.244 564.374 444.17 564.646 444.022C564.922 443.87 565.176 443.662 565.408 443.398V438.922H566.476ZM569.177 439.804C569.309 439.656 569.449 439.522 569.597 439.402C569.745 439.282 569.901 439.18 570.065 439.096C570.233 439.008 570.409 438.942 570.593 438.898C570.781 438.85 570.983 438.826 571.199 438.826C571.531 438.826 571.823 438.882 572.075 438.994C572.331 439.102 572.543 439.258 572.711 439.462C572.883 439.662 573.013 439.904 573.101 440.188C573.189 440.472 573.233 440.786 573.233 441.13V445H572.159V441.13C572.159 440.67 572.053 440.314 571.841 440.062C571.633 439.806 571.315 439.678 570.887 439.678C570.571 439.678 570.275 439.754 569.999 439.906C569.727 440.058 569.475 440.264 569.243 440.524V445H568.169V438.922H568.811C568.963 438.922 569.057 438.996 569.093 439.144L569.177 439.804Z" fill="#808080" fill-opacity="0.69"/>
<path d="M861.983 440.704C861.983 441.348 861.881 441.94 861.677 442.48C861.473 443.016 861.185 443.478 860.813 443.866C860.441 444.254 859.993 444.556 859.469 444.772C858.949 444.984 858.373 445.09 857.741 445.09C857.109 445.09 856.533 444.984 856.013 444.772C855.493 444.556 855.047 444.254 854.675 443.866C854.303 443.478 854.015 443.016 853.811 442.48C853.607 441.94 853.505 441.348 853.505 440.704C853.505 440.06 853.607 439.47 853.811 438.934C854.015 438.394 854.303 437.93 854.675 437.542C855.047 437.15 855.493 436.846 856.013 436.63C856.533 436.414 857.109 436.306 857.741 436.306C858.373 436.306 858.949 436.414 859.469 436.63C859.993 436.846 860.441 437.15 860.813 437.542C861.185 437.93 861.473 438.394 861.677 438.934C861.881 439.47 861.983 440.06 861.983 440.704ZM860.789 440.704C860.789 440.176 860.717 439.702 860.573 439.282C860.429 438.862 860.225 438.508 859.961 438.22C859.697 437.928 859.377 437.704 859.001 437.548C858.625 437.392 858.205 437.314 857.741 437.314C857.281 437.314 856.863 437.392 856.487 437.548C856.111 437.704 855.789 437.928 855.521 438.22C855.257 438.508 855.053 438.862 854.909 439.282C854.765 439.702 854.693 440.176 854.693 440.704C854.693 441.232 854.765 441.706 854.909 442.126C855.053 442.542 855.257 442.896 855.521 443.188C855.789 443.476 856.111 443.698 856.487 443.854C856.863 444.006 857.281 444.082 857.741 444.082C858.205 444.082 858.625 444.006 859.001 443.854C859.377 443.698 859.697 443.476 859.961 443.188C860.225 442.896 860.429 442.542 860.573 442.126C860.717 441.706 860.789 441.232 860.789 440.704ZM867.544 440.002C867.512 440.046 867.48 440.08 867.448 440.104C867.416 440.128 867.372 440.14 867.316 440.14C867.256 440.14 867.19 440.116 867.118 440.068C867.046 440.016 866.956 439.96 866.848 439.9C866.744 439.84 866.614 439.786 866.458 439.738C866.306 439.686 866.118 439.66 865.894 439.66C865.594 439.66 865.33 439.714 865.102 439.822C864.874 439.926 864.682 440.078 864.526 440.278C864.374 440.478 864.258 440.72 864.178 441.004C864.102 441.288 864.064 441.606 864.064 441.958C864.064 442.326 864.106 442.654 864.19 442.942C864.274 443.226 864.392 443.466 864.544 443.662C864.7 443.854 864.886 444.002 865.102 444.106C865.322 444.206 865.568 444.256 865.84 444.256C866.1 444.256 866.314 444.226 866.482 444.166C866.65 444.102 866.788 444.032 866.896 443.956C867.008 443.88 867.1 443.812 867.172 443.752C867.248 443.688 867.322 443.656 867.394 443.656C867.482 443.656 867.55 443.69 867.598 443.758L867.898 444.148C867.766 444.312 867.616 444.452 867.448 444.568C867.28 444.684 867.098 444.782 866.902 444.862C866.71 444.938 866.508 444.994 866.296 445.03C866.084 445.066 865.868 445.084 865.648 445.084C865.268 445.084 864.914 445.014 864.586 444.874C864.262 444.734 863.98 444.532 863.74 444.268C863.5 444 863.312 443.672 863.176 443.284C863.04 442.896 862.972 442.454 862.972 441.958C862.972 441.506 863.034 441.088 863.158 440.704C863.286 440.32 863.47 439.99 863.71 439.714C863.954 439.434 864.252 439.216 864.604 439.06C864.96 438.904 865.368 438.826 865.828 438.826C866.256 438.826 866.632 438.896 866.956 439.036C867.284 439.172 867.574 439.366 867.826 439.618L867.544 440.002ZM870.91 445.096C870.43 445.096 870.06 444.962 869.8 444.694C869.544 444.426 869.416 444.04 869.416 443.536V439.816H868.684C868.62 439.816 868.566 439.798 868.522 439.762C868.478 439.722 868.456 439.662 868.456 439.582V439.156L869.452 439.03L869.698 437.152C869.71 437.092 869.736 437.044 869.776 437.008C869.82 436.968 869.876 436.948 869.944 436.948H870.484V439.042H872.242V439.816H870.484V443.464C870.484 443.72 870.546 443.91 870.67 444.034C870.794 444.158 870.954 444.22 871.15 444.22C871.262 444.22 871.358 444.206 871.438 444.178C871.522 444.146 871.594 444.112 871.654 444.076C871.714 444.04 871.764 444.008 871.804 443.98C871.848 443.948 871.886 443.932 871.918 443.932C871.974 443.932 872.024 443.966 872.068 444.034L872.38 444.544C872.196 444.716 871.974 444.852 871.714 444.952C871.454 445.048 871.186 445.096 870.91 445.096Z" fill="#808080" fill-opacity="0.69"/>
<path d="M412.008 441.808L410.658 438.31C410.618 438.206 410.576 438.086 410.532 437.95C410.488 437.81 410.446 437.662 410.406 437.506C410.322 437.83 410.236 438.1 410.148 438.316L408.798 441.808H412.008ZM414.432 445H413.532C413.428 445 413.344 444.974 413.28 444.922C413.216 444.87 413.168 444.804 413.136 444.724L412.332 442.648H408.474L407.67 444.724C407.646 444.796 407.6 444.86 407.532 444.916C407.464 444.972 407.38 445 407.28 445H406.38L409.818 436.402H410.994L414.432 445ZM416.362 443.536C416.558 443.8 416.772 443.986 417.004 444.094C417.236 444.202 417.496 444.256 417.784 444.256C418.352 444.256 418.788 444.054 419.092 443.65C419.396 443.246 419.548 442.67 419.548 441.922C419.548 441.526 419.512 441.186 419.44 440.902C419.372 440.618 419.272 440.386 419.14 440.206C419.008 440.022 418.846 439.888 418.654 439.804C418.462 439.72 418.244 439.678 418 439.678C417.652 439.678 417.346 439.758 417.082 439.918C416.822 440.078 416.582 440.304 416.362 440.596V443.536ZM416.308 439.864C416.564 439.548 416.86 439.294 417.196 439.102C417.532 438.91 417.916 438.814 418.348 438.814C418.7 438.814 419.018 438.882 419.302 439.018C419.586 439.15 419.828 439.348 420.028 439.612C420.228 439.872 420.382 440.196 420.49 440.584C420.598 440.972 420.652 441.418 420.652 441.922C420.652 442.37 420.592 442.788 420.472 443.176C420.352 443.56 420.178 443.894 419.95 444.178C419.726 444.458 419.45 444.68 419.122 444.844C418.798 445.004 418.432 445.084 418.024 445.084C417.652 445.084 417.332 445.022 417.064 444.898C416.8 444.77 416.566 444.594 416.362 444.37V447.058H415.288V438.922H415.93C416.082 438.922 416.176 438.996 416.212 439.144L416.308 439.864ZM423.028 440.14C423.22 439.724 423.456 439.4 423.736 439.168C424.016 438.932 424.358 438.814 424.762 438.814C424.89 438.814 425.012 438.828 425.128 438.856C425.248 438.884 425.354 438.928 425.446 438.988L425.368 439.786C425.344 439.886 425.284 439.936 425.188 439.936C425.132 439.936 425.05 439.924 424.942 439.9C424.834 439.876 424.712 439.864 424.576 439.864C424.384 439.864 424.212 439.892 424.06 439.948C423.912 440.004 423.778 440.088 423.658 440.2C423.542 440.308 423.436 440.444 423.34 440.608C423.248 440.768 423.164 440.952 423.088 441.16V445H422.014V438.922H422.626C422.742 438.922 422.822 438.944 422.866 438.988C422.91 439.032 422.94 439.108 422.956 439.216L423.028 440.14Z" fill="#808080" fill-opacity="0.69"/>
<path d="M708.692 441.724L707.636 438.838C707.584 438.71 707.53 438.558 707.474 438.382C707.418 438.206 707.362 438.016 707.306 437.812C707.254 438.016 707.2 438.208 707.144 438.388C707.088 438.564 707.034 438.718 706.982 438.85L705.932 441.724H708.692ZM711.542 445H710.294C710.154 445 710.04 444.966 709.952 444.898C709.864 444.826 709.798 444.738 709.754 444.634L709.106 442.864H705.512L704.864 444.634C704.832 444.726 704.77 444.81 704.678 444.886C704.586 444.962 704.472 445 704.336 445H703.076L706.49 436.324H708.134L711.542 445ZM717.369 438.844V445H716.463C716.267 445 716.143 444.91 716.091 444.73L715.989 444.238C715.737 444.494 715.459 444.702 715.155 444.862C714.851 445.018 714.493 445.096 714.081 445.096C713.745 445.096 713.447 445.04 713.187 444.928C712.931 444.812 712.715 444.65 712.539 444.442C712.363 444.234 712.229 443.988 712.137 443.704C712.049 443.416 712.005 443.1 712.005 442.756V438.844H713.487V442.756C713.487 443.132 713.573 443.424 713.745 443.632C713.921 443.836 714.183 443.938 714.531 443.938C714.787 443.938 715.027 443.882 715.251 443.77C715.475 443.654 715.687 443.496 715.887 443.296V438.844H717.369ZM721.088 441.772C721.272 441.772 721.432 441.748 721.568 441.7C721.704 441.648 721.816 441.578 721.904 441.49C721.996 441.402 722.064 441.296 722.108 441.172C722.156 441.048 722.18 440.912 722.18 440.764C722.18 440.46 722.088 440.22 721.904 440.044C721.724 439.864 721.452 439.774 721.088 439.774C720.724 439.774 720.45 439.864 720.266 440.044C720.086 440.22 719.996 440.46 719.996 440.764C719.996 440.908 720.018 441.042 720.062 441.166C720.11 441.29 720.178 441.398 720.266 441.49C720.358 441.578 720.472 441.648 720.608 441.7C720.748 441.748 720.908 441.772 721.088 441.772ZM722.762 445.276C722.762 445.156 722.726 445.058 722.654 444.982C722.582 444.906 722.484 444.848 722.36 444.808C722.236 444.764 722.09 444.732 721.922 444.712C721.758 444.692 721.582 444.678 721.394 444.67C721.21 444.658 721.018 444.648 720.818 444.64C720.622 444.632 720.43 444.616 720.242 444.592C720.078 444.684 719.944 444.792 719.84 444.916C719.74 445.04 719.69 445.184 719.69 445.348C719.69 445.456 719.716 445.556 719.768 445.648C719.824 445.744 719.91 445.826 720.026 445.894C720.146 445.962 720.3 446.014 720.488 446.05C720.676 446.09 720.906 446.11 721.178 446.11C721.454 446.11 721.692 446.088 721.892 446.044C722.092 446.004 722.256 445.946 722.384 445.87C722.516 445.798 722.612 445.71 722.672 445.606C722.732 445.506 722.762 445.396 722.762 445.276ZM724.238 439.054V439.606C724.238 439.782 724.132 439.89 723.92 439.93L723.368 440.032C723.452 440.244 723.494 440.476 723.494 440.728C723.494 441.032 723.432 441.308 723.308 441.556C723.188 441.8 723.02 442.008 722.804 442.18C722.588 442.352 722.332 442.486 722.036 442.582C721.744 442.674 721.428 442.72 721.088 442.72C720.968 442.72 720.852 442.714 720.74 442.702C720.628 442.69 720.518 442.674 720.41 442.654C720.218 442.77 720.122 442.9 720.122 443.044C720.122 443.168 720.178 443.26 720.29 443.32C720.406 443.376 720.558 443.416 720.746 443.44C720.934 443.464 721.148 443.48 721.388 443.488C721.628 443.492 721.874 443.504 722.126 443.524C722.378 443.544 722.624 443.58 722.864 443.632C723.104 443.68 723.318 443.758 723.506 443.866C723.694 443.974 723.844 444.122 723.956 444.31C724.072 444.494 724.13 444.732 724.13 445.024C724.13 445.296 724.062 445.56 723.926 445.816C723.794 446.072 723.6 446.3 723.344 446.5C723.092 446.7 722.78 446.86 722.408 446.98C722.04 447.104 721.62 447.166 721.148 447.166C720.684 447.166 720.28 447.12 719.936 447.028C719.592 446.94 719.306 446.82 719.078 446.668C718.85 446.52 718.68 446.348 718.568 446.152C718.456 445.956 718.4 445.752 718.4 445.54C718.4 445.252 718.486 445.012 718.658 444.82C718.834 444.624 719.074 444.468 719.378 444.352C719.214 444.268 719.084 444.156 718.988 444.016C718.892 443.876 718.844 443.692 718.844 443.464C718.844 443.372 718.86 443.278 718.892 443.182C718.928 443.082 718.978 442.984 719.042 442.888C719.11 442.792 719.194 442.702 719.294 442.618C719.394 442.53 719.512 442.452 719.648 442.384C719.336 442.216 719.09 441.992 718.91 441.712C718.734 441.432 718.646 441.104 718.646 440.728C718.646 440.424 718.706 440.15 718.826 439.906C718.95 439.658 719.12 439.448 719.336 439.276C719.556 439.1 719.814 438.966 720.11 438.874C720.41 438.782 720.736 438.736 721.088 438.736C721.352 438.736 721.6 438.764 721.832 438.82C722.064 438.872 722.276 438.95 722.468 439.054H724.238Z" fill="#483EB7"/>
<path d="M1009.64 440.704C1009.64 441.348 1009.54 441.934 1009.33 442.462C1009.13 442.99 1008.84 443.442 1008.47 443.818C1008.1 444.194 1007.65 444.486 1007.12 444.694C1006.6 444.898 1006.03 445 1005.4 445H1002.19V436.402H1005.4C1006.03 436.402 1006.6 436.506 1007.12 436.714C1007.65 436.918 1008.1 437.21 1008.47 437.59C1008.84 437.966 1009.13 438.418 1009.33 438.946C1009.54 439.474 1009.64 440.06 1009.64 440.704ZM1008.44 440.704C1008.44 440.176 1008.37 439.704 1008.23 439.288C1008.08 438.872 1007.88 438.52 1007.62 438.232C1007.35 437.944 1007.03 437.724 1006.66 437.572C1006.28 437.42 1005.86 437.344 1005.4 437.344H1003.35V444.058H1005.4C1005.86 444.058 1006.28 443.982 1006.66 443.83C1007.03 443.678 1007.35 443.46 1007.62 443.176C1007.88 442.888 1008.08 442.536 1008.23 442.12C1008.37 441.704 1008.44 441.232 1008.44 440.704ZM1015.05 441.298C1015.05 441.05 1015.01 440.824 1014.94 440.62C1014.87 440.412 1014.77 440.234 1014.63 440.086C1014.5 439.934 1014.34 439.818 1014.15 439.738C1013.96 439.654 1013.74 439.612 1013.49 439.612C1012.98 439.612 1012.58 439.762 1012.28 440.062C1011.98 440.358 1011.8 440.77 1011.72 441.298H1015.05ZM1015.91 444.148C1015.78 444.308 1015.62 444.448 1015.44 444.568C1015.25 444.684 1015.06 444.78 1014.84 444.856C1014.64 444.932 1014.42 444.988 1014.2 445.024C1013.97 445.064 1013.75 445.084 1013.53 445.084C1013.11 445.084 1012.72 445.014 1012.37 444.874C1012.01 444.73 1011.71 444.522 1011.45 444.25C1011.19 443.974 1010.99 443.634 1010.85 443.23C1010.7 442.826 1010.63 442.362 1010.63 441.838C1010.63 441.414 1010.7 441.018 1010.82 440.65C1010.96 440.282 1011.14 439.964 1011.39 439.696C1011.63 439.424 1011.93 439.212 1012.28 439.06C1012.63 438.904 1013.03 438.826 1013.47 438.826C1013.83 438.826 1014.17 438.888 1014.48 439.012C1014.79 439.132 1015.06 439.308 1015.28 439.54C1015.51 439.768 1015.69 440.052 1015.82 440.392C1015.94 440.728 1016.01 441.112 1016.01 441.544C1016.01 441.712 1015.99 441.824 1015.95 441.88C1015.92 441.936 1015.85 441.964 1015.75 441.964H1011.69C1011.7 442.348 1011.75 442.682 1011.84 442.966C1011.94 443.25 1012.07 443.488 1012.24 443.68C1012.41 443.868 1012.61 444.01 1012.84 444.106C1013.07 444.198 1013.33 444.244 1013.62 444.244C1013.89 444.244 1014.12 444.214 1014.31 444.154C1014.51 444.09 1014.67 444.022 1014.81 443.95C1014.95 443.878 1015.07 443.812 1015.16 443.752C1015.26 443.688 1015.34 443.656 1015.41 443.656C1015.5 443.656 1015.56 443.69 1015.61 443.758L1015.91 444.148ZM1021.55 440.002C1021.52 440.046 1021.49 440.08 1021.45 440.104C1021.42 440.128 1021.38 440.14 1021.32 440.14C1021.26 440.14 1021.2 440.116 1021.12 440.068C1021.05 440.016 1020.96 439.96 1020.85 439.9C1020.75 439.84 1020.62 439.786 1020.46 439.738C1020.31 439.686 1020.12 439.66 1019.9 439.66C1019.6 439.66 1019.34 439.714 1019.11 439.822C1018.88 439.926 1018.69 440.078 1018.53 440.278C1018.38 440.478 1018.26 440.72 1018.18 441.004C1018.11 441.288 1018.07 441.606 1018.07 441.958C1018.07 442.326 1018.11 442.654 1018.2 442.942C1018.28 443.226 1018.4 443.466 1018.55 443.662C1018.71 443.854 1018.89 444.002 1019.11 444.106C1019.33 444.206 1019.57 444.256 1019.85 444.256C1020.11 444.256 1020.32 444.226 1020.49 444.166C1020.66 444.102 1020.79 444.032 1020.9 443.956C1021.01 443.88 1021.11 443.812 1021.18 443.752C1021.25 443.688 1021.33 443.656 1021.4 443.656C1021.49 443.656 1021.56 443.69 1021.6 443.758L1021.9 444.148C1021.77 444.312 1021.62 444.452 1021.45 444.568C1021.29 444.684 1021.1 444.782 1020.91 444.862C1020.72 444.938 1020.51 444.994 1020.3 445.03C1020.09 445.066 1019.87 445.084 1019.65 445.084C1019.27 445.084 1018.92 445.014 1018.59 444.874C1018.27 444.734 1017.99 444.532 1017.75 444.268C1017.51 444 1017.32 443.672 1017.18 443.284C1017.05 442.896 1016.98 442.454 1016.98 441.958C1016.98 441.506 1017.04 441.088 1017.16 440.704C1017.29 440.32 1017.48 439.99 1017.72 439.714C1017.96 439.434 1018.26 439.216 1018.61 439.06C1018.97 438.904 1019.37 438.826 1019.83 438.826C1020.26 438.826 1020.64 438.896 1020.96 439.036C1021.29 439.172 1021.58 439.366 1021.83 439.618L1021.55 440.002Z" fill="#808080" fill-opacity="0.69"/>
<path d="M116.503 118.928C116.503 119.2 116.541 119.444 116.617 119.66C116.697 119.872 116.809 120.052 116.953 120.2C117.101 120.348 117.279 120.46 117.487 120.536C117.699 120.612 117.935 120.65 118.195 120.65C118.483 120.65 118.737 120.604 118.957 120.512C119.181 120.416 119.369 120.29 119.521 120.134C119.673 119.978 119.789 119.798 119.869 119.594C119.949 119.39 119.989 119.178 119.989 118.958C119.989 118.69 119.945 118.448 119.857 118.232C119.773 118.012 119.655 117.826 119.503 117.674C119.351 117.522 119.169 117.406 118.957 117.326C118.749 117.242 118.519 117.2 118.267 117.2C118.003 117.2 117.763 117.244 117.547 117.332C117.331 117.416 117.145 117.534 116.989 117.686C116.833 117.838 116.713 118.02 116.629 118.232C116.545 118.444 116.503 118.676 116.503 118.928ZM118.999 121.574C119.087 121.458 119.169 121.348 119.245 121.244C119.321 121.14 119.393 121.036 119.461 120.932C119.241 121.108 118.993 121.242 118.717 121.334C118.441 121.426 118.149 121.472 117.841 121.472C117.517 121.472 117.209 121.418 116.917 121.31C116.629 121.202 116.375 121.044 116.155 120.836C115.935 120.624 115.759 120.366 115.627 120.062C115.499 119.754 115.435 119.402 115.435 119.006C115.435 118.63 115.505 118.278 115.645 117.95C115.785 117.622 115.981 117.336 116.233 117.092C116.485 116.848 116.785 116.656 117.133 116.516C117.481 116.376 117.863 116.306 118.279 116.306C118.691 116.306 119.065 116.374 119.401 116.51C119.737 116.646 120.025 116.836 120.265 117.08C120.505 117.324 120.689 117.616 120.817 117.956C120.949 118.296 121.015 118.672 121.015 119.084C121.015 119.332 120.991 119.568 120.943 119.792C120.899 120.012 120.833 120.23 120.745 120.446C120.661 120.658 120.557 120.87 120.433 121.082C120.309 121.29 120.169 121.504 120.013 121.724L117.919 124.748C117.867 124.824 117.793 124.886 117.697 124.934C117.601 124.978 117.491 125 117.367 125H116.383L118.999 121.574ZM128.366 120.704C128.366 121.456 128.284 122.108 128.12 122.66C127.96 123.208 127.74 123.662 127.46 124.022C127.18 124.382 126.848 124.65 126.464 124.826C126.084 125.002 125.676 125.09 125.24 125.09C124.8 125.09 124.39 125.002 124.01 124.826C123.634 124.65 123.306 124.382 123.026 124.022C122.746 123.662 122.526 123.208 122.366 122.66C122.206 122.108 122.126 121.456 122.126 120.704C122.126 119.952 122.206 119.3 122.366 118.748C122.526 118.196 122.746 117.74 123.026 117.38C123.306 117.016 123.634 116.746 124.01 116.57C124.39 116.394 124.8 116.306 125.24 116.306C125.676 116.306 126.084 116.394 126.464 116.57C126.848 116.746 127.18 117.016 127.46 117.38C127.74 117.74 127.96 118.196 128.12 118.748C128.284 119.3 128.366 119.952 128.366 120.704ZM127.256 120.704C127.256 120.048 127.2 119.498 127.088 119.054C126.98 118.606 126.832 118.246 126.644 117.974C126.46 117.702 126.246 117.508 126.002 117.392C125.758 117.272 125.504 117.212 125.24 117.212C124.976 117.212 124.722 117.272 124.478 117.392C124.234 117.508 124.02 117.702 123.836 117.974C123.652 118.246 123.504 118.606 123.392 119.054C123.284 119.498 123.23 120.048 123.23 120.704C123.23 121.36 123.284 121.91 123.392 122.354C123.504 122.798 123.652 123.156 123.836 123.428C124.02 123.7 124.234 123.896 124.478 124.016C124.722 124.132 124.976 124.19 125.24 124.19C125.504 124.19 125.758 124.132 126.002 124.016C126.246 123.896 126.46 123.7 126.644 123.428C126.832 123.156 126.98 122.798 127.088 122.354C127.2 121.91 127.256 121.36 127.256 120.704Z" fill="#808080" fill-opacity="0.69"/>
<path d="M116.977 243.648C117.425 243.552 117.837 243.504 118.213 243.504C118.661 243.504 119.057 243.57 119.401 243.702C119.745 243.834 120.031 244.016 120.259 244.248C120.491 244.48 120.665 244.754 120.781 245.07C120.901 245.386 120.961 245.73 120.961 246.102C120.961 246.558 120.881 246.97 120.721 247.338C120.565 247.706 120.347 248.022 120.067 248.286C119.791 248.546 119.465 248.746 119.089 248.886C118.713 249.026 118.307 249.096 117.871 249.096C117.619 249.096 117.377 249.07 117.145 249.018C116.913 248.97 116.695 248.904 116.491 248.82C116.291 248.736 116.105 248.64 115.933 248.532C115.761 248.424 115.609 248.31 115.477 248.19L115.807 247.734C115.879 247.63 115.973 247.578 116.089 247.578C116.169 247.578 116.259 247.61 116.359 247.674C116.459 247.734 116.581 247.802 116.725 247.878C116.869 247.954 117.037 248.024 117.229 248.088C117.425 248.148 117.657 248.178 117.925 248.178C118.225 248.178 118.495 248.13 118.735 248.034C118.975 247.938 119.181 247.802 119.353 247.626C119.525 247.446 119.657 247.232 119.749 246.984C119.841 246.736 119.887 246.458 119.887 246.15C119.887 245.882 119.847 245.64 119.767 245.424C119.691 245.208 119.573 245.024 119.413 244.872C119.257 244.72 119.061 244.602 118.825 244.518C118.589 244.434 118.313 244.392 117.997 244.392C117.781 244.392 117.555 244.41 117.319 244.446C117.087 244.482 116.849 244.54 116.605 244.62L115.933 244.422L116.623 240.402H120.697V240.87C120.697 241.022 120.649 241.148 120.553 241.248C120.461 241.344 120.301 241.392 120.073 241.392H117.373L116.977 243.648ZM128.366 244.704C128.366 245.456 128.284 246.108 128.12 246.66C127.96 247.208 127.74 247.662 127.46 248.022C127.18 248.382 126.848 248.65 126.464 248.826C126.084 249.002 125.676 249.09 125.24 249.09C124.8 249.09 124.39 249.002 124.01 248.826C123.634 248.65 123.306 248.382 123.026 248.022C122.746 247.662 122.526 247.208 122.366 246.66C122.206 246.108 122.126 245.456 122.126 244.704C122.126 243.952 122.206 243.3 122.366 242.748C122.526 242.196 122.746 241.74 123.026 241.38C123.306 241.016 123.634 240.746 124.01 240.57C124.39 240.394 124.8 240.306 125.24 240.306C125.676 240.306 126.084 240.394 126.464 240.57C126.848 240.746 127.18 241.016 127.46 241.38C127.74 241.74 127.96 242.196 128.12 242.748C128.284 243.3 128.366 243.952 128.366 244.704ZM127.256 244.704C127.256 244.048 127.2 243.498 127.088 243.054C126.98 242.606 126.832 242.246 126.644 241.974C126.46 241.702 126.246 241.508 126.002 241.392C125.758 241.272 125.504 241.212 125.24 241.212C124.976 241.212 124.722 241.272 124.478 241.392C124.234 241.508 124.02 241.702 123.836 241.974C123.652 242.246 123.504 242.606 123.392 243.054C123.284 243.498 123.23 244.048 123.23 244.704C123.23 245.36 123.284 245.91 123.392 246.354C123.504 246.798 123.652 247.156 123.836 247.428C124.02 247.7 124.234 247.896 124.478 248.016C124.722 248.132 124.976 248.19 125.24 248.19C125.504 248.19 125.758 248.132 126.002 248.016C126.246 247.896 126.46 247.7 126.644 247.428C126.832 247.156 126.98 246.798 127.088 246.354C127.2 245.91 127.256 245.36 127.256 244.704Z" fill="#808080" fill-opacity="0.69"/>
<path d="M121.291 178.402V178.882C121.291 179.018 121.275 179.13 121.243 179.218C121.215 179.306 121.187 179.38 121.159 179.44L117.595 186.622C117.543 186.726 117.471 186.816 117.379 186.892C117.287 186.964 117.165 187 117.013 187H116.245L119.857 179.908C119.909 179.808 119.963 179.716 120.019 179.632C120.075 179.548 120.135 179.468 120.199 179.392H115.711C115.643 179.392 115.583 179.366 115.531 179.314C115.479 179.258 115.453 179.196 115.453 179.128V178.402H121.291ZM128.366 182.704C128.366 183.456 128.284 184.108 128.12 184.66C127.96 185.208 127.74 185.662 127.46 186.022C127.18 186.382 126.848 186.65 126.464 186.826C126.084 187.002 125.676 187.09 125.24 187.09C124.8 187.09 124.39 187.002 124.01 186.826C123.634 186.65 123.306 186.382 123.026 186.022C122.746 185.662 122.526 185.208 122.366 184.66C122.206 184.108 122.126 183.456 122.126 182.704C122.126 181.952 122.206 181.3 122.366 180.748C122.526 180.196 122.746 179.74 123.026 179.38C123.306 179.016 123.634 178.746 124.01 178.57C124.39 178.394 124.8 178.306 125.24 178.306C125.676 178.306 126.084 178.394 126.464 178.57C126.848 178.746 127.18 179.016 127.46 179.38C127.74 179.74 127.96 180.196 128.12 180.748C128.284 181.3 128.366 181.952 128.366 182.704ZM127.256 182.704C127.256 182.048 127.2 181.498 127.088 181.054C126.98 180.606 126.832 180.246 126.644 179.974C126.46 179.702 126.246 179.508 126.002 179.392C125.758 179.272 125.504 179.212 125.24 179.212C124.976 179.212 124.722 179.272 124.478 179.392C124.234 179.508 124.02 179.702 123.836 179.974C123.652 180.246 123.504 180.606 123.392 181.054C123.284 181.498 123.23 182.048 123.23 182.704C123.23 183.36 123.284 183.91 123.392 184.354C123.504 184.798 123.652 185.156 123.836 185.428C124.02 185.7 124.234 185.896 124.478 186.016C124.722 186.132 124.976 186.19 125.24 186.19C125.504 186.19 125.758 186.132 126.002 186.016C126.246 185.896 126.46 185.7 126.644 185.428C126.832 185.156 126.98 184.798 127.088 184.354C127.2 183.91 127.256 183.36 127.256 182.704Z" fill="#808080" fill-opacity="0.69"/>
<path d="M115.585 304.73C115.641 304.338 115.749 303.992 115.909 303.692C116.069 303.388 116.271 303.134 116.515 302.93C116.763 302.726 117.045 302.572 117.361 302.468C117.681 302.36 118.025 302.306 118.393 302.306C118.757 302.306 119.093 302.358 119.401 302.462C119.709 302.566 119.973 302.714 120.193 302.906C120.417 303.098 120.591 303.33 120.715 303.602C120.839 303.874 120.901 304.176 120.901 304.508C120.901 304.78 120.865 305.024 120.793 305.24C120.725 305.452 120.625 305.638 120.493 305.798C120.365 305.958 120.209 306.094 120.025 306.206C119.841 306.318 119.635 306.41 119.407 306.482C119.967 306.626 120.387 306.874 120.667 307.226C120.951 307.574 121.093 308.01 121.093 308.534C121.093 308.93 121.017 309.286 120.865 309.602C120.717 309.918 120.513 310.188 120.253 310.412C119.993 310.632 119.689 310.802 119.341 310.922C118.997 311.038 118.627 311.096 118.231 311.096C117.775 311.096 117.385 311.04 117.061 310.928C116.737 310.812 116.463 310.654 116.239 310.454C116.015 310.254 115.831 310.018 115.687 309.746C115.543 309.47 115.421 309.172 115.321 308.852L115.783 308.66C115.903 308.608 116.019 308.594 116.131 308.618C116.247 308.642 116.331 308.708 116.383 308.816C116.435 308.928 116.499 309.062 116.575 309.218C116.655 309.374 116.763 309.524 116.899 309.668C117.035 309.812 117.207 309.934 117.415 310.034C117.627 310.134 117.895 310.184 118.219 310.184C118.519 310.184 118.781 310.136 119.005 310.04C119.233 309.94 119.421 309.812 119.569 309.656C119.721 309.5 119.835 309.326 119.911 309.134C119.987 308.942 120.025 308.752 120.025 308.564C120.025 308.332 119.995 308.12 119.935 307.928C119.875 307.736 119.763 307.57 119.599 307.43C119.435 307.29 119.209 307.18 118.921 307.1C118.637 307.02 118.271 306.98 117.823 306.98V306.206C118.191 306.202 118.503 306.162 118.759 306.086C119.019 306.01 119.229 305.906 119.389 305.774C119.553 305.642 119.671 305.484 119.743 305.3C119.819 305.116 119.857 304.912 119.857 304.688C119.857 304.44 119.817 304.224 119.737 304.04C119.661 303.856 119.555 303.704 119.419 303.584C119.283 303.464 119.121 303.374 118.933 303.314C118.749 303.254 118.549 303.224 118.333 303.224C118.117 303.224 117.915 303.256 117.727 303.32C117.543 303.384 117.379 303.474 117.235 303.59C117.095 303.702 116.977 303.836 116.881 303.992C116.785 304.148 116.717 304.32 116.677 304.508C116.625 304.648 116.559 304.742 116.479 304.79C116.403 304.834 116.291 304.846 116.143 304.826L115.585 304.73ZM128.366 306.704C128.366 307.456 128.284 308.108 128.12 308.66C127.96 309.208 127.74 309.662 127.46 310.022C127.18 310.382 126.848 310.65 126.464 310.826C126.084 311.002 125.676 311.09 125.24 311.09C124.8 311.09 124.39 311.002 124.01 310.826C123.634 310.65 123.306 310.382 123.026 310.022C122.746 309.662 122.526 309.208 122.366 308.66C122.206 308.108 122.126 307.456 122.126 306.704C122.126 305.952 122.206 305.3 122.366 304.748C122.526 304.196 122.746 303.74 123.026 303.38C123.306 303.016 123.634 302.746 124.01 302.57C124.39 302.394 124.8 302.306 125.24 302.306C125.676 302.306 126.084 302.394 126.464 302.57C126.848 302.746 127.18 303.016 127.46 303.38C127.74 303.74 127.96 304.196 128.12 304.748C128.284 305.3 128.366 305.952 128.366 306.704ZM127.256 306.704C127.256 306.048 127.2 305.498 127.088 305.054C126.98 304.606 126.832 304.246 126.644 303.974C126.46 303.702 126.246 303.508 126.002 303.392C125.758 303.272 125.504 303.212 125.24 303.212C124.976 303.212 124.722 303.272 124.478 303.392C124.234 303.508 124.02 303.702 123.836 303.974C123.652 304.246 123.504 304.606 123.392 305.054C123.284 305.498 123.23 306.048 123.23 306.704C123.23 307.36 123.284 307.91 123.392 308.354C123.504 308.798 123.652 309.156 123.836 309.428C124.02 309.7 124.234 309.896 124.478 310.016C124.722 310.132 124.976 310.19 125.24 310.19C125.504 310.19 125.758 310.132 126.002 310.016C126.246 309.896 126.46 309.7 126.644 309.428C126.832 309.156 126.98 308.798 127.088 308.354C127.2 307.91 127.256 307.36 127.256 306.704Z" fill="#808080" fill-opacity="0.69"/>
<path d="M120.913 372.184V373H116.305V372.184H118.147V366.322C118.147 366.146 118.153 365.968 118.165 365.788L116.635 367.102C116.583 367.146 116.531 367.174 116.479 367.186C116.427 367.194 116.379 367.194 116.335 367.186C116.291 367.178 116.249 367.162 116.209 367.138C116.173 367.114 116.145 367.088 116.125 367.06L115.789 366.598L118.351 364.384H119.221V372.184H120.913ZM128.366 368.704C128.366 369.456 128.284 370.108 128.12 370.66C127.96 371.208 127.74 371.662 127.46 372.022C127.18 372.382 126.848 372.65 126.464 372.826C126.084 373.002 125.676 373.09 125.24 373.09C124.8 373.09 124.39 373.002 124.01 372.826C123.634 372.65 123.306 372.382 123.026 372.022C122.746 371.662 122.526 371.208 122.366 370.66C122.206 370.108 122.126 369.456 122.126 368.704C122.126 367.952 122.206 367.3 122.366 366.748C122.526 366.196 122.746 365.74 123.026 365.38C123.306 365.016 123.634 364.746 124.01 364.57C124.39 364.394 124.8 364.306 125.24 364.306C125.676 364.306 126.084 364.394 126.464 364.57C126.848 364.746 127.18 365.016 127.46 365.38C127.74 365.74 127.96 366.196 128.12 366.748C128.284 367.3 128.366 367.952 128.366 368.704ZM127.256 368.704C127.256 368.048 127.2 367.498 127.088 367.054C126.98 366.606 126.832 366.246 126.644 365.974C126.46 365.702 126.246 365.508 126.002 365.392C125.758 365.272 125.504 365.212 125.24 365.212C124.976 365.212 124.722 365.272 124.478 365.392C124.234 365.508 124.02 365.702 123.836 365.974C123.652 366.246 123.504 366.606 123.392 367.054C123.284 367.498 123.23 368.048 123.23 368.704C123.23 369.36 123.284 369.91 123.392 370.354C123.504 370.798 123.652 371.156 123.836 371.428C124.02 371.7 124.234 371.896 124.478 372.016C124.722 372.132 124.976 372.19 125.24 372.19C125.504 372.19 125.758 372.132 126.002 372.016C126.246 371.896 126.46 371.7 126.644 371.428C126.832 371.156 126.98 370.798 127.088 370.354C127.2 369.91 127.256 369.36 127.256 368.704Z" fill="#808080" fill-opacity="0.69"/>
<path d="M118.285 155.244C118.565 155.244 118.815 155.206 119.035 155.13C119.259 155.05 119.447 154.94 119.599 154.8C119.755 154.656 119.873 154.486 119.953 154.29C120.037 154.09 120.079 153.87 120.079 153.63C120.079 153.334 120.029 153.082 119.929 152.874C119.833 152.662 119.701 152.49 119.533 152.358C119.369 152.226 119.179 152.13 118.963 152.07C118.747 152.006 118.521 151.974 118.285 151.974C118.049 151.974 117.823 152.006 117.607 152.07C117.391 152.13 117.199 152.226 117.031 152.358C116.867 152.49 116.735 152.662 116.635 152.874C116.539 153.082 116.491 153.334 116.491 153.63C116.491 153.87 116.531 154.09 116.611 154.29C116.695 154.486 116.813 154.656 116.965 154.8C117.121 154.94 117.309 155.05 117.529 155.13C117.753 155.206 118.005 155.244 118.285 155.244ZM118.285 148.134C118.029 148.134 117.803 148.172 117.607 148.248C117.415 148.324 117.253 148.428 117.121 148.56C116.993 148.692 116.895 148.846 116.827 149.022C116.763 149.198 116.731 149.386 116.731 149.586C116.731 149.782 116.759 149.972 116.815 150.156C116.871 150.34 116.961 150.504 117.085 150.648C117.209 150.788 117.369 150.902 117.565 150.99C117.765 151.074 118.005 151.116 118.285 151.116C118.565 151.116 118.803 151.074 118.999 150.99C119.199 150.902 119.361 150.788 119.485 150.648C119.609 150.504 119.699 150.34 119.755 150.156C119.811 149.972 119.839 149.782 119.839 149.586C119.839 149.386 119.805 149.198 119.737 149.022C119.673 148.846 119.575 148.692 119.443 148.56C119.315 148.428 119.153 148.324 118.957 148.248C118.765 148.172 118.541 148.134 118.285 148.134ZM119.515 151.518C120.051 151.67 120.463 151.924 120.751 152.28C121.039 152.636 121.183 153.092 121.183 153.648C121.183 154.024 121.111 154.364 120.967 154.668C120.827 154.968 120.629 155.224 120.373 155.436C120.121 155.648 119.817 155.812 119.461 155.928C119.105 156.04 118.713 156.096 118.285 156.096C117.857 156.096 117.465 156.04 117.109 155.928C116.753 155.812 116.447 155.648 116.191 155.436C115.935 155.224 115.737 154.968 115.597 154.668C115.457 154.364 115.387 154.024 115.387 153.648C115.387 153.092 115.531 152.636 115.819 152.28C116.107 151.924 116.519 151.67 117.055 151.518C116.603 151.35 116.261 151.1 116.029 150.768C115.801 150.432 115.687 150.032 115.687 149.568C115.687 149.252 115.749 148.956 115.873 148.68C115.997 148.404 116.173 148.164 116.401 147.96C116.629 147.756 116.901 147.596 117.217 147.48C117.537 147.364 117.893 147.306 118.285 147.306C118.673 147.306 119.027 147.364 119.347 147.48C119.667 147.596 119.941 147.756 120.169 147.96C120.397 148.164 120.573 148.404 120.697 148.68C120.821 148.956 120.883 149.252 120.883 149.568C120.883 150.032 120.767 150.432 120.535 150.768C120.307 151.1 119.967 151.35 119.515 151.518ZM128.366 151.704C128.366 152.456 128.284 153.108 128.12 153.66C127.96 154.208 127.74 154.662 127.46 155.022C127.18 155.382 126.848 155.65 126.464 155.826C126.084 156.002 125.676 156.09 125.24 156.09C124.8 156.09 124.39 156.002 124.01 155.826C123.634 155.65 123.306 155.382 123.026 155.022C122.746 154.662 122.526 154.208 122.366 153.66C122.206 153.108 122.126 152.456 122.126 151.704C122.126 150.952 122.206 150.3 122.366 149.748C122.526 149.196 122.746 148.74 123.026 148.38C123.306 148.016 123.634 147.746 124.01 147.57C124.39 147.394 124.8 147.306 125.24 147.306C125.676 147.306 126.084 147.394 126.464 147.57C126.848 147.746 127.18 148.016 127.46 148.38C127.74 148.74 127.96 149.196 128.12 149.748C128.284 150.3 128.366 150.952 128.366 151.704ZM127.256 151.704C127.256 151.048 127.2 150.498 127.088 150.054C126.98 149.606 126.832 149.246 126.644 148.974C126.46 148.702 126.246 148.508 126.002 148.392C125.758 148.272 125.504 148.212 125.24 148.212C124.976 148.212 124.722 148.272 124.478 148.392C124.234 148.508 124.02 148.702 123.836 148.974C123.652 149.246 123.504 149.606 123.392 150.054C123.284 150.498 123.23 151.048 123.23 151.704C123.23 152.36 123.284 152.91 123.392 153.354C123.504 153.798 123.652 154.156 123.836 154.428C124.02 154.7 124.234 154.896 124.478 155.016C124.722 155.132 124.976 155.19 125.24 155.19C125.504 155.19 125.758 155.132 126.002 155.016C126.246 154.896 126.46 154.7 126.644 154.428C126.832 154.156 126.98 153.798 127.088 153.354C127.2 152.91 127.256 152.36 127.256 151.704Z" fill="#808080" fill-opacity="0.69"/>
<path d="M119.185 276.898V273.352C119.185 273.248 119.189 273.134 119.197 273.01C119.205 272.886 119.217 272.76 119.233 272.632L116.101 276.898H119.185ZM121.423 276.898V277.51C121.423 277.574 121.403 277.628 121.363 277.672C121.327 277.716 121.269 277.738 121.189 277.738H120.121V280H119.185V277.738H115.369C115.289 277.738 115.219 277.716 115.159 277.672C115.103 277.624 115.067 277.566 115.051 277.498L114.943 276.952L119.125 271.402H120.121V276.898H121.423ZM128.366 275.704C128.366 276.456 128.284 277.108 128.12 277.66C127.96 278.208 127.74 278.662 127.46 279.022C127.18 279.382 126.848 279.65 126.464 279.826C126.084 280.002 125.676 280.09 125.24 280.09C124.8 280.09 124.39 280.002 124.01 279.826C123.634 279.65 123.306 279.382 123.026 279.022C122.746 278.662 122.526 278.208 122.366 277.66C122.206 277.108 122.126 276.456 122.126 275.704C122.126 274.952 122.206 274.3 122.366 273.748C122.526 273.196 122.746 272.74 123.026 272.38C123.306 272.016 123.634 271.746 124.01 271.57C124.39 271.394 124.8 271.306 125.24 271.306C125.676 271.306 126.084 271.394 126.464 271.57C126.848 271.746 127.18 272.016 127.46 272.38C127.74 272.74 127.96 273.196 128.12 273.748C128.284 274.3 128.366 274.952 128.366 275.704ZM127.256 275.704C127.256 275.048 127.2 274.498 127.088 274.054C126.98 273.606 126.832 273.246 126.644 272.974C126.46 272.702 126.246 272.508 126.002 272.392C125.758 272.272 125.504 272.212 125.24 272.212C124.976 272.212 124.722 272.272 124.478 272.392C124.234 272.508 124.02 272.702 123.836 272.974C123.652 273.246 123.504 273.606 123.392 274.054C123.284 274.498 123.23 275.048 123.23 275.704C123.23 276.36 123.284 276.91 123.392 277.354C123.504 277.798 123.652 278.156 123.836 278.428C124.02 278.7 124.234 278.896 124.478 279.016C124.722 279.132 124.976 279.19 125.24 279.19C125.504 279.19 125.758 279.132 126.002 279.016C126.246 278.896 126.46 278.7 126.644 278.428C126.832 278.156 126.98 277.798 127.088 277.354C127.2 276.91 127.256 276.36 127.256 275.704Z" fill="#808080" fill-opacity="0.69"/>
<path d="M118.273 217.208C118.561 217.208 118.821 217.162 119.053 217.07C119.289 216.978 119.489 216.85 119.653 216.686C119.821 216.522 119.949 216.328 120.037 216.104C120.129 215.88 120.175 215.636 120.175 215.372C120.175 215.092 120.131 214.84 120.043 214.616C119.955 214.388 119.829 214.196 119.665 214.04C119.505 213.88 119.313 213.758 119.089 213.674C118.865 213.59 118.619 213.548 118.351 213.548C118.063 213.548 117.803 213.598 117.571 213.698C117.339 213.794 117.141 213.926 116.977 214.094C116.817 214.258 116.693 214.45 116.605 214.67C116.521 214.886 116.479 215.112 116.479 215.348C116.479 215.624 116.519 215.876 116.599 216.104C116.679 216.332 116.795 216.528 116.947 216.692C117.103 216.856 117.291 216.984 117.511 217.076C117.735 217.164 117.989 217.208 118.273 217.208ZM117.649 212.624C117.573 212.72 117.499 212.814 117.427 212.906C117.359 212.994 117.293 213.082 117.229 213.17C117.433 213.03 117.657 212.922 117.901 212.846C118.145 212.77 118.411 212.732 118.699 212.732C119.047 212.732 119.375 212.79 119.683 212.906C119.991 213.018 120.259 213.184 120.487 213.404C120.719 213.62 120.903 213.888 121.039 214.208C121.175 214.524 121.243 214.886 121.243 215.294C121.243 215.69 121.171 216.058 121.027 216.398C120.883 216.738 120.681 217.034 120.421 217.286C120.165 217.538 119.855 217.736 119.491 217.88C119.131 218.024 118.733 218.096 118.297 218.096C117.865 218.096 117.473 218.028 117.121 217.892C116.769 217.752 116.469 217.556 116.221 217.304C115.977 217.048 115.787 216.74 115.651 216.38C115.519 216.016 115.453 215.61 115.453 215.162C115.453 214.786 115.535 214.386 115.699 213.962C115.867 213.534 116.133 213.078 116.497 212.594L118.681 209.66C118.737 209.588 118.813 209.528 118.909 209.48C119.009 209.428 119.123 209.402 119.251 209.402H120.199L117.649 212.624ZM128.366 213.704C128.366 214.456 128.284 215.108 128.12 215.66C127.96 216.208 127.74 216.662 127.46 217.022C127.18 217.382 126.848 217.65 126.464 217.826C126.084 218.002 125.676 218.09 125.24 218.09C124.8 218.09 124.39 218.002 124.01 217.826C123.634 217.65 123.306 217.382 123.026 217.022C122.746 216.662 122.526 216.208 122.366 215.66C122.206 215.108 122.126 214.456 122.126 213.704C122.126 212.952 122.206 212.3 122.366 211.748C122.526 211.196 122.746 210.74 123.026 210.38C123.306 210.016 123.634 209.746 124.01 209.57C124.39 209.394 124.8 209.306 125.24 209.306C125.676 209.306 126.084 209.394 126.464 209.57C126.848 209.746 127.18 210.016 127.46 210.38C127.74 210.74 127.96 211.196 128.12 211.748C128.284 212.3 128.366 212.952 128.366 213.704ZM127.256 213.704C127.256 213.048 127.2 212.498 127.088 212.054C126.98 211.606 126.832 211.246 126.644 210.974C126.46 210.702 126.246 210.508 126.002 210.392C125.758 210.272 125.504 210.212 125.24 210.212C124.976 210.212 124.722 210.272 124.478 210.392C124.234 210.508 124.02 210.702 123.836 210.974C123.652 211.246 123.504 211.606 123.392 212.054C123.284 212.498 123.23 213.048 123.23 213.704C123.23 214.36 123.284 214.91 123.392 215.354C123.504 215.798 123.652 216.156 123.836 216.428C124.02 216.7 124.234 216.896 124.478 217.016C124.722 217.132 124.976 217.19 125.24 217.19C125.504 217.19 125.758 217.132 126.002 217.016C126.246 216.896 126.46 216.7 126.644 216.428C126.832 216.156 126.98 215.798 127.088 215.354C127.2 214.91 127.256 214.36 127.256 213.704Z" fill="#808080" fill-opacity="0.69"/>
<path d="M120.727 340.986C120.843 340.986 120.935 341.02 121.003 341.088C121.071 341.156 121.105 341.244 121.105 341.352V342H115.369V341.634C115.369 341.558 115.385 341.48 115.417 341.4C115.449 341.32 115.499 341.246 115.567 341.178L118.321 338.412C118.549 338.18 118.757 337.958 118.945 337.746C119.133 337.53 119.293 337.314 119.425 337.098C119.557 336.882 119.659 336.664 119.731 336.444C119.803 336.22 119.839 335.982 119.839 335.73C119.839 335.478 119.799 335.258 119.719 335.07C119.639 334.878 119.529 334.72 119.389 334.596C119.253 334.472 119.091 334.38 118.903 334.32C118.715 334.256 118.513 334.224 118.297 334.224C118.077 334.224 117.875 334.256 117.691 334.32C117.507 334.384 117.343 334.474 117.199 334.59C117.059 334.702 116.941 334.836 116.845 334.992C116.749 335.148 116.681 335.32 116.641 335.508C116.593 335.648 116.527 335.742 116.443 335.79C116.363 335.834 116.249 335.846 116.101 335.826L115.543 335.73C115.599 335.338 115.707 334.992 115.867 334.692C116.031 334.388 116.235 334.134 116.479 333.93C116.727 333.726 117.009 333.572 117.325 333.468C117.641 333.36 117.983 333.306 118.351 333.306C118.715 333.306 119.055 333.36 119.371 333.468C119.687 333.576 119.961 333.734 120.193 333.942C120.425 334.146 120.607 334.396 120.739 334.692C120.871 334.988 120.937 335.324 120.937 335.7C120.937 336.02 120.889 336.318 120.793 336.594C120.697 336.866 120.567 337.126 120.403 337.374C120.239 337.622 120.049 337.864 119.833 338.1C119.621 338.336 119.395 338.574 119.155 338.814L116.887 341.13C117.047 341.086 117.209 341.052 117.373 341.028C117.537 341 117.695 340.986 117.847 340.986H120.727ZM128.366 337.704C128.366 338.456 128.284 339.108 128.12 339.66C127.96 340.208 127.74 340.662 127.46 341.022C127.18 341.382 126.848 341.65 126.464 341.826C126.084 342.002 125.676 342.09 125.24 342.09C124.8 342.09 124.39 342.002 124.01 341.826C123.634 341.65 123.306 341.382 123.026 341.022C122.746 340.662 122.526 340.208 122.366 339.66C122.206 339.108 122.126 338.456 122.126 337.704C122.126 336.952 122.206 336.3 122.366 335.748C122.526 335.196 122.746 334.74 123.026 334.38C123.306 334.016 123.634 333.746 124.01 333.57C124.39 333.394 124.8 333.306 125.24 333.306C125.676 333.306 126.084 333.394 126.464 333.57C126.848 333.746 127.18 334.016 127.46 334.38C127.74 334.74 127.96 335.196 128.12 335.748C128.284 336.3 128.366 336.952 128.366 337.704ZM127.256 337.704C127.256 337.048 127.2 336.498 127.088 336.054C126.98 335.606 126.832 335.246 126.644 334.974C126.46 334.702 126.246 334.508 126.002 334.392C125.758 334.272 125.504 334.212 125.24 334.212C124.976 334.212 124.722 334.272 124.478 334.392C124.234 334.508 124.02 334.702 123.836 334.974C123.652 335.246 123.504 335.606 123.392 336.054C123.284 336.498 123.23 337.048 123.23 337.704C123.23 338.36 123.284 338.91 123.392 339.354C123.504 339.798 123.652 340.156 123.836 340.428C124.02 340.7 124.234 340.896 124.478 341.016C124.722 341.132 124.976 341.19 125.24 341.19C125.504 341.19 125.758 341.132 126.002 341.016C126.246 340.896 126.46 340.7 126.644 340.428C126.832 340.156 126.98 339.798 127.088 339.354C127.2 338.91 127.256 338.36 127.256 337.704Z" fill="#808080" fill-opacity="0.69"/>
<path d="M121.405 399.704C121.405 400.456 121.323 401.108 121.159 401.66C120.999 402.208 120.779 402.662 120.499 403.022C120.219 403.382 119.887 403.65 119.503 403.826C119.123 404.002 118.715 404.09 118.279 404.09C117.839 404.09 117.429 404.002 117.049 403.826C116.673 403.65 116.345 403.382 116.065 403.022C115.785 402.662 115.565 402.208 115.405 401.66C115.245 401.108 115.165 400.456 115.165 399.704C115.165 398.952 115.245 398.3 115.405 397.748C115.565 397.196 115.785 396.74 116.065 396.38C116.345 396.016 116.673 395.746 117.049 395.57C117.429 395.394 117.839 395.306 118.279 395.306C118.715 395.306 119.123 395.394 119.503 395.57C119.887 395.746 120.219 396.016 120.499 396.38C120.779 396.74 120.999 397.196 121.159 397.748C121.323 398.3 121.405 398.952 121.405 399.704ZM120.295 399.704C120.295 399.048 120.239 398.498 120.127 398.054C120.019 397.606 119.871 397.246 119.683 396.974C119.499 396.702 119.285 396.508 119.041 396.392C118.797 396.272 118.543 396.212 118.279 396.212C118.015 396.212 117.761 396.272 117.517 396.392C117.273 396.508 117.059 396.702 116.875 396.974C116.691 397.246 116.543 397.606 116.431 398.054C116.323 398.498 116.269 399.048 116.269 399.704C116.269 400.36 116.323 400.91 116.431 401.354C116.543 401.798 116.691 402.156 116.875 402.428C117.059 402.7 117.273 402.896 117.517 403.016C117.761 403.132 118.015 403.19 118.279 403.19C118.543 403.19 118.797 403.132 119.041 403.016C119.285 402.896 119.499 402.7 119.683 402.428C119.871 402.156 120.019 401.798 120.127 401.354C120.239 400.91 120.295 400.36 120.295 399.704ZM128.366 399.704C128.366 400.456 128.284 401.108 128.12 401.66C127.96 402.208 127.74 402.662 127.46 403.022C127.18 403.382 126.848 403.65 126.464 403.826C126.084 404.002 125.676 404.09 125.24 404.09C124.8 404.09 124.39 404.002 124.01 403.826C123.634 403.65 123.306 403.382 123.026 403.022C122.746 402.662 122.526 402.208 122.366 401.66C122.206 401.108 122.126 400.456 122.126 399.704C122.126 398.952 122.206 398.3 122.366 397.748C122.526 397.196 122.746 396.74 123.026 396.38C123.306 396.016 123.634 395.746 124.01 395.57C124.39 395.394 124.8 395.306 125.24 395.306C125.676 395.306 126.084 395.394 126.464 395.57C126.848 395.746 127.18 396.016 127.46 396.38C127.74 396.74 127.96 397.196 128.12 397.748C128.284 398.3 128.366 398.952 128.366 399.704ZM127.256 399.704C127.256 399.048 127.2 398.498 127.088 398.054C126.98 397.606 126.832 397.246 126.644 396.974C126.46 396.702 126.246 396.508 126.002 396.392C125.758 396.272 125.504 396.212 125.24 396.212C124.976 396.212 124.722 396.272 124.478 396.392C124.234 396.508 124.02 396.702 123.836 396.974C123.652 397.246 123.504 397.606 123.392 398.054C123.284 398.498 123.23 399.048 123.23 399.704C123.23 400.36 123.284 400.91 123.392 401.354C123.504 401.798 123.652 402.156 123.836 402.428C124.02 402.7 124.234 402.896 124.478 403.016C124.722 403.132 124.976 403.19 125.24 403.19C125.504 403.19 125.758 403.132 126.002 403.016C126.246 402.896 126.46 402.7 126.644 402.428C126.832 402.156 126.98 401.798 127.088 401.354C127.2 400.91 127.256 400.36 127.256 399.704Z" fill="#808080" fill-opacity="0.69"/>
<rect x="173.937" y="295" width="45.2097" height="115" rx="5" fill="#09B96D" fill-opacity="0.32"/>
<rect x="240.422" y="262" width="45.2097" height="148" rx="5" fill="#09B96D" fill-opacity="0.32"/>
<rect x="314.885" y="325" width="45.2097" height="84" rx="5" fill="#09B96D" fill-opacity="0.32"/>
<rect x="389.348" y="234" width="45.2097" height="175" rx="5" fill="#09B96D" fill-opacity="0.32"/>
<rect x="467.8" y="212" width="45.2097" height="199" rx="5" fill="#09B96D" fill-opacity="0.32"/>
<rect x="542.263" y="348" width="45.2097" height="63" rx="5" fill="#09B96D" fill-opacity="0.32"/>
<rect x="765.652" y="255" width="45.2097" height="156" rx="5" fill="#09B96D" fill-opacity="0.32"/>
<rect x="841.445" y="198" width="45.2097" height="213" rx="5" fill="#09B96D" fill-opacity="0.32"/>
<rect x="913.249" y="348" width="45.2097" height="61" rx="5" fill="#09B96D" fill-opacity="0.32"/>
<rect x="986.382" y="295" width="45.2097" height="114" rx="5" fill="#09B96D" fill-opacity="0.32"/>
<rect x="618.056" y="367" width="45.2097" height="42" rx="5" fill="#09B96D" fill-opacity="0.32"/>
<g filter="url(#filter1_d_182_2617)">
<rect x="691.189" y="162" width="45.2097" height="247" rx="5" fill="#09B96D"/>
</g>
<defs>
<filter id="filter0_d_182_2617" x="0.4" y="0.4" width="1154.2" height="539.2" filterUnits="userSpaceOnUse" color-interpolation-filters="sRGB">
<feFlood flood-opacity="0" result="BackgroundImageFix"/>
<feColorMatrix in="SourceAlpha" type="matrix" values="0 0 0 0 0 0 0 0 0 0 0 0 0 0 0 0 0 0 127 0" result="hardAlpha"/>
<feOffset dy="23"/>
<feGaussianBlur stdDeviation="14.3"/>
<feComposite in2="hardAlpha" operator="out"/>
<feColorMatrix type="matrix" values="0 0 0 0 0 0 0 0 0 0 0 0 0 0 0 0 0 0 0.03 0"/>
<feBlend mode="normal" in2="BackgroundImageFix" result="effect1_dropShadow_182_2617"/>
<feBlend mode="normal" in="SourceGraphic" in2="effect1_dropShadow_182_2617" result="shape"/>
</filter>
<filter id="filter1_d_182_2617" x="679.989" y="159.8" width="67.6097" height="269.4" filterUnits="userSpaceOnUse" color-interpolation-filters="sRGB">
<feFlood flood-opacity="0" result="BackgroundImageFix"/>
<feColorMatrix in="SourceAlpha" type="matrix" values="0 0 0 0 0 0 0 0 0 0 0 0 0 0 0 0 0 0 127 0" result="hardAlpha"/>
<feOffset dy="9"/>
<feGaussianBlur stdDeviation="5.6"/>
<feComposite in2="hardAlpha" operator="out"/>
<feColorMatrix type="matrix" values="0 0 0 0 0.411765 0 0 0 0 0.462745 0 0 0 0 0.921569 0 0 0 0.39 0"/>
<feBlend mode="normal" in2="BackgroundImageFix" result="effect1_dropShadow_182_2617"/>
<feBlend mode="normal" in="SourceGraphic" in2="effect1_dropShadow_182_2617" result="shape"/>
</filter>
</defs>
</svg>
