<svg width="293" height="40" viewBox="0 0 293 40" fill="none" xmlns="http://www.w3.org/2000/svg">
<path d="M201.148 16.9567C201.092 16.4524 200.857 16.0618 200.445 15.7848C200.033 15.5043 199.515 15.364 198.89 15.364C198.442 15.364 198.055 15.435 197.729 15.5771C197.402 15.7156 197.148 15.9073 196.967 16.1523C196.789 16.3938 196.701 16.669 196.701 16.978C196.701 17.2372 196.761 17.4609 196.882 17.6491C197.006 17.8374 197.168 17.9954 197.366 18.1232C197.569 18.2475 197.786 18.3523 198.016 18.4375C198.247 18.5192 198.469 18.5866 198.682 18.6399L199.748 18.9169C200.096 19.0021 200.452 19.1175 200.818 19.2631C201.184 19.4087 201.523 19.6005 201.836 19.8384C202.148 20.0763 202.4 20.3711 202.592 20.7227C202.787 21.0742 202.885 21.495 202.885 21.9851C202.885 22.603 202.725 23.1516 202.406 23.631C202.089 24.1104 201.63 24.4886 201.026 24.7656C200.426 25.0426 199.7 25.1811 198.847 25.1811C198.031 25.1811 197.324 25.0515 196.727 24.7923C196.131 24.533 195.664 24.1655 195.326 23.6896C194.989 23.2102 194.803 22.642 194.767 21.9851H196.418C196.45 22.3793 196.578 22.7077 196.802 22.9705C197.029 23.2298 197.319 23.4233 197.67 23.5511C198.025 23.6754 198.414 23.7376 198.837 23.7376C199.302 23.7376 199.716 23.6648 200.078 23.5192C200.444 23.37 200.731 23.1641 200.941 22.9013C201.15 22.6349 201.255 22.3242 201.255 21.9691C201.255 21.646 201.163 21.3814 200.978 21.1754C200.797 20.9695 200.55 20.799 200.238 20.6641C199.929 20.5291 199.579 20.4102 199.188 20.3072L197.899 19.9556C197.026 19.7177 196.333 19.3679 195.822 18.9062C195.314 18.4446 195.06 17.8338 195.06 17.0739C195.06 16.4453 195.23 15.8967 195.571 15.4279C195.912 14.9592 196.374 14.5952 196.956 14.3359C197.539 14.0732 198.196 13.9418 198.927 13.9418C199.666 13.9418 200.317 14.0714 200.882 14.3306C201.45 14.5898 201.898 14.9467 202.224 15.4013C202.551 15.8523 202.722 16.3707 202.736 16.9567H201.148ZM208.25 25.1651C207.444 25.1651 206.75 24.9929 206.168 24.6484C205.589 24.3004 205.141 23.8121 204.825 23.1836C204.513 22.5515 204.356 21.8111 204.356 20.9624C204.356 20.1243 204.513 19.3857 204.825 18.7464C205.141 18.1072 205.582 17.6083 206.146 17.2496C206.714 16.891 207.378 16.7116 208.138 16.7116C208.6 16.7116 209.047 16.788 209.481 16.9407C209.914 17.0934 210.303 17.3331 210.647 17.6598C210.992 17.9865 211.263 18.4109 211.462 18.9329C211.661 19.4513 211.761 20.0817 211.761 20.8239V21.3885H205.257V20.1953H210.2C210.2 19.7763 210.115 19.4052 209.944 19.082C209.774 18.7553 209.534 18.4979 209.225 18.3097C208.92 18.1214 208.561 18.0273 208.149 18.0273C207.702 18.0273 207.311 18.1374 206.977 18.3576C206.647 18.5742 206.391 18.8583 206.21 19.2099C206.033 19.5579 205.944 19.9361 205.944 20.3445V21.2766C205.944 21.8235 206.04 22.2887 206.231 22.6722C206.427 23.0558 206.698 23.3487 207.046 23.5511C207.394 23.75 207.801 23.8494 208.266 23.8494C208.568 23.8494 208.843 23.8068 209.092 23.7216C209.34 23.6328 209.555 23.5014 209.736 23.3274C209.918 23.1534 210.056 22.9386 210.152 22.6829L211.659 22.9545C211.539 23.3984 211.322 23.7873 211.009 24.1211C210.701 24.4513 210.312 24.7088 209.843 24.8935C209.378 25.0746 208.847 25.1651 208.25 25.1651ZM215.12 14.0909V25H213.528V14.0909H215.12ZM219.644 25.1811C219.126 25.1811 218.657 25.0852 218.238 24.8935C217.819 24.6982 217.487 24.4158 217.242 24.0465C217 23.6772 216.88 23.2244 216.88 22.6882C216.88 22.2266 216.968 21.8466 217.146 21.5483C217.323 21.25 217.563 21.0138 217.865 20.8398C218.167 20.6658 218.504 20.5344 218.877 20.4457C219.25 20.3569 219.63 20.2894 220.017 20.2433C220.507 20.1864 220.905 20.1403 221.21 20.1048C221.516 20.0657 221.737 20.0036 221.876 19.9183C222.014 19.8331 222.084 19.6946 222.084 19.5028V19.4656C222.084 19.0004 221.952 18.6399 221.69 18.3842C221.43 18.1286 221.043 18.0007 220.528 18.0007C219.992 18.0007 219.57 18.1197 219.261 18.3576C218.955 18.592 218.744 18.853 218.627 19.1406L217.13 18.7997C217.307 18.3026 217.567 17.9013 217.908 17.5959C218.252 17.2869 218.648 17.0632 219.095 16.9247C219.543 16.7827 220.013 16.7116 220.507 16.7116C220.834 16.7116 221.18 16.7507 221.546 16.8288C221.915 16.9034 222.259 17.0419 222.579 17.2443C222.902 17.4467 223.167 17.7362 223.373 18.1126C223.579 18.4854 223.682 18.9702 223.682 19.5668V25H222.126V23.8814H222.062C221.959 24.0874 221.805 24.2898 221.599 24.4886C221.393 24.6875 221.128 24.8526 220.805 24.984C220.482 25.1154 220.095 25.1811 219.644 25.1811ZM219.99 23.9027C220.431 23.9027 220.807 23.8157 221.12 23.6417C221.436 23.4677 221.675 23.2404 221.839 22.9599C222.006 22.6758 222.089 22.3722 222.089 22.049V20.9943C222.032 21.0511 221.922 21.1044 221.759 21.1541C221.599 21.2003 221.416 21.2411 221.21 21.2766C221.004 21.3086 220.804 21.3388 220.608 21.3672C220.413 21.392 220.25 21.4134 220.118 21.4311C219.809 21.4702 219.527 21.5359 219.271 21.6282C219.019 21.7205 218.817 21.8537 218.664 22.0277C218.515 22.1982 218.44 22.4254 218.44 22.7095C218.44 23.1037 218.586 23.402 218.877 23.6044C219.168 23.8033 219.539 23.9027 219.99 23.9027ZM227.396 20.142V25H225.803V16.8182H227.332V18.1499H227.433C227.621 17.7166 227.916 17.3686 228.317 17.1058C228.722 16.843 229.232 16.7116 229.846 16.7116C230.404 16.7116 230.892 16.8288 231.311 17.0632C231.73 17.294 232.055 17.6385 232.286 18.0966C232.517 18.5547 232.632 19.1211 232.632 19.7958V25H231.039V19.9876C231.039 19.3945 230.885 18.9311 230.576 18.5973C230.267 18.2599 229.843 18.0913 229.303 18.0913C228.933 18.0913 228.605 18.1712 228.317 18.331C228.033 18.4908 227.808 18.7251 227.641 19.0341C227.477 19.3395 227.396 19.7088 227.396 20.142ZM234.768 16.8182H236.361V25.5327C236.361 26.0795 236.261 26.5412 236.062 26.9176C235.867 27.294 235.576 27.5799 235.189 27.7752C234.805 27.9705 234.331 28.0682 233.767 28.0682C233.71 28.0682 233.656 28.0682 233.607 28.0682C233.553 28.0682 233.498 28.0664 233.442 28.0629V26.6939C233.491 26.6939 233.536 26.6939 233.575 26.6939C233.61 26.6939 233.651 26.6939 233.697 26.6939C234.074 26.6939 234.345 26.5927 234.512 26.3903C234.683 26.1914 234.768 25.902 234.768 25.522V16.8182ZM235.556 15.5558C235.279 15.5558 235.041 15.4634 234.843 15.2788C234.647 15.0906 234.55 14.8668 234.55 14.6076C234.55 14.3448 234.647 14.1211 234.843 13.9364C235.041 13.7482 235.279 13.6541 235.556 13.6541C235.833 13.6541 236.069 13.7482 236.265 13.9364C236.464 14.1211 236.563 14.3448 236.563 14.6076C236.563 14.8668 236.464 15.0906 236.265 15.2788C236.069 15.4634 235.833 15.5558 235.556 15.5558ZM243.686 21.6069V16.8182H245.284V25H243.718V23.5831H243.633C243.445 24.0199 243.143 24.3839 242.727 24.6751C242.315 24.9627 241.802 25.1065 241.188 25.1065C240.662 25.1065 240.197 24.9911 239.792 24.7603C239.391 24.5259 239.075 24.1797 238.844 23.7216C238.617 23.2635 238.503 22.6971 238.503 22.0224V16.8182H240.096V21.8306C240.096 22.3881 240.25 22.832 240.559 23.1623C240.868 23.4925 241.27 23.6577 241.763 23.6577C242.062 23.6577 242.358 23.5831 242.653 23.4339C242.951 23.2848 243.198 23.0593 243.393 22.7575C243.592 22.4556 243.69 22.0721 243.686 21.6069ZM251.243 16.8182V18.0966H246.774V16.8182H251.243ZM247.973 14.858H249.566V22.5977C249.566 22.9066 249.612 23.1392 249.704 23.2955C249.796 23.4482 249.915 23.5529 250.061 23.6097C250.21 23.663 250.372 23.6896 250.546 23.6896C250.673 23.6896 250.785 23.6808 250.881 23.663C250.977 23.6452 251.052 23.631 251.105 23.6204L251.393 24.9361C251.3 24.9716 251.169 25.0071 250.998 25.0426C250.828 25.0817 250.615 25.103 250.359 25.1065C249.94 25.1136 249.55 25.0391 249.187 24.8828C248.825 24.7266 248.532 24.4851 248.308 24.1584C248.085 23.8317 247.973 23.4215 247.973 22.9279V14.858ZM254.598 20.142V25H253.005V16.8182H254.534V18.1499H254.635C254.823 17.7166 255.118 17.3686 255.519 17.1058C255.924 16.843 256.434 16.7116 257.048 16.7116C257.606 16.7116 258.094 16.8288 258.513 17.0632C258.932 17.294 259.257 17.6385 259.488 18.0966C259.719 18.5547 259.834 19.1211 259.834 19.7958V25H258.241V19.9876C258.241 19.3945 258.087 18.9311 257.778 18.5973C257.469 18.2599 257.045 18.0913 256.505 18.0913C256.136 18.0913 255.807 18.1712 255.519 18.331C255.235 18.4908 255.01 18.7251 254.843 19.0341C254.68 19.3395 254.598 19.7088 254.598 20.142ZM262.684 28.0682C262.446 28.0682 262.229 28.0487 262.034 28.0096C261.839 27.9741 261.693 27.935 261.597 27.8924L261.981 26.5874C262.272 26.6655 262.531 26.6992 262.758 26.6886C262.986 26.6779 263.186 26.5927 263.36 26.4329C263.538 26.2731 263.694 26.0121 263.829 25.6499L264.026 25.1065L261.033 16.8182H262.737L264.809 23.1676H264.894L266.967 16.8182H268.676L265.305 26.092C265.148 26.5181 264.949 26.8786 264.708 27.1733C264.467 27.4716 264.179 27.6953 263.845 27.8445C263.511 27.9936 263.124 28.0682 262.684 28.0682ZM272.32 25.1811C271.801 25.1811 271.333 25.0852 270.914 24.8935C270.495 24.6982 270.163 24.4158 269.918 24.0465C269.676 23.6772 269.555 23.2244 269.555 22.6882C269.555 22.2266 269.644 21.8466 269.822 21.5483C269.999 21.25 270.239 21.0138 270.541 20.8398C270.843 20.6658 271.18 20.5344 271.553 20.4457C271.926 20.3569 272.306 20.2894 272.693 20.2433C273.183 20.1864 273.581 20.1403 273.886 20.1048C274.191 20.0657 274.413 20.0036 274.552 19.9183C274.69 19.8331 274.759 19.6946 274.759 19.5028V19.4656C274.759 19.0004 274.628 18.6399 274.365 18.3842C274.106 18.1286 273.719 18.0007 273.204 18.0007C272.668 18.0007 272.245 18.1197 271.936 18.3576C271.631 18.592 271.42 18.853 271.302 19.1406L269.806 18.7997C269.983 18.3026 270.242 17.9013 270.583 17.5959C270.928 17.2869 271.324 17.0632 271.771 16.9247C272.219 16.7827 272.689 16.7116 273.183 16.7116C273.509 16.7116 273.856 16.7507 274.222 16.8288C274.591 16.9034 274.935 17.0419 275.255 17.2443C275.578 17.4467 275.843 17.7362 276.049 18.1126C276.255 18.4854 276.358 18.9702 276.358 19.5668V25H274.802V23.8814H274.738C274.635 24.0874 274.481 24.2898 274.275 24.4886C274.069 24.6875 273.804 24.8526 273.481 24.984C273.158 25.1154 272.771 25.1811 272.32 25.1811ZM272.666 23.9027C273.106 23.9027 273.483 23.8157 273.795 23.6417C274.111 23.4677 274.351 23.2404 274.514 22.9599C274.681 22.6758 274.765 22.3722 274.765 22.049V20.9943C274.708 21.0511 274.598 21.1044 274.435 21.1541C274.275 21.2003 274.092 21.2411 273.886 21.2766C273.68 21.3086 273.479 21.3388 273.284 21.3672C273.089 21.392 272.925 21.4134 272.794 21.4311C272.485 21.4702 272.203 21.5359 271.947 21.6282C271.695 21.7205 271.492 21.8537 271.34 22.0277C271.191 22.1982 271.116 22.4254 271.116 22.7095C271.116 23.1037 271.262 23.402 271.553 23.6044C271.844 23.8033 272.215 23.9027 272.666 23.9027Z" fill="#0058EA"/>
<path d="M285 26L291 20L285 14" stroke="#0058EA" stroke-width="2"/>
<path d="M101.847 25.1491C104.074 25.1491 105.709 23.8175 105.704 22.0064C105.709 20.6268 104.873 19.636 103.424 19.4123V19.3271C104.564 19.0341 105.304 18.1392 105.299 16.9141C105.304 15.3107 103.989 13.9418 101.89 13.9418C99.8871 13.9418 98.2784 15.1509 98.2251 16.9247H99.8178C99.8551 15.9233 100.798 15.3161 101.869 15.3161C102.982 15.3161 103.712 15.9925 103.706 16.9993C103.712 18.054 102.865 18.7464 101.656 18.7464H100.734V20.0888H101.656C103.168 20.0888 104.042 20.8558 104.042 21.9531C104.042 23.0131 103.12 23.7322 101.837 23.7322C100.654 23.7322 99.7326 23.125 99.6687 22.1555H97.9961C98.0653 23.9347 99.642 25.1491 101.847 25.1491Z" fill="#0058EA"/>
<path d="M170.188 14.0909V25H168.537V15.7422H168.473L165.863 17.4467V15.87L168.585 14.0909H170.188ZM172.91 22.8693V21.5376L177.624 14.0909H178.674V16.0511H178.008L174.636 21.3885V21.4737H181.097V22.8693H172.91ZM178.082 25V22.4645L178.093 21.8572V14.0909H179.654V25H178.082Z" fill="#0058EA"/>
<path d="M134.12 25.1012C133.829 25.1012 133.578 24.9982 133.369 24.7923C133.159 24.5827 133.055 24.3306 133.055 24.0359C133.055 23.7447 133.159 23.4961 133.369 23.2901C133.578 23.0806 133.829 22.9759 134.12 22.9759C134.411 22.9759 134.662 23.0806 134.871 23.2901C135.081 23.4961 135.185 23.7447 135.185 24.0359C135.185 24.2312 135.136 24.4105 135.036 24.5739C134.94 24.7337 134.812 24.8615 134.653 24.9574C134.493 25.0533 134.315 25.1012 134.12 25.1012ZM138.368 25.1012C138.077 25.1012 137.827 24.9982 137.617 24.7923C137.407 24.5827 137.303 24.3306 137.303 24.0359C137.303 23.7447 137.407 23.4961 137.617 23.2901C137.827 23.0806 138.077 22.9759 138.368 22.9759C138.659 22.9759 138.91 23.0806 139.119 23.2901C139.329 23.4961 139.433 23.7447 139.433 24.0359C139.433 24.2312 139.384 24.4105 139.284 24.5739C139.188 24.7337 139.061 24.8615 138.901 24.9574C138.741 25.0533 138.563 25.1012 138.368 25.1012ZM142.616 25.1012C142.325 25.1012 142.075 24.9982 141.865 24.7923C141.656 24.5827 141.551 24.3306 141.551 24.0359C141.551 23.7447 141.656 23.4961 141.865 23.2901C142.075 23.0806 142.325 22.9759 142.616 22.9759C142.907 22.9759 143.158 23.0806 143.367 23.2901C143.577 23.4961 143.681 23.7447 143.681 24.0359C143.681 24.2312 143.632 24.4105 143.532 24.5739C143.436 24.7337 143.309 24.8615 143.149 24.9574C142.989 25.0533 142.811 25.1012 142.616 25.1012Z" fill="#0058EA"/>
<rect width="40" height="40" rx="15" fill="#0058EA"/>
<path d="M21.1882 14.0909V25H19.5369V15.7422H19.473L16.8629 17.4467V15.87L19.5849 14.0909H21.1882Z" fill="white"/>
<path d="M61.0494 25H68.2298V23.5884H63.3185V23.5085L65.4865 21.2393C67.484 19.2205 68.054 18.2564 68.054 17.0366C68.054 15.2841 66.6264 13.9418 64.5703 13.9418C62.5302 13.9418 61.0387 15.2628 61.0387 17.255H62.6101C62.6048 16.0831 63.3612 15.3161 64.5384 15.3161C65.6463 15.3161 66.4879 15.9979 66.4879 17.0845C66.4879 18.0487 65.9126 18.7411 64.7408 19.9822L61.0494 23.8068V25Z" fill="#0058EA"/>
</svg>
