<svg width="24" height="16" viewBox="0 0 24 16" fill="none" xmlns="http://www.w3.org/2000/svg">
<rect width="24" height="16" rx="8" fill="#FF625C"/>
<path d="M9.62305 4.15283V12H8.32861V5.68896L6.41113 6.33887V5.27002L9.46729 4.15283H9.62305ZM14.3608 7.50439H15.1343C15.4351 7.50439 15.6839 7.45247 15.8809 7.34863C16.0814 7.24479 16.23 7.10156 16.3267 6.91895C16.4233 6.73633 16.4717 6.52686 16.4717 6.29053C16.4717 6.04346 16.4269 5.83219 16.3374 5.65674C16.2515 5.4777 16.119 5.33984 15.9399 5.24316C15.7645 5.14648 15.5407 5.09814 15.2686 5.09814C15.0394 5.09814 14.8317 5.14469 14.6455 5.23779C14.4629 5.32731 14.3179 5.45622 14.2104 5.62451C14.103 5.78923 14.0493 5.98617 14.0493 6.21533H12.7495C12.7495 5.79997 12.8587 5.43115 13.0771 5.10889C13.2956 4.78662 13.5928 4.53418 13.9688 4.35156C14.3483 4.16536 14.7744 4.07227 15.2471 4.07227C15.752 4.07227 16.1924 4.15641 16.5684 4.32471C16.9479 4.48942 17.2433 4.73649 17.4546 5.06592C17.6659 5.39535 17.7715 5.80355 17.7715 6.29053C17.7715 6.51253 17.7196 6.73812 17.6157 6.96729C17.5119 7.19645 17.3579 7.40592 17.1538 7.5957C16.9497 7.7819 16.6955 7.93408 16.3911 8.05225C16.0868 8.16683 15.734 8.22412 15.333 8.22412H14.3608V7.50439ZM14.3608 8.51416V7.80518H15.333C15.7913 7.80518 16.1816 7.85889 16.5039 7.96631C16.8298 8.07373 17.0947 8.22233 17.2988 8.41211C17.5029 8.59831 17.6515 8.81136 17.7446 9.05127C17.8413 9.29118 17.8896 9.54541 17.8896 9.81396C17.8896 10.1792 17.8234 10.505 17.6909 10.7915C17.562 11.0744 17.3776 11.3143 17.1377 11.5112C16.8978 11.7082 16.6167 11.8568 16.2944 11.957C15.9757 12.0573 15.6284 12.1074 15.2524 12.1074C14.9159 12.1074 14.5936 12.0609 14.2856 11.9678C13.9777 11.8747 13.702 11.7368 13.4585 11.5542C13.215 11.368 13.0216 11.137 12.8784 10.8613C12.7388 10.582 12.6689 10.2598 12.6689 9.89453H13.9634C13.9634 10.1273 14.0171 10.3332 14.1245 10.5122C14.2355 10.6877 14.3895 10.8255 14.5864 10.9258C14.7869 11.026 15.0161 11.0762 15.2739 11.0762C15.5461 11.0762 15.7806 11.0278 15.9775 10.9312C16.1745 10.8345 16.3249 10.6912 16.4287 10.5015C16.5361 10.3117 16.5898 10.0825 16.5898 9.81396C16.5898 9.5096 16.5308 9.26253 16.4126 9.07275C16.2944 8.88298 16.1261 8.74333 15.9077 8.65381C15.6893 8.56071 15.4315 8.51416 15.1343 8.51416H14.3608Z" fill="white"/>
</svg>
