<svg width="35" height="35" viewBox="0 0 35 35" fill="none" xmlns="http://www.w3.org/2000/svg">
<rect width="35" height="35" rx="10" fill="#0058EA"/>
<path d="M11.9443 11.579L11.9443 10.5556C11.9443 7.48733 14.4316 5.00002 17.4999 5.00002V5.00002C20.5681 5.00002 23.0554 7.48733 23.0554 10.5556L23.0554 11.579" stroke="white" stroke-width="2" stroke-linecap="round"/>
<path fill-rule="evenodd" clip-rule="evenodd" d="M5.58579 10.849C5 11.4348 5 12.3776 5 14.2632V22.0001C5 25.7713 5 27.6569 6.17157 28.8285C7.34315 30.0001 9.22876 30.0001 13 30.0001H22C25.7712 30.0001 27.6569 30.0001 28.8284 28.8285C30 27.6569 30 25.7713 30 22.0001V14.2632C30 12.3776 30 11.4348 29.4142 10.849C28.8284 10.2632 27.8856 10.2632 26 10.2632H9C7.11438 10.2632 6.17157 10.2632 5.58579 10.849ZM14.3333 16.8422C14.3333 16.2899 13.8856 15.8422 13.3333 15.8422C12.781 15.8422 12.3333 16.2899 12.3333 16.8422V19.4738C12.3333 20.0261 12.781 20.4738 13.3333 20.4738C13.8856 20.4738 14.3333 20.0261 14.3333 19.4738V16.8422ZM22.6666 16.8422C22.6666 16.2899 22.2189 15.8422 21.6666 15.8422C21.1144 15.8422 20.6666 16.2899 20.6666 16.8422V19.4738C20.6666 20.0261 21.1144 20.4738 21.6666 20.4738C22.2189 20.4738 22.6666 20.0261 22.6666 19.4738V16.8422Z" fill="white"/>
</svg>
