<svg width="35" height="35" viewBox="0 0 35 35" fill="none" xmlns="http://www.w3.org/2000/svg">
<rect width="35" height="35" rx="10" fill="#0058EA"/>
<path d="M17.5 9.66663V16.3333M17.5 16.3333L20 13.8333M17.5 16.3333L15 13.8333" stroke="white" stroke-width="2" stroke-linecap="round" stroke-linejoin="round"/>
<path d="M9.16699 18.8333H11.8003C12.5545 18.8333 12.932 18.8333 13.2637 18.9858C13.5953 19.1383 13.8403 19.4249 14.3312 19.9974L14.8362 20.5858C15.327 21.1583 15.572 21.4449 15.9037 21.5974C16.2353 21.7499 16.612 21.7499 17.367 21.7499H17.6337C18.3878 21.7499 18.7653 21.7499 19.097 21.5974C19.4287 21.4449 19.6737 21.1583 20.1645 20.5858L20.6695 19.9974C21.1603 19.4249 21.4053 19.1383 21.737 18.9858C22.0687 18.8333 22.4453 18.8333 23.2003 18.8333H25.8337" stroke="white" stroke-width="2" stroke-linecap="round"/>
<path d="M21.667 9.77246C23.0212 9.90579 23.9337 10.2066 24.6128 10.8875C25.8337 12.1075 25.8337 14.0716 25.8337 18C25.8337 21.9283 25.8337 23.8925 24.6128 25.1133C23.3937 26.3333 21.4287 26.3333 17.5003 26.3333C13.572 26.3333 11.6078 26.3333 10.387 25.1133C9.16699 23.8916 9.16699 21.9283 9.16699 18C9.16699 14.0716 9.16699 12.1083 10.387 10.8875C11.0678 10.2066 11.9787 9.90579 13.3337 9.77246" stroke="white" stroke-width="2" stroke-linecap="round"/>
</svg>
