<svg width="66" height="64" viewBox="0 0 66 64" fill="none" xmlns="http://www.w3.org/2000/svg">
<path opacity="0.21" fill-rule="evenodd" clip-rule="evenodd" d="M0 31.8634V40.7267C0 53.4293 10.2974 63.7267 23 63.7267L32.7481 63.7267L42.4962 63.7267C55.1987 63.7267 65.4962 53.4292 65.4962 40.7267V31.8634V23C65.4962 10.2975 55.1987 0 42.4962 0H32.7481H23C10.2974 0 0 10.2975 0 23V31.8634Z" fill="#4AD991"/>
<path d="M20.8619 43.4286H46.3327C47.2705 43.4286 48.0307 44.1683 48.0307 45.0807C48.0307 45.9932 47.2705 46.7329 46.3327 46.7329H19.1639C18.2261 46.7329 17.4658 45.9932 17.4658 45.0807V18.6459C17.4658 17.7335 18.2261 16.9938 19.1639 16.9938C20.1017 16.9938 20.8619 17.7335 20.8619 18.6459V43.4286Z" fill="#09B96D"/>
<path opacity="0.5" d="M27.1947 36.2977C26.5533 36.9634 25.4787 36.9971 24.7945 36.3731C24.1103 35.749 24.0757 34.7034 24.7171 34.0378L31.0848 27.4291C31.7051 26.7853 32.7359 26.7294 33.4258 27.3023L38.4516 31.4751L44.9997 23.4048C45.5808 22.6887 46.6486 22.5664 47.3846 23.1318C48.1207 23.6973 48.2463 24.7362 47.6652 25.4524L40.024 34.8698C39.4272 35.6053 38.3217 35.7111 37.589 35.1028L32.454 30.8393L27.1947 36.2977Z" fill="#09B96D"/>
</svg>
