<svg width="20" height="20" viewBox="0 0 20 20" fill="none" xmlns="http://www.w3.org/2000/svg">
<path d="M6.11133 5.06079L6.11133 4.27356C6.11133 1.91337 8.02464 5.33607e-05 10.3848 5.33052e-05V5.33052e-05C12.745 5.32497e-05 14.6583 1.91337 14.6583 4.27356L14.6583 5.06079" stroke="white" stroke-width="2" stroke-linecap="round"/>
<path fill-rule="evenodd" clip-rule="evenodd" d="M1.35532 4.63437C0.769531 5.22016 0.769531 6.16297 0.769531 8.04858V11.2308C0.769531 15.002 0.769531 16.8877 1.9411 18.0592C3.11268 19.2308 4.99829 19.2308 8.76953 19.2308H12.0003C15.7715 19.2308 17.6572 19.2308 18.8287 18.0592C20.0003 16.8877 20.0003 15.002 20.0003 11.2308V8.04858C20.0003 6.16297 20.0003 5.22016 19.4145 4.63437C18.8287 4.04858 17.8859 4.04858 16.0003 4.04858H4.76953C2.88391 4.04858 1.9411 4.04858 1.35532 4.63437ZM8.17977 9.10936C8.17977 8.55707 7.73206 8.10936 7.17977 8.10936C6.62749 8.10936 6.17977 8.55707 6.17977 9.10936V11.1337C6.17977 11.6859 6.62749 12.1337 7.17977 12.1337C7.73206 12.1337 8.17977 11.6859 8.17977 11.1337V9.10936ZM14.59 9.10936C14.59 8.55707 14.1423 8.10936 13.59 8.10936C13.0377 8.10936 12.59 8.55707 12.59 9.10936V11.1337C12.59 11.6859 13.0377 12.1337 13.59 12.1337C14.1423 12.1337 14.59 11.6859 14.59 11.1337V9.10936Z" fill="white"/>
</svg>
