<svg width="40" height="40" viewBox="0 0 40 40" fill="none" xmlns="http://www.w3.org/2000/svg">
<path d="M8.33301 36.6667C8.33406 37.5504 8.68558 38.3977 9.31048 39.0226C9.93537 39.6475 10.7826 39.999 11.6663 40H28.333C29.2167 39.999 30.064 39.6475 30.6889 39.0226C31.3138 38.3977 31.6653 37.5504 31.6663 36.6667V35.2084H8.33301V36.6667Z" fill="#0058EA"/>
<path d="M31.6663 3.33333C31.6653 2.4496 31.3138 1.60236 30.6889 0.977468C30.064 0.352573 29.2167 0.00104757 28.333 0L11.6663 0C10.7826 0.00104757 9.93537 0.352573 9.31048 0.977468C8.68558 1.60236 8.33406 2.4496 8.33301 3.33333V5H31.6663V3.33333Z" fill="#0058EA"/>
<path d="M39.5359 10.7208L34.5359 5.51245L32.1314 7.82079L34.2232 9.99995H31.667V13.3333H34.403L32.1805 15.4633L34.4868 17.87L39.4868 13.0783C39.6449 12.9268 39.7716 12.7456 39.8596 12.5451C39.9477 12.3446 39.9953 12.1287 39.9999 11.9097C40.0045 11.6908 39.9659 11.4731 39.8862 11.2691C39.8066 11.0651 39.6876 10.8788 39.5359 10.7208Z" fill="#0058EA"/>
<path d="M26.6663 9.99996H31.6663V6.66663H8.33301V26.6666H13.333V30H8.33301V33.3333H31.6663V13.3333H26.6663V9.99996ZM24.9997 16.6666H19.1663C18.9453 16.6666 18.7334 16.7544 18.5771 16.9107C18.4208 17.067 18.333 17.2789 18.333 17.5C18.333 17.721 18.4208 17.9329 18.5771 18.0892C18.7334 18.2455 18.9453 18.3333 19.1663 18.3333H20.833C21.8663 18.3323 22.8631 18.7152 23.63 19.4078C24.3968 20.1004 24.8789 21.0532 24.9828 22.0812C25.0866 23.1093 24.8048 24.1393 24.1919 24.9712C23.5791 25.8031 22.679 26.3777 21.6663 26.5833V28.3333H18.333V26.6666H14.9997V23.3333H20.833C21.054 23.3333 21.266 23.2455 21.4223 23.0892C21.5785 22.9329 21.6663 22.721 21.6663 22.5C21.6663 22.2789 21.5785 22.067 21.4223 21.9107C21.266 21.7544 21.054 21.6666 20.833 21.6666H19.1663C18.133 21.6677 17.1362 21.2847 16.3694 20.5922C15.6026 19.8996 15.1204 18.9468 15.0166 17.9187C14.9127 16.8906 15.1946 15.8607 15.8074 15.0287C16.4203 14.1968 17.3204 13.6222 18.333 13.4166V11.6666H21.6663V13.3333H24.9997V16.6666Z" fill="#0058EA"/>
<path d="M5.59724 26.6667L7.81974 24.5367L5.51349 22.13L0.51349 26.9217C0.355384 27.0732 0.228687 27.2544 0.140642 27.4549C0.0525964 27.6554 0.00492845 27.8713 0.000362363 28.0902C-0.00420372 28.3092 0.0344216 28.5269 0.114031 28.7309C0.19364 28.9349 0.312672 29.1212 0.464323 29.2792L5.46432 34.4875L7.86891 32.1792L5.77703 30H8.33328V26.6667H5.59724Z" fill="#0058EA"/>
</svg>
