<svg width="25" height="25" viewBox="0 0 25 25" fill="none" xmlns="http://www.w3.org/2000/svg">
<path d="M6.94434 6.57898L6.94434 5.55558C6.94434 2.48733 9.43164 2.04455e-05 12.4999 2.03733e-05V2.03733e-05C15.5681 2.03011e-05 18.0554 2.48733 18.0554 5.55558L18.0554 6.57898" stroke="#0058EA" stroke-width="2" stroke-linecap="round"/>
<path fill-rule="evenodd" clip-rule="evenodd" d="M0.585786 5.84891C0 6.4347 0 7.3775 0 9.26312V17C0 20.7712 0 22.6569 1.17157 23.8284C2.34315 25 4.22876 25 8 25H17C20.7712 25 22.6569 25 23.8284 23.8284C25 22.6569 25 20.7712 25 17V9.26312C25 7.3775 25 6.4347 24.4142 5.84891C23.8284 5.26312 22.8856 5.26312 21 5.26312H4C2.11438 5.26312 1.17157 5.26312 0.585786 5.84891ZM9.33331 11.8421C9.33331 11.2898 8.8856 10.8421 8.33331 10.8421C7.78103 10.8421 7.33331 11.2898 7.33331 11.8421V14.4737C7.33331 15.026 7.78103 15.4737 8.33331 15.4737C8.8856 15.4737 9.33331 15.026 9.33331 14.4737V11.8421ZM17.6666 11.8421C17.6666 11.2898 17.2189 10.8421 16.6666 10.8421C16.1144 10.8421 15.6666 11.2898 15.6666 11.8421V14.4737C15.6666 15.026 16.1144 15.4737 16.6666 15.4737C17.2189 15.4737 17.6666 15.026 17.6666 14.4737V11.8421Z" fill="#0058EA"/>
</svg>
